<svg width="265" height="83" viewBox="0 0 265 83" fill="none" xmlns="http://www.w3.org/2000/svg">
<g filter="url(#filter0_d_30_120)">
<rect x="8" y="5" width="249.134" height="67.2007" rx="8.19521" fill="#F7F7F7"/>
</g>
<circle cx="224.39" cy="38.3904" r="16.3904" fill="black"/>
<g clip-path="url(#clip0_30_120)">
<path d="M217.041 39.7228C217.041 41.6606 217.041 43.5766 217.041 45.5047C219.623 45.5047 222.201 45.5047 224.798 45.5047C224.798 45.4361 224.798 45.3718 224.798 45.3075C224.798 44.4386 224.797 43.5698 224.799 42.701C224.8 42.5163 224.919 42.393 225.088 42.3882C225.265 42.3834 225.388 42.5091 225.394 42.7015C225.396 42.7436 225.395 42.7861 225.395 42.8282C225.395 43.6486 225.395 44.4691 225.395 45.2901C225.395 45.3563 225.395 45.422 225.395 45.5163C225.492 45.5163 225.582 45.5163 225.672 45.5163C226.288 45.5163 226.294 45.5197 226.289 46.1236C226.288 46.3155 226.291 46.5123 226.251 46.6984C226.114 47.3555 225.513 47.8298 224.824 47.8307C222.218 47.8332 219.611 47.8336 217.005 47.8303C216.206 47.8293 215.55 47.1858 215.543 46.4098C215.541 46.2106 215.539 46.0114 215.544 45.8127C215.548 45.6285 215.657 45.5221 215.846 45.5173C216.037 45.5125 216.229 45.5163 216.438 45.5163C216.438 45.4283 216.438 45.3577 216.438 45.2872C216.438 43.3687 216.438 41.4498 216.438 39.5313C216.438 39.2306 216.526 39.145 216.835 39.145C217.719 39.1445 218.602 39.146 219.485 39.144C219.66 39.1436 219.774 39.2175 219.811 39.3805C219.845 39.5303 219.769 39.6411 219.631 39.7C219.572 39.7252 219.497 39.7218 219.43 39.7218C218.708 39.7233 217.987 39.7228 217.265 39.7228C217.197 39.7228 217.129 39.7228 217.041 39.7228ZM224.213 47.2424C225.284 47.3347 225.86 46.8797 225.668 46.1081C222.493 46.1081 219.319 46.1081 216.138 46.1081C216.138 46.2121 216.135 46.3025 216.139 46.3924C216.153 46.7642 216.373 47.0992 216.731 47.1868C217.018 47.2569 217.325 47.2491 217.632 47.2772C217.632 47.1476 217.631 47.0693 217.633 46.9909C217.638 46.7922 217.752 46.6728 217.934 46.6752C218.114 46.6776 218.224 46.798 218.228 46.9992C218.229 47.0809 218.228 47.1626 218.228 47.2399C220.036 47.2399 221.817 47.2399 223.597 47.2399C223.624 46.7869 223.678 46.6839 223.888 46.6752C224.104 46.666 224.165 46.77 224.213 47.2424Z" fill="white"/>
<path d="M224.492 37.2777C223.244 38.2761 222.008 39.2648 220.758 40.2652C220.898 40.5011 221.036 40.7341 221.174 40.9672C221.276 41.1393 221.379 41.3109 221.48 41.484C221.602 41.6919 221.575 41.8669 221.409 41.9559C221.241 42.0458 221.082 41.9825 220.955 41.7707C220.755 41.4376 220.557 41.1035 220.358 40.7699C220.327 40.7187 220.294 40.6684 220.248 40.5959C219.874 40.812 219.497 41.0078 219.145 41.2413C218.911 41.397 218.87 41.6939 219.01 41.9419C219.202 42.2793 219.4 42.6139 219.607 42.9427C219.781 43.2207 220.121 43.3242 220.4 43.1457C221.633 42.3553 223.045 41.9728 224.4 41.4613C225.099 41.1973 225.803 40.9474 226.52 40.6858C226.333 40.3706 226.151 40.0636 225.968 39.757C225.726 39.3499 225.483 38.9438 225.242 38.5362C225.125 38.338 225.155 38.1727 225.32 38.0808C225.481 37.9914 225.65 38.0508 225.766 38.2457C226.236 39.0328 226.704 39.8208 227.172 40.6094C227.33 40.8768 227.272 41.0296 226.974 41.1388C225.587 41.645 224.2 42.1498 222.812 42.6555C222.743 42.6806 222.675 42.7082 222.59 42.7406C222.769 43.0442 222.948 43.3382 223.117 43.6374C223.445 44.2157 223.112 44.8737 222.441 44.952C222.061 44.996 221.763 44.8321 221.567 44.513C221.367 44.1876 221.176 43.8574 221.01 43.5785C220.696 43.6626 220.412 43.7636 220.118 43.8096C219.85 43.8516 219.601 43.7409 219.397 43.5727C219.301 43.4934 219.237 43.4977 219.141 43.5582C218.918 43.6988 218.682 43.7917 218.404 43.7486C218.031 43.6906 217.751 43.4416 217.664 43.0781C217.581 42.7309 217.705 42.3543 218.03 42.1856C218.296 42.0478 218.371 41.8935 218.355 41.6044C218.333 41.2292 218.543 40.9275 218.859 40.7056C218.884 40.6877 218.91 40.6708 218.938 40.6578C220.083 40.123 221.015 39.3021 221.982 38.5275C222.768 37.8976 223.554 37.2686 224.342 36.64C224.548 36.4761 224.733 36.5066 224.87 36.7251C224.96 36.8692 225.048 37.0147 225.13 37.1636C225.224 37.3348 225.177 37.504 225.022 37.5857C224.872 37.665 224.718 37.6171 224.609 37.4571C224.573 37.4025 224.538 37.3474 224.492 37.2777ZM222.006 42.9528C221.826 43.0529 221.664 43.1433 221.498 43.2357C221.704 43.5823 221.892 43.9067 222.089 44.2268C222.178 44.3714 222.351 44.4125 222.492 44.338C222.622 44.2689 222.687 44.1146 222.613 43.9817C222.421 43.6399 222.215 43.3058 222.006 42.9528ZM218.637 42.4984C218.454 42.6096 218.223 42.6565 218.237 42.8987C218.242 42.9818 218.322 43.094 218.4 43.1341C218.605 43.2395 218.753 43.0882 218.927 42.9843C218.829 42.8213 218.738 42.6676 218.637 42.4984Z" fill="white"/>
<path d="M230.764 30.4563C231.354 30.4563 231.946 30.4553 232.536 30.4563C233.073 30.4577 233.455 30.8237 233.456 31.341C233.458 32.4874 233.458 33.6337 233.456 34.78C233.456 35.2988 233.075 35.6667 232.539 35.6672C231.357 35.6687 230.175 35.6687 228.993 35.6672C228.47 35.6663 228.086 35.2954 228.084 34.7902C228.082 34.2352 228.083 33.6801 228.084 33.1251C228.084 32.8954 228.192 32.7707 228.386 32.7731C228.577 32.7755 228.679 32.8988 228.679 33.1338C228.68 33.6588 228.679 34.1834 228.68 34.7085C228.68 34.986 228.787 35.089 229.076 35.0895C230.208 35.0904 231.34 35.0904 232.472 35.0895C232.749 35.089 232.86 34.9836 232.86 34.7191C232.862 33.6149 232.861 32.5111 232.86 31.4068C232.86 31.1404 232.75 31.0345 232.475 31.034C231.336 31.0331 230.198 31.0331 229.059 31.034C228.788 31.0345 228.682 31.1423 228.679 31.4121C228.678 31.575 228.683 31.738 228.678 31.9009C228.672 32.074 228.554 32.1886 228.388 32.192C228.213 32.1954 228.089 32.0788 228.084 31.8966C228.079 31.6974 228.081 31.4982 228.084 31.2995C228.091 30.8387 228.478 30.4611 228.953 30.4577C229.557 30.4534 230.16 30.4563 230.764 30.4563Z" fill="white"/>
<path d="M230.762 44.6461C230.177 44.6461 229.592 44.6471 229.008 44.6461C228.461 44.6447 228.084 44.2782 228.083 43.7469C228.082 42.6068 228.082 41.4663 228.083 40.3262C228.084 39.8065 228.464 39.4357 228.997 39.4352C230.179 39.4337 231.36 39.4337 232.542 39.4352C233.076 39.4357 233.455 39.8055 233.456 40.3257C233.458 40.875 233.457 41.4237 233.456 41.973C233.456 42.2045 233.35 42.3293 233.158 42.3293C232.966 42.3293 232.861 42.205 232.861 41.9725C232.86 41.4474 232.861 40.9228 232.86 40.3978C232.86 40.1178 232.754 40.0134 232.468 40.0129C231.336 40.012 230.204 40.012 229.072 40.0129C228.786 40.0129 228.68 40.1174 228.68 40.3973C228.679 41.4953 228.679 42.5933 228.68 43.6913C228.68 43.9596 228.789 44.0679 229.061 44.0679C230.199 44.0693 231.337 44.0689 232.476 44.0679C232.75 44.0674 232.858 43.9606 232.861 43.6937C232.862 43.5307 232.857 43.3678 232.862 43.2049C232.868 43.0226 232.992 42.9066 233.167 42.9104C233.333 42.9138 233.452 43.0279 233.456 43.2015C233.461 43.4186 233.464 43.6361 233.454 43.8527C233.434 44.2806 233.042 44.6413 232.591 44.6447C231.981 44.6495 231.371 44.6461 230.762 44.6461Z" fill="white"/>
<path d="M219.721 35.6775C219.721 36.4197 219.722 37.1618 219.721 37.904C219.721 38.181 219.626 38.2743 219.344 38.2743C218.2 38.2748 217.055 38.2748 215.91 38.2743C215.641 38.2743 215.543 38.1781 215.542 37.9131C215.542 36.4168 215.542 34.9204 215.542 33.424C215.542 33.1586 215.64 33.0629 215.91 33.0629C217.06 33.0624 218.212 33.0624 219.362 33.0629C219.621 33.0629 219.721 33.1615 219.721 33.4144C219.722 34.1691 219.721 34.9233 219.721 35.6775ZM219.112 37.6888C219.112 36.3331 219.112 34.992 219.112 33.6556C218.114 33.6556 217.129 33.6556 216.148 33.6556C216.148 35.0069 216.148 36.3438 216.148 37.6888C217.138 37.6888 218.118 37.6888 219.112 37.6888Z" fill="white"/>
<path d="M223.005 35.3782C221.534 35.3806 220.323 34.2222 220.319 32.8085C220.315 31.3406 221.5 30.1677 222.988 30.1663C224.493 30.1648 225.691 31.3189 225.692 32.7722C225.694 34.2159 224.497 35.3758 223.005 35.3782ZM225.096 32.7833C225.103 31.6815 224.171 30.76 223.036 30.7455C221.884 30.731 220.931 31.638 220.916 32.7616C220.902 33.8625 221.855 34.7966 222.995 34.7995C224.142 34.8024 225.089 33.8944 225.096 32.7833Z" fill="white"/>
<path d="M230.757 43.198C230.095 43.1956 229.573 42.6773 229.576 42.0279C229.58 41.3854 230.112 40.8802 230.783 40.8826C231.445 40.885 231.967 41.4023 231.964 42.0526C231.96 42.6947 231.428 43.2004 230.757 43.198ZM231.367 42.0357C231.365 41.7282 231.081 41.457 230.765 41.4618C230.445 41.4666 230.17 41.7364 230.173 42.0449C230.176 42.3538 230.457 42.6217 230.774 42.6183C231.094 42.6149 231.369 42.3446 231.367 42.0357Z" fill="white"/>
<path d="M230.769 33.366C230.769 33.6416 230.77 33.906 230.769 34.1705C230.767 34.3856 230.658 34.5084 230.472 34.5089C230.285 34.5094 230.175 34.3861 230.174 34.1719C230.172 33.9075 230.173 33.6425 230.173 33.351C230.068 33.351 229.972 33.3544 229.875 33.35C229.697 33.3423 229.58 33.2296 229.576 33.0691C229.572 32.8994 229.692 32.7814 229.88 32.7742C229.972 32.7708 230.063 32.7737 230.173 32.7737C230.173 32.6625 230.172 32.5677 230.173 32.473C230.179 31.9919 230.565 31.6201 231.063 31.6153C231.256 31.6133 231.449 31.6124 231.641 31.6158C231.843 31.6191 231.967 31.7357 231.962 31.9121C231.958 32.0794 231.837 32.1882 231.643 32.1926C231.488 32.1959 231.333 32.1926 231.177 32.1935C230.869 32.195 230.768 32.2946 230.768 32.5982C230.768 32.6509 230.768 32.7036 230.768 32.7665C231.015 32.7969 231.337 32.6872 231.362 33.0681C231.376 33.2688 231.276 33.3142 230.769 33.366Z" fill="white"/>
<path d="M227.862 38.8534C227.602 38.8553 227.473 38.7596 227.453 38.5981C227.433 38.44 227.539 38.3133 227.729 38.2752C228.202 38.1804 228.674 38.0851 229.147 37.9942C229.376 37.9503 229.536 38.0339 229.573 38.206C229.614 38.3989 229.514 38.5304 229.273 38.5793C228.783 38.6784 228.291 38.7702 227.862 38.8534Z" fill="white"/>
<path d="M226.85 37.7192C226.779 37.6598 226.674 37.6032 226.618 37.5172C226.546 37.4055 226.58 37.273 226.688 37.1927C227.094 36.8881 227.506 36.5884 227.922 36.2949C228.052 36.2026 228.227 36.2422 228.32 36.3607C228.415 36.4801 228.411 36.6541 228.282 36.7508C227.871 37.0598 227.451 37.3586 227.033 37.6583C226.995 37.6849 226.941 37.6898 226.85 37.7192Z" fill="white"/>
<path d="M226.036 36.5375C225.761 36.5327 225.605 36.2924 225.734 36.1125C226.036 35.6943 226.356 35.2882 226.679 34.8854C226.777 34.7646 226.965 34.7709 227.082 34.868C227.204 34.9691 227.227 35.132 227.12 35.2727C226.857 35.6218 226.586 35.9665 226.319 36.3127C226.285 36.3557 226.258 36.4079 226.215 36.4389C226.149 36.4863 226.07 36.5186 226.036 36.5375Z" fill="white"/>
<path d="M217.638 35.3802C217.831 35.3802 218.024 35.3768 218.216 35.3811C218.407 35.385 218.527 35.501 218.526 35.6707C218.525 35.839 218.403 35.9555 218.213 35.957C217.827 35.9603 217.441 35.9603 217.055 35.957C216.862 35.9555 216.74 35.8438 216.737 35.6761C216.733 35.4991 216.856 35.384 217.059 35.3806C217.252 35.3777 217.445 35.3802 217.638 35.3802Z" fill="white"/>
<path d="M217.643 36.5386C217.836 36.5386 218.029 36.5347 218.222 36.5395C218.409 36.5439 218.53 36.6648 218.526 36.8345C218.522 36.9955 218.404 37.113 218.226 37.1149C217.828 37.1192 217.429 37.1197 217.031 37.1144C216.854 37.112 216.737 36.9911 216.736 36.8291C216.735 36.6667 216.851 36.5453 217.027 36.5405C217.233 36.5342 217.438 36.5386 217.643 36.5386Z" fill="white"/>
<path d="M217.933 34.2223C218.039 34.2223 218.145 34.2165 218.25 34.2232C218.414 34.2339 218.525 34.3538 218.525 34.509C218.526 34.6637 218.415 34.7899 218.252 34.7962C218.035 34.8044 217.816 34.8054 217.599 34.7957C217.438 34.7884 217.326 34.6569 217.334 34.5022C217.341 34.3407 217.434 34.2431 217.597 34.2247C217.708 34.2126 217.821 34.2228 217.933 34.2223Z" fill="white"/>
<path d="M222.111 32.7668C222.111 32.4893 222.108 32.2118 222.112 31.9347C222.116 31.6688 222.323 31.5402 222.571 31.6577C223.151 31.9323 223.73 32.2089 224.3 32.5023C224.391 32.5492 224.48 32.6832 224.483 32.7799C224.486 32.8669 224.392 32.9969 224.305 33.0414C223.728 33.3359 223.144 33.6163 222.558 33.8923C222.32 34.005 222.116 33.8749 222.112 33.6177C222.108 33.3339 222.111 33.0506 222.111 32.7668ZM222.716 32.381C222.716 32.6532 222.716 32.8964 222.716 33.1652C222.988 33.0322 223.24 32.9089 223.521 32.7716C223.234 32.6324 222.987 32.512 222.716 32.381Z" fill="white"/>
</g>
<path d="M29.228 35.27C30.264 35.27 31.1693 35.4707 31.944 35.872C32.728 36.264 33.33 36.8333 33.75 37.58C34.1793 38.3173 34.394 39.1807 34.394 40.17C34.394 41.1593 34.1793 42.018 33.75 42.746C33.33 43.474 32.728 44.034 31.944 44.426C31.1693 44.8087 30.264 45 29.228 45H26.05V35.27H29.228ZM29.228 43.698C30.3667 43.698 31.2393 43.39 31.846 42.774C32.4527 42.158 32.756 41.29 32.756 40.17C32.756 39.0407 32.4527 38.1587 31.846 37.524C31.2393 36.8893 30.3667 36.572 29.228 36.572H27.646V43.698H29.228ZM36.7878 36.264C36.4984 36.264 36.2558 36.166 36.0598 35.97C35.8638 35.774 35.7658 35.5313 35.7658 35.242C35.7658 34.9527 35.8638 34.71 36.0598 34.514C36.2558 34.318 36.4984 34.22 36.7878 34.22C37.0678 34.22 37.3058 34.318 37.5018 34.514C37.6978 34.71 37.7958 34.9527 37.7958 35.242C37.7958 35.5313 37.6978 35.774 37.5018 35.97C37.3058 36.166 37.0678 36.264 36.7878 36.264ZM37.5718 37.286V45H35.9758V37.286H37.5718ZM42.7752 37.16C43.3725 37.16 43.8999 37.2813 44.3572 37.524C44.8239 37.7573 45.1879 38.0513 45.4492 38.406V37.286H47.0592V45.126C47.0592 45.8353 46.9099 46.4653 46.6112 47.016C46.3125 47.576 45.8785 48.0147 45.3092 48.332C44.7492 48.6493 44.0772 48.808 43.2932 48.808C42.2479 48.808 41.3799 48.5607 40.6892 48.066C39.9985 47.5807 39.6065 46.918 39.5132 46.078H41.0952C41.2165 46.4793 41.4732 46.8013 41.8652 47.044C42.2665 47.296 42.7425 47.422 43.2932 47.422C43.9372 47.422 44.4552 47.226 44.8472 46.834C45.2485 46.442 45.4492 45.8727 45.4492 45.126V43.838C45.1785 44.202 44.8099 44.51 44.3432 44.762C43.8859 45.0047 43.3632 45.126 42.7752 45.126C42.1032 45.126 41.4872 44.958 40.9272 44.622C40.3765 44.2767 39.9379 43.8007 39.6112 43.194C39.2939 42.578 39.1352 41.8827 39.1352 41.108C39.1352 40.3333 39.2939 39.6473 39.6112 39.05C39.9379 38.4527 40.3765 37.9907 40.9272 37.664C41.4872 37.328 42.1032 37.16 42.7752 37.16ZM45.4492 41.136C45.4492 40.604 45.3372 40.142 45.1132 39.75C44.8985 39.358 44.6139 39.0593 44.2592 38.854C43.9045 38.6487 43.5219 38.546 43.1112 38.546C42.7005 38.546 42.3179 38.6487 41.9632 38.854C41.6085 39.05 41.3192 39.344 41.0952 39.736C40.8805 40.1187 40.7732 40.576 40.7732 41.108C40.7732 41.64 40.8805 42.1067 41.0952 42.508C41.3192 42.9093 41.6085 43.2173 41.9632 43.432C42.3272 43.6373 42.7099 43.74 43.1112 43.74C43.5219 43.74 43.9045 43.6373 44.2592 43.432C44.6139 43.2267 44.8985 42.928 45.1132 42.536C45.3372 42.1347 45.4492 41.668 45.4492 41.136ZM49.9675 36.264C49.6781 36.264 49.4355 36.166 49.2395 35.97C49.0435 35.774 48.9455 35.5313 48.9455 35.242C48.9455 34.9527 49.0435 34.71 49.2395 34.514C49.4355 34.318 49.6781 34.22 49.9675 34.22C50.2475 34.22 50.4855 34.318 50.6815 34.514C50.8775 34.71 50.9755 34.9527 50.9755 35.242C50.9755 35.5313 50.8775 35.774 50.6815 35.97C50.4855 36.166 50.2475 36.264 49.9675 36.264ZM50.7515 37.286V45H49.1555V37.286H50.7515ZM54.7089 38.588V42.858C54.7089 43.1473 54.7742 43.3573 54.9049 43.488C55.0449 43.6093 55.2782 43.67 55.6049 43.67H56.5849V45H55.3249C54.6062 45 54.0555 44.832 53.6729 44.496C53.2902 44.16 53.0989 43.614 53.0989 42.858V38.588H52.1889V37.286H53.0989V35.368H54.7089V37.286H56.5849V38.588H54.7089ZM57.5239 41.108C57.5239 40.3333 57.6825 39.6473 57.9999 39.05C58.3265 38.4527 58.7652 37.9907 59.3159 37.664C59.8759 37.328 60.4919 37.16 61.1639 37.16C61.7705 37.16 62.2979 37.2813 62.7459 37.524C63.2032 37.7573 63.5672 38.0513 63.8379 38.406V37.286H65.4479V45H63.8379V43.852C63.5672 44.216 63.1985 44.5193 62.7319 44.762C62.2652 45.0047 61.7332 45.126 61.1359 45.126C60.4732 45.126 59.8665 44.958 59.3159 44.622C58.7652 44.2767 58.3265 43.8007 57.9999 43.194C57.6825 42.578 57.5239 41.8827 57.5239 41.108ZM63.8379 41.136C63.8379 40.604 63.7259 40.142 63.5019 39.75C63.2872 39.358 63.0025 39.0593 62.6479 38.854C62.2932 38.6487 61.9105 38.546 61.4999 38.546C61.0892 38.546 60.7065 38.6487 60.3519 38.854C59.9972 39.05 59.7079 39.344 59.4839 39.736C59.2692 40.1187 59.1619 40.576 59.1619 41.108C59.1619 41.64 59.2692 42.1067 59.4839 42.508C59.7079 42.9093 59.9972 43.2173 60.3519 43.432C60.7159 43.6373 61.0985 43.74 61.4999 43.74C61.9105 43.74 62.2932 43.6373 62.6479 43.432C63.0025 43.2267 63.2872 42.928 63.5019 42.536C63.7259 42.1347 63.8379 41.668 63.8379 41.136ZM69.1401 34.64V45H67.5441V34.64H69.1401ZM81.1583 35.27V36.572H78.5683V45H76.9723V36.572H74.3683V35.27H81.1583ZM84.3706 38.406C84.6039 38.014 84.9119 37.7107 85.2946 37.496C85.6866 37.272 86.1486 37.16 86.6806 37.16V38.812H86.2746C85.6493 38.812 85.1733 38.9707 84.8466 39.288C84.5293 39.6053 84.3706 40.156 84.3706 40.94V45H82.7746V37.286H84.3706V38.406ZM87.6157 41.108C87.6157 40.3333 87.7743 39.6473 88.0917 39.05C88.4183 38.4527 88.857 37.9907 89.4077 37.664C89.9677 37.328 90.5837 37.16 91.2557 37.16C91.8623 37.16 92.3897 37.2813 92.8377 37.524C93.295 37.7573 93.659 38.0513 93.9297 38.406V37.286H95.5397V45H93.9297V43.852C93.659 44.216 93.2903 44.5193 92.8237 44.762C92.357 45.0047 91.825 45.126 91.2277 45.126C90.565 45.126 89.9583 44.958 89.4077 44.622C88.857 44.2767 88.4183 43.8007 88.0917 43.194C87.7743 42.578 87.6157 41.8827 87.6157 41.108ZM93.9297 41.136C93.9297 40.604 93.8177 40.142 93.5937 39.75C93.379 39.358 93.0943 39.0593 92.7397 38.854C92.385 38.6487 92.0023 38.546 91.5917 38.546C91.181 38.546 90.7983 38.6487 90.4437 38.854C90.089 39.05 89.7997 39.344 89.5757 39.736C89.361 40.1187 89.2537 40.576 89.2537 41.108C89.2537 41.64 89.361 42.1067 89.5757 42.508C89.7997 42.9093 90.089 43.2173 90.4437 43.432C90.8077 43.6373 91.1903 43.74 91.5917 43.74C92.0023 43.74 92.385 43.6373 92.7397 43.432C93.0943 43.2267 93.379 42.928 93.5937 42.536C93.8177 42.1347 93.9297 41.668 93.9297 41.136ZM101.528 37.16C102.135 37.16 102.676 37.286 103.152 37.538C103.637 37.79 104.015 38.1633 104.286 38.658C104.557 39.1527 104.692 39.75 104.692 40.45V45H103.11V40.688C103.11 39.9973 102.937 39.47 102.592 39.106C102.247 38.7327 101.775 38.546 101.178 38.546C100.581 38.546 100.105 38.7327 99.7499 39.106C99.4046 39.47 99.2319 39.9973 99.2319 40.688V45H97.6359V37.286H99.2319V38.168C99.4933 37.8507 99.8246 37.6033 100.226 37.426C100.637 37.2487 101.071 37.16 101.528 37.16ZM109.528 45.126C108.921 45.126 108.375 45.0187 107.89 44.804C107.414 44.58 107.036 44.2813 106.756 43.908C106.476 43.5253 106.326 43.1007 106.308 42.634H107.96C107.988 42.9607 108.142 43.236 108.422 43.46C108.711 43.6747 109.07 43.782 109.5 43.782C109.948 43.782 110.293 43.698 110.536 43.53C110.788 43.3527 110.914 43.1287 110.914 42.858C110.914 42.5687 110.774 42.354 110.494 42.214C110.223 42.074 109.789 41.92 109.192 41.752C108.613 41.5933 108.142 41.4393 107.778 41.29C107.414 41.1407 107.096 40.912 106.826 40.604C106.564 40.296 106.434 39.89 106.434 39.386C106.434 38.9753 106.555 38.602 106.798 38.266C107.04 37.9207 107.386 37.65 107.834 37.454C108.291 37.258 108.814 37.16 109.402 37.16C110.279 37.16 110.984 37.384 111.516 37.832C112.057 38.2707 112.346 38.8727 112.384 39.638H110.788C110.76 39.2927 110.62 39.0173 110.368 38.812C110.116 38.6067 109.775 38.504 109.346 38.504C108.926 38.504 108.604 38.5833 108.38 38.742C108.156 38.9007 108.044 39.1107 108.044 39.372C108.044 39.5773 108.118 39.75 108.268 39.89C108.417 40.03 108.599 40.142 108.814 40.226C109.028 40.3007 109.346 40.3987 109.766 40.52C110.326 40.6693 110.783 40.8233 111.138 40.982C111.502 41.1313 111.814 41.3553 112.076 41.654C112.337 41.9527 112.472 42.3493 112.482 42.844C112.482 43.2827 112.36 43.6747 112.118 44.02C111.875 44.3653 111.53 44.636 111.082 44.832C110.643 45.028 110.125 45.126 109.528 45.126ZM117.44 38.588H116.012V45H114.402V38.588H113.492V37.286H114.402V36.74C114.402 35.8533 114.636 35.2093 115.102 34.808C115.578 34.3973 116.32 34.192 117.328 34.192V35.522C116.843 35.522 116.502 35.6153 116.306 35.802C116.11 35.9793 116.012 36.292 116.012 36.74V37.286H117.44V38.588ZM122.201 45.126C121.473 45.126 120.815 44.9627 120.227 44.636C119.639 44.3 119.177 43.8333 118.841 43.236C118.505 42.6293 118.337 41.9293 118.337 41.136C118.337 40.352 118.509 39.6567 118.855 39.05C119.2 38.4433 119.671 37.9767 120.269 37.65C120.866 37.3233 121.533 37.16 122.271 37.16C123.008 37.16 123.675 37.3233 124.273 37.65C124.87 37.9767 125.341 38.4433 125.687 39.05C126.032 39.6567 126.205 40.352 126.205 41.136C126.205 41.92 126.027 42.6153 125.673 43.222C125.318 43.8287 124.833 44.3 124.217 44.636C123.61 44.9627 122.938 45.126 122.201 45.126ZM122.201 43.74C122.611 43.74 122.994 43.642 123.349 43.446C123.713 43.25 124.007 42.956 124.231 42.564C124.455 42.172 124.567 41.696 124.567 41.136C124.567 40.576 124.459 40.1047 124.245 39.722C124.03 39.33 123.745 39.036 123.391 38.84C123.036 38.644 122.653 38.546 122.243 38.546C121.832 38.546 121.449 38.644 121.095 38.84C120.749 39.036 120.474 39.33 120.269 39.722C120.063 40.1047 119.961 40.576 119.961 41.136C119.961 41.9667 120.171 42.6107 120.591 43.068C121.02 43.516 121.557 43.74 122.201 43.74ZM129.378 38.406C129.612 38.014 129.92 37.7107 130.302 37.496C130.694 37.272 131.156 37.16 131.688 37.16V38.812H131.282C130.657 38.812 130.181 38.9707 129.854 39.288C129.537 39.6053 129.378 40.156 129.378 40.94V45H127.782V37.286H129.378V38.406ZM142.493 37.16C143.1 37.16 143.641 37.286 144.117 37.538C144.603 37.79 144.981 38.1633 145.251 38.658C145.531 39.1527 145.671 39.75 145.671 40.45V45H144.089V40.688C144.089 39.9973 143.917 39.47 143.571 39.106C143.226 38.7327 142.755 38.546 142.157 38.546C141.56 38.546 141.084 38.7327 140.729 39.106C140.384 39.47 140.211 39.9973 140.211 40.688V45H138.629V40.688C138.629 39.9973 138.457 39.47 138.111 39.106C137.766 38.7327 137.295 38.546 136.697 38.546C136.1 38.546 135.624 38.7327 135.269 39.106C134.924 39.47 134.751 39.9973 134.751 40.688V45H133.155V37.286H134.751V38.168C135.013 37.8507 135.344 37.6033 135.745 37.426C136.147 37.2487 136.576 37.16 137.033 37.16C137.649 37.16 138.2 37.2907 138.685 37.552C139.171 37.8133 139.544 38.1913 139.805 38.686C140.039 38.2193 140.403 37.8507 140.897 37.58C141.392 37.3 141.924 37.16 142.493 37.16ZM147.17 41.108C147.17 40.3333 147.329 39.6473 147.646 39.05C147.973 38.4527 148.412 37.9907 148.962 37.664C149.522 37.328 150.138 37.16 150.81 37.16C151.417 37.16 151.944 37.2813 152.392 37.524C152.85 37.7573 153.214 38.0513 153.484 38.406V37.286H155.094V45H153.484V43.852C153.214 44.216 152.845 44.5193 152.378 44.762C151.912 45.0047 151.38 45.126 150.782 45.126C150.12 45.126 149.513 44.958 148.962 44.622C148.412 44.2767 147.973 43.8007 147.646 43.194C147.329 42.578 147.17 41.8827 147.17 41.108ZM153.484 41.136C153.484 40.604 153.372 40.142 153.148 39.75C152.934 39.358 152.649 39.0593 152.294 38.854C151.94 38.6487 151.557 38.546 151.146 38.546C150.736 38.546 150.353 38.6487 149.998 38.854C149.644 39.05 149.354 39.344 149.13 39.736C148.916 40.1187 148.808 40.576 148.808 41.108C148.808 41.64 148.916 42.1067 149.13 42.508C149.354 42.9093 149.644 43.2173 149.998 43.432C150.362 43.6373 150.745 43.74 151.146 43.74C151.557 43.74 151.94 43.6373 152.294 43.432C152.649 43.2267 152.934 42.928 153.148 42.536C153.372 42.1347 153.484 41.668 153.484 41.136ZM159.053 38.588V42.858C159.053 43.1473 159.118 43.3573 159.249 43.488C159.389 43.6093 159.622 43.67 159.949 43.67H160.929V45H159.669C158.95 45 158.399 44.832 158.017 44.496C157.634 44.16 157.443 43.614 157.443 42.858V38.588H156.533V37.286H157.443V35.368H159.053V37.286H160.929V38.588H159.053ZM163.212 36.264C162.922 36.264 162.68 36.166 162.484 35.97C162.288 35.774 162.19 35.5313 162.19 35.242C162.19 34.9527 162.288 34.71 162.484 34.514C162.68 34.318 162.922 34.22 163.212 34.22C163.492 34.22 163.73 34.318 163.926 34.514C164.122 34.71 164.22 34.9527 164.22 35.242C164.22 35.5313 164.122 35.774 163.926 35.97C163.73 36.166 163.492 36.264 163.212 36.264ZM163.996 37.286V45H162.4V37.286H163.996ZM169.437 45.126C168.709 45.126 168.051 44.9627 167.463 44.636C166.875 44.3 166.413 43.8333 166.077 43.236C165.741 42.6293 165.573 41.9293 165.573 41.136C165.573 40.352 165.746 39.6567 166.091 39.05C166.436 38.4433 166.908 37.9767 167.505 37.65C168.102 37.3233 168.77 37.16 169.507 37.16C170.244 37.16 170.912 37.3233 171.509 37.65C172.106 37.9767 172.578 38.4433 172.923 39.05C173.268 39.6567 173.441 40.352 173.441 41.136C173.441 41.92 173.264 42.6153 172.909 43.222C172.554 43.8287 172.069 44.3 171.453 44.636C170.846 44.9627 170.174 45.126 169.437 45.126ZM169.437 43.74C169.848 43.74 170.23 43.642 170.585 43.446C170.949 43.25 171.243 42.956 171.467 42.564C171.691 42.172 171.803 41.696 171.803 41.136C171.803 40.576 171.696 40.1047 171.481 39.722C171.266 39.33 170.982 39.036 170.627 38.84C170.272 38.644 169.89 38.546 169.479 38.546C169.068 38.546 168.686 38.644 168.331 38.84C167.986 39.036 167.71 39.33 167.505 39.722C167.3 40.1047 167.197 40.576 167.197 41.136C167.197 41.9667 167.407 42.6107 167.827 43.068C168.256 43.516 168.793 43.74 169.437 43.74ZM178.911 37.16C179.517 37.16 180.059 37.286 180.535 37.538C181.02 37.79 181.398 38.1633 181.669 38.658C181.939 39.1527 182.075 39.75 182.075 40.45V45H180.493V40.688C180.493 39.9973 180.32 39.47 179.975 39.106C179.629 38.7327 179.158 38.546 178.561 38.546C177.963 38.546 177.487 38.7327 177.133 39.106C176.787 39.47 176.615 39.9973 176.615 40.688V45H175.019V37.286H176.615V38.168C176.876 37.8507 177.207 37.6033 177.609 37.426C178.019 37.2487 178.453 37.16 178.911 37.16Z" fill="#191A15"/>
<defs>
<filter id="filter0_d_30_120" x="0.62431" y="0.902394" width="263.886" height="81.9521" filterUnits="userSpaceOnUse" color-interpolation-filters="sRGB">
<feFlood flood-opacity="0" result="BackgroundImageFix"/>
<feColorMatrix in="SourceAlpha" type="matrix" values="0 0 0 0 0 0 0 0 0 0 0 0 0 0 0 0 0 0 127 0" result="hardAlpha"/>
<feOffset dy="3.27808"/>
<feGaussianBlur stdDeviation="3.68785"/>
<feComposite in2="hardAlpha" operator="out"/>
<feColorMatrix type="matrix" values="0 0 0 0 0 0 0 0 0 0 0 0 0 0 0 0 0 0 0.05 0"/>
<feBlend mode="normal" in2="BackgroundImageFix" result="effect1_dropShadow_30_120"/>
<feBlend mode="normal" in="SourceGraphic" in2="effect1_dropShadow_30_120" result="shape"/>
</filter>
<clipPath id="clip0_30_120">
<rect width="19" height="18" fill="white" transform="translate(215 30)"/>
</clipPath>
</defs>
</svg>
