<svg id="Layer_1" data-name="Layer 1" xmlns="http://www.w3.org/2000/svg" viewBox="0 0 512 512"><defs><style>.cls-1,.cls-2{fill:#fff;}.cls-1{isolation:isolate;}</style></defs><path class="cls-1" d="M82.35,352.92a31.21,31.21,0,0,0,40.1-3.35L195,277.08c6.94-6.94,9.76-14.65,9.51-22.11.25-7.45-2.32-15.17-9.51-22.11h0l-72.24-72.23a30.94,30.94,0,0,0-40.1-3.34L65.38,140.06c8.49-11.31,10-27-2.82-39.59-28.28-29-73.27,15.94-44.22,44.22,12.6,12.85,28.53,11.31,39.59,2.83l17,17.22a30.9,30.9,0,0,0,3.35,40.1l50.38,50.39L78.49,305.36a31,31,0,0,0-3.34,40.1l-17,17c-11.32-8.49-27-10-39.59,2.82-29,28.28,15.93,73.27,44.21,44.22,12.86-12.6,11.31-28.53,2.83-39.59Z"/><path class="cls-1" d="M493.66,365.51c-12.6-12.85-28.53-11.31-39.59-2.83l-17-17a31.25,31.25,0,0,0-3.35-40.11l-50.38-50.38,50.38-50.39a31,31,0,0,0,3.35-40.1l17-17.22c11.31,8.48,27,10,39.59-2.83,29.05-28.28-15.94-73.27-44.22-44.22-12.85,12.6-11.31,28.54-2.82,39.59l-17,17.23a30.89,30.89,0,0,0-40.1,3.34l-72.5,72.49h0c-6.94,6.94-9.76,14.65-9.51,22.11-.25,7.45,2.32,15.17,9.51,22.11l72.5,72.49a31,31,0,0,0,40.1,3.34l17,17c-8.49,11.31-10,27,2.82,39.59C477.72,438.78,522.71,393.79,493.66,365.51Z"/><path class="cls-1" d="M142.76,72.71l17.22,17a30.9,30.9,0,0,0,3.35,40.1l72.49,72.49h0c6.94,6.94,14.65,9.77,22.11,9.51,7.45.26,15.17-2.31,22.11-9.51l72.49-72.49a31,31,0,0,0,3.34-40.1l17-17c11.31,8.48,27,10,39.59-2.83,29.05-28.28-15.94-73.26-44.22-44.21-12.85,12.59-11.31,28.53-2.83,39.58l-17,17a30.93,30.93,0,0,0-40.11,3.34l-50.64,50.65L207.29,85.82a31,31,0,0,0-40.11-3.34L150,65.51c8.48-11.31,10-27-2.83-39.59-28.28-29-73.26,15.94-44.21,44.22C115.51,83,131.45,81.19,142.76,72.71Z"/><path class="cls-1" d="M372.58,439.55l-17-17a31.21,31.21,0,0,0-3.34-40.1l-72.49-72.75c-6.94-6.94-14.65-9.77-22.11-9.51-7.45-.26-15.17,2.31-22.11,9.51h0l-72.49,72.49a31,31,0,0,0-3.34,40.1l-17.23,17c-11.31-8.48-27-10-39.58,2.83-29,28.28,15.93,73.26,44.21,44.21C160,473.74,158.44,457.8,150,446.75l17.22-17a31.24,31.24,0,0,0,40.11-3.34l50.38-50.39,50.39,50.39a31,31,0,0,0,40.1,3.34l17,17c-8.49,11.31-10,27,2.82,39.58,28.28,29.05,73.27-15.93,44.22-44.21C399.57,429.26,383.89,431.06,372.58,439.55Z"/><path class="cls-2" d="M255.87,222.32a32.91,32.91,0,1,0,32.91,32.91A32.81,32.81,0,0,0,255.87,222.32Z"/></svg>