<svg id="Layer_1" data-name="Layer 1" xmlns="http://www.w3.org/2000/svg" viewBox="0 0 831.8 190.3"><defs><style>.cls-1{isolation:isolate;}</style></defs><path d="M311.4,143.6a5.42,5.42,0,0,1,1.7,4.2,5.72,5.72,0,0,1-1.7,4.4,6.8,6.8,0,0,1-4.7,1.5h-75a6.85,6.85,0,0,1-4.8-1.7,5.45,5.45,0,0,1-1.8-4.2,8.79,8.79,0,0,1,1.9-5.2L294.1,47H231.7a6.8,6.8,0,0,1-4.7-1.5,5.42,5.42,0,0,1-1.7-4.2,5.72,5.72,0,0,1,1.7-4.4,6.8,6.8,0,0,1,4.7-1.5h73.1a6.85,6.85,0,0,1,4.8,1.7,5.45,5.45,0,0,1,1.8,4.2,8.48,8.48,0,0,1-1.9,5l-67.3,95.8h64.4A6.9,6.9,0,0,1,311.4,143.6Z"/><path d="M306.7,156.8h-75a9.88,9.88,0,0,1-6.9-2.5,8.54,8.54,0,0,1-2.7-6.4,12.56,12.56,0,0,1,2.4-7l63.7-90.8H231.8a10,10,0,0,1-6.8-2.3,8.43,8.43,0,0,1-2.7-6.5,8.76,8.76,0,0,1,2.7-6.7,10,10,0,0,1,6.8-2.3h73.1a9.61,9.61,0,0,1,6.9,2.5,8.54,8.54,0,0,1,2.7,6.4,12,12,0,0,1-2.4,6.8l-63.8,91h58.4a10,10,0,0,1,6.8,2.3h0a8.43,8.43,0,0,1,2.7,6.5,8.76,8.76,0,0,1-2.7,6.7A10,10,0,0,1,306.7,156.8Zm-75-118.3a3.68,3.68,0,0,0-2.6.7c-.2.2-.6.6-.6,2.1a2.71,2.71,0,0,0,.6,1.9,3.68,3.68,0,0,0,2.6.7h68.4L229.6,144.4a5.83,5.83,0,0,0-1.3,3.4,2.24,2.24,0,0,0,.8,1.9,3.5,3.5,0,0,0,2.6.8h75a3.68,3.68,0,0,0,2.6-.7c.2-.1.6-.6.6-2.1a2.94,2.94,0,0,0-.6-1.9,3.68,3.68,0,0,0-2.6-.7H236.3L307,44.6a6.35,6.35,0,0,0,1.3-3.2,2.57,2.57,0,0,0-.8-2,3.5,3.5,0,0,0-2.6-.8H231.7Z"/><path d="M340.9,50.4a8,8,0,0,1-2.5-6.2,7.57,7.57,0,0,1,2.5-6,9.09,9.09,0,0,1,6.5-2.3,9.38,9.38,0,0,1,6.5,2.3,7.85,7.85,0,0,1,2.5,6,8,8,0,0,1-2.5,6.2,9.09,9.09,0,0,1-6.5,2.3A9.55,9.55,0,0,1,340.9,50.4Zm1.6,102.4a6.26,6.26,0,0,1-1.9-4.9V77a6.12,6.12,0,0,1,1.9-4.9,7,7,0,0,1,5-1.8,6.73,6.73,0,0,1,4.9,1.8,6.63,6.63,0,0,1,1.9,4.9v70.8a6.21,6.21,0,0,1-1.9,5,8.06,8.06,0,0,1-9.9,0Z"/><path d="M347.5,157.6a9.93,9.93,0,0,1-7-2.6h0a9.52,9.52,0,0,1-2.9-7.2V77a9.34,9.34,0,0,1,2.9-7.2,10.1,10.1,0,0,1,7-2.6,9.93,9.93,0,0,1,7,2.6,9.42,9.42,0,0,1,2.8,7.2v70.8a9.41,9.41,0,0,1-2.9,7.3A9.61,9.61,0,0,1,347.5,157.6Zm0-84.2a4.26,4.26,0,0,0-2.9.9,3.3,3.3,0,0,0-.9,2.7v70.8c0,1.6.5,2.3.9,2.6h0a4.05,4.05,0,0,0,2.9.9,4.1,4.1,0,0,0,2.8-.9,3.78,3.78,0,0,0,.8-2.7V77a3.28,3.28,0,0,0-.9-2.7A3.9,3.9,0,0,0,347.5,73.4Zm0-17.6a12.44,12.44,0,0,1-8.7-3.2h0a11.23,11.23,0,0,1-3.5-8.5,10.94,10.94,0,0,1,3.5-8.3,13.43,13.43,0,0,1,17.4,0,10.94,10.94,0,0,1,3.5,8.3,11.23,11.23,0,0,1-3.5,8.5A12,12,0,0,1,347.5,55.8Zm0-16.9a6.18,6.18,0,0,0-4.4,1.5,5,5,0,0,0-1.5,3.8,5,5,0,0,0,1.5,3.9h0a7.2,7.2,0,0,0,8.8,0,5.12,5.12,0,0,0,1.5-3.9,5,5,0,0,0-1.5-3.8A6.18,6.18,0,0,0,347.5,38.9Z"/><path d="M460,102.4v45.5a6.42,6.42,0,0,1-1.8,4.9,6.66,6.66,0,0,1-5,1.8,6.81,6.81,0,0,1-5-1.8,6.63,6.63,0,0,1-1.9-4.9V103.3c0-7.6-1.5-13.1-4.5-16.6s-7.7-5.2-14.2-5.2q-11.25,0-18,6.9c-4.5,4.6-6.7,10.8-6.7,18.6v40.9a6.42,6.42,0,0,1-1.8,4.9,6.66,6.66,0,0,1-5,1.8,6.81,6.81,0,0,1-5-1.8,6.63,6.63,0,0,1-1.9-4.9V77a6.55,6.55,0,0,1,1.9-4.9,6.81,6.81,0,0,1,5-1.8,6.49,6.49,0,0,1,4.8,1.8,6.41,6.41,0,0,1,1.8,4.7v8.6a27.61,27.61,0,0,1,11.2-11.5A34,34,0,0,1,430.3,70C450.2,70,460,80.8,460,102.4Z"/><path d="M453.3,157.6a10.25,10.25,0,0,1-7.2-2.6,9.42,9.42,0,0,1-2.8-7.2V103.2c0-6.8-1.2-11.7-3.7-14.6-2.3-2.7-6.3-4.1-11.8-4.1-6.7,0-11.8,1.9-15.7,5.9s-5.8,9.4-5.8,16.4v40.9a9.34,9.34,0,0,1-2.7,7.1,9.65,9.65,0,0,1-7.1,2.7,10.25,10.25,0,0,1-7.2-2.6,9.42,9.42,0,0,1-2.8-7.2V77a9.49,9.49,0,0,1,2.8-7.1,10,10,0,0,1,7.2-2.8,9.49,9.49,0,0,1,7,2.8,9.17,9.17,0,0,1,2.6,6.1,29.61,29.61,0,0,1,6.7-4.9,36.46,36.46,0,0,1,17.9-4.3c21.2,0,32.5,12.3,32.5,35.5v45.5a9.34,9.34,0,0,1-2.7,7.1A9.73,9.73,0,0,1,453.3,157.6ZM427.8,78.3c7.4,0,13,2.1,16.5,6.3s5.2,10.2,5.2,18.6v44.6a3.28,3.28,0,0,0,.9,2.7,4,4,0,0,0,2.9.9c1.9,0,2.5-.6,2.8-.9s.9-.9.9-2.8V102.2c0-9.9-2.2-17.4-6.5-22.2s-10.9-7.1-19.7-7.1a30.81,30.81,0,0,0-15,3.6,24,24,0,0,0-10,10.2L400,97.6v-21a3.55,3.55,0,0,0-.9-2.6,3.1,3.1,0,0,0-2.5-.9,3.6,3.6,0,0,0-2.8.9,3.47,3.47,0,0,0-.9,2.7v70.8a3.28,3.28,0,0,0,.9,2.7,4,4,0,0,0,2.9.9c1.9,0,2.5-.6,2.8-.9s.9-.9.9-2.8V106.5c0-8.6,2.5-15.6,7.6-20.8C412.7,80.9,419.5,78.3,427.8,78.3Z"/><path d="M538.5,149.2a4.92,4.92,0,0,1-2.1,4.3c-1.4.9-3.5,1.3-6.3,1.1l-4.5-.3c-9-.7-15.5-3.4-19.8-8.1s-6.4-11.8-6.4-21.3V82.7H488.2a6.91,6.91,0,0,1-4.5-1.4,4.64,4.64,0,0,1-1.6-3.8,5.06,5.06,0,0,1,1.6-4,6.27,6.27,0,0,1,4.5-1.5h11.2V53.1a6.48,6.48,0,0,1,1.9-5,6.81,6.81,0,0,1,5-1.8,6.89,6.89,0,0,1,4.9,1.8,6.7,6.7,0,0,1,1.9,5v19h18.6a6.09,6.09,0,0,1,4.3,1.5,5.06,5.06,0,0,1,1.6,4,4.78,4.78,0,0,1-1.6,3.8,6,6,0,0,1-4.3,1.4H513v42.8c0,6.1,1.3,10.6,3.8,13.3s6.3,4.3,11.3,4.6l4.5.3C536.6,144.1,538.5,145.9,538.5,149.2Z"/><path d="M531.7,157.7a10.87,10.87,0,0,1-1.8-.1l-4.5-.3c-9.7-.7-17.1-3.8-21.9-9.1s-7.2-13.1-7.2-23.4v-39h-8.1a9.63,9.63,0,0,1-6.5-2.2,7.85,7.85,0,0,1-2.6-6.1,8.44,8.44,0,0,1,2.6-6.3,9.08,9.08,0,0,1,6.6-2.4h8.1V53.1a9.42,9.42,0,0,1,2.8-7.2,10.08,10.08,0,0,1,7.2-2.6,9.93,9.93,0,0,1,7,2.6,9.42,9.42,0,0,1,2.8,7.2V69h15.5a8.76,8.76,0,0,1,6.4,2.4,8.44,8.44,0,0,1,2.6,6.3,8,8,0,0,1-2.6,6.1,9.14,9.14,0,0,1-6.3,2.2H516.3v39.7c0,5.3,1,9.1,3,11.2s5.1,3.3,9.2,3.6l4.5.3c7.9.7,8.8,6.1,8.8,8.5a7.66,7.66,0,0,1-3.5,6.8A12.19,12.19,0,0,1,531.7,157.7ZM488.2,75.1a2.88,2.88,0,0,0-2.3.7,2.19,2.19,0,0,0-.6,1.8,1.92,1.92,0,0,0,.6,1.5,3.84,3.84,0,0,0,2.4.6h14.3v45.2c0,8.7,1.9,15.1,5.6,19.2s9.6,6.4,17.7,7l4.5.3c2.7.2,3.9-.3,4.3-.6s.7-.6.7-1.7c0-.9,0-2-3-2.3l-4.5-.3c-5.8-.4-10.3-2.3-13.4-5.6s-4.6-8.4-4.6-15.4V79.6h21.7a3.42,3.42,0,0,0,2.2-.6,1.76,1.76,0,0,0,.6-1.5,2.19,2.19,0,0,0-.6-1.8,2.63,2.63,0,0,0-2.1-.7H510V53.1a3.28,3.28,0,0,0-.9-2.7,3.47,3.47,0,0,0-2.7-.9,4.2,4.2,0,0,0-2.9.9,3.28,3.28,0,0,0-.9,2.7V75.2H488.2Z"/><path d="M562.4,50.4a8,8,0,0,1-2.5-6.2,7.57,7.57,0,0,1,2.5-6,9.09,9.09,0,0,1,6.5-2.3,9.38,9.38,0,0,1,6.5,2.3,8.06,8.06,0,0,1,2.5,6,8,8,0,0,1-2.5,6.2,9.09,9.09,0,0,1-6.5,2.3A9.2,9.2,0,0,1,562.4,50.4ZM564,152.8a6.26,6.26,0,0,1-1.9-4.9V77a6.12,6.12,0,0,1,1.9-4.9,7,7,0,0,1,5-1.8,6.73,6.73,0,0,1,4.9,1.8,6.57,6.57,0,0,1,1.8,4.9v70.8a6.51,6.51,0,0,1-1.8,5,6.94,6.94,0,0,1-4.9,1.7A6.76,6.76,0,0,1,564,152.8Z"/><path d="M568.9,157.6a9.93,9.93,0,0,1-7-2.6,9.52,9.52,0,0,1-2.9-7.2V77a9.34,9.34,0,0,1,2.9-7.2,10.1,10.1,0,0,1,7-2.6,9.93,9.93,0,0,1,7,2.6,9.42,9.42,0,0,1,2.8,7.2v70.8a9.41,9.41,0,0,1-2.9,7.3A9.61,9.61,0,0,1,568.9,157.6Zm0-84.2a3.75,3.75,0,0,0-2.8.9,3.3,3.3,0,0,0-.9,2.7v70.8c0,1.6.5,2.3.9,2.6h0a4,4,0,0,0,2.8.9,4.1,4.1,0,0,0,2.8-.9,3.78,3.78,0,0,0,.8-2.7V77a3.28,3.28,0,0,0-.9-2.7A3.9,3.9,0,0,0,568.9,73.4Zm0-17.6a12.44,12.44,0,0,1-8.7-3.2,11.23,11.23,0,0,1-3.5-8.5,10.94,10.94,0,0,1,3.5-8.3,13.43,13.43,0,0,1,17.4,0,10.94,10.94,0,0,1,3.5,8.3,11.23,11.23,0,0,1-3.5,8.5A12.44,12.44,0,0,1,568.9,55.8Zm0-16.9a6.18,6.18,0,0,0-4.4,1.5,5,5,0,0,0-1.5,3.8,5,5,0,0,0,1.5,3.9h0a7.2,7.2,0,0,0,8.8,0,5.12,5.12,0,0,0,1.5-3.9,5,5,0,0,0-1.5-3.8A6.18,6.18,0,0,0,568.9,38.9Z"/><path d="M624.5,149.7a34.52,34.52,0,0,1-13.6-14.9c-3.2-6.4-4.8-13.9-4.8-22.4s1.6-16,4.8-22.4a34.26,34.26,0,0,1,13.6-14.8A39.19,39.19,0,0,1,644.9,70a39.81,39.81,0,0,1,20.5,5.2A35,35,0,0,1,679.1,90c3.2,6.4,4.8,13.9,4.8,22.4s-1.6,16-4.8,22.4a35.31,35.31,0,0,1-13.7,14.9,39.56,39.56,0,0,1-20.5,5.2A40.17,40.17,0,0,1,624.5,149.7Zm38.9-14c4.3-5.3,6.5-13,6.5-23.2,0-9.9-2.2-17.6-6.5-23.1s-10.5-8.1-18.5-8.1-14.1,2.7-18.5,8.1-6.5,13.1-6.5,23.1,2.2,17.8,6.5,23.1,10.5,8.1,18.5,8.1S659.1,141,663.4,135.7Z"/><path d="M644.9,158a43.35,43.35,0,0,1-22-5.6,38.45,38.45,0,0,1-14.8-16.1c-3.4-6.8-5.1-14.8-5.1-23.8a53.08,53.08,0,0,1,5.1-23.8,37.26,37.26,0,0,1,14.8-16.1,46,46,0,0,1,44,0,38.35,38.35,0,0,1,14.9,16.2c3.4,6.8,5.1,14.8,5.1,23.8a53.08,53.08,0,0,1-5.1,23.8,38.09,38.09,0,0,1-14.9,16.1A44.33,44.33,0,0,1,644.9,158Zm0-84.9a36.26,36.26,0,0,0-18.8,4.8,31.53,31.53,0,0,0-12.4,13.6,46.39,46.39,0,0,0-4.5,21c0,8,1.5,15.1,4.5,21a32.09,32.09,0,0,0,12.4,13.6h0a36.26,36.26,0,0,0,18.8,4.8,36.63,36.63,0,0,0,18.9-4.8,31.44,31.44,0,0,0,12.5-13.5,46.39,46.39,0,0,0,4.5-21c0-8-1.5-15.1-4.5-21a31.44,31.44,0,0,0-12.5-13.5A34.9,34.9,0,0,0,644.9,73.1Zm0,73.6c-9,0-16.1-3.1-21-9.2-4.7-5.9-7.1-14.3-7.1-25.1,0-10.6,2.4-19,7.2-25,5-6.2,12-9.3,20.9-9.3s15.9,3.1,20.9,9.3c4.8,6,7.2,14.4,7.2,25q0,16.35-7.2,25.2h0C660.9,143.7,653.9,146.7,644.9,146.7Zm0-62.4c-7,0-12.3,2.3-16,7-3.9,4.8-5.9,11.9-5.9,21.1s1.9,16.4,5.8,21.2c3.7,4.6,9,6.9,16.1,6.9s12.4-2.2,16.1-6.8,5.8-11.9,5.8-21.3c0-9.2-2-16.3-5.9-21.1C657.2,86.6,651.9,84.3,644.9,84.3Z"/><path d="M825.8,102.4v45.5a6.42,6.42,0,0,1-1.8,4.9,6.57,6.57,0,0,1-4.9,1.8,7,7,0,0,1-5-1.8,6.26,6.26,0,0,1-1.9-4.9V102.8c0-7.5-1.3-12.9-4-16.3s-6.9-5-12.6-5c-6.8,0-12.2,2.3-16.1,6.9s-5.9,10.8-5.9,18.6v40.9a6.47,6.47,0,0,1-1.9,4.9,7,7,0,0,1-5,1.8,6.73,6.73,0,0,1-4.9-1.8,6.57,6.57,0,0,1-1.8-4.9V102.8c0-7.5-1.3-12.9-4-16.3s-6.9-5-12.8-5c-6.7,0-12,2.3-16,6.9s-6,10.8-6,18.6v40.9a6.42,6.42,0,0,1-1.8,4.9,6.57,6.57,0,0,1-4.9,1.8,7,7,0,0,1-5-1.8,6.26,6.26,0,0,1-1.9-4.9V77a6.55,6.55,0,0,1,1.9-4.9,7,7,0,0,1,5-1.8,6.41,6.41,0,0,1,4.7,1.8,6.49,6.49,0,0,1,1.8,4.8V85a27.44,27.44,0,0,1,10.2-11.1A28.78,28.78,0,0,1,746.3,70c12.8,0,21.1,5.4,25,16.1A26.83,26.83,0,0,1,782,74.4,31.2,31.2,0,0,1,798.4,70C816.8,70,825.8,80.8,825.8,102.4Z"/><path d="M819.1,157.6a9.93,9.93,0,0,1-7-2.6,9.52,9.52,0,0,1-2.9-7.2V102.7c0-6.7-1.1-11.6-3.3-14.3s-5.4-3.9-10.2-3.9c-5.9,0-10.4,1.9-13.7,5.8s-5.1,9.6-5.1,16.6v40.9A9.34,9.34,0,0,1,774,155a10.1,10.1,0,0,1-7,2.6,9.93,9.93,0,0,1-7-2.6,9.42,9.42,0,0,1-2.8-7.2V102.7c0-6.7-1.1-11.6-3.3-14.3s-5.5-3.9-10.3-3.9c-5.8,0-10.3,1.9-13.7,5.8s-5.2,9.6-5.2,16.6v40.9a9.42,9.42,0,0,1-2.8,7.2,10.72,10.72,0,0,1-14,0,9.52,9.52,0,0,1-2.9-7.2V77a9.57,9.57,0,0,1,2.9-7.1,10,10,0,0,1,7.1-2.7,9.61,9.61,0,0,1,6.8,2.6,9,9,0,0,1,2.7,5.7,28.79,28.79,0,0,1,5.6-4.3,32.67,32.67,0,0,1,16.7-4.3c11.8,0,20.3,4.3,25.3,12.7a30.44,30.44,0,0,1,8.8-7.9,34.14,34.14,0,0,1,18-4.8c13.8,0,30.3,6.2,30.3,35.5v45.5a9.42,9.42,0,0,1-2.8,7.2A11.16,11.16,0,0,1,819.1,157.6ZM795.6,78.3c6.7,0,11.7,2.1,15,6.2s4.7,9.9,4.7,18.2v45.1c0,1.6.5,2.3.9,2.6a4.05,4.05,0,0,0,2.9.9,3.47,3.47,0,0,0,2.7-.9,3.28,3.28,0,0,0,.9-2.7V102.2c0-10-2-17.5-6.1-22.3s-9.8-7-18-7a28.2,28.2,0,0,0-14.8,3.9,23.83,23.83,0,0,0-9.5,10.4l-3.2,6.7L768.6,87c-3.5-9.5-10.7-14.1-22.1-14.1A26.78,26.78,0,0,0,733,76.3a23.73,23.73,0,0,0-9,9.8l-6,11.7V76.9a2.94,2.94,0,0,0-.9-2.5,3.27,3.27,0,0,0-2.5-.9,3.7,3.7,0,0,0-2.8,1,3,3,0,0,0-1,2.6v70.8c0,1.6.5,2.3.9,2.6a4.05,4.05,0,0,0,2.9.9,3.47,3.47,0,0,0,2.7-.9,3.28,3.28,0,0,0,.9-2.7V106.9c0-8.6,2.3-15.5,6.7-20.7,4.6-5.3,10.8-7.9,18.4-7.9,6.8,0,11.9,2.1,15.2,6.2s4.7,9.9,4.7,18.2v45.1a3.28,3.28,0,0,0,.9,2.7,3.47,3.47,0,0,0,2.7.9,4.26,4.26,0,0,0,2.9-.9,3.3,3.3,0,0,0,.9-2.7V106.9c0-8.6,2.2-15.5,6.6-20.6C781.7,81,787.9,78.3,795.6,78.3Z"/><path class="cls-1" d="M31.5,132.8a12.14,12.14,0,0,0,15.6-1.3l28.2-28.2A11.46,11.46,0,0,0,79,94.7a11.11,11.11,0,0,0-3.7-8.6h0L47.2,58a12,12,0,0,0-15.6-1.3L24.9,50c3.3-4.4,3.9-10.5-1.1-15.4C12.8,23.3-4.7,40.8,6.6,51.8c4.9,5,11.1,4.4,15.4,1.1l6.6,6.7a12,12,0,0,0,1.3,15.6L49.5,94.8,30,114.3a12,12,0,0,0-1.3,15.6l-6.6,6.6c-4.4-3.3-10.5-3.9-15.4,1.1-11.3,11,6.2,28.5,17.2,17.2,5-4.9,4.4-11.1,1.1-15.4Z"/><path class="cls-1" d="M191.5,137.7c-4.9-5-11.1-4.4-15.4-1.1l-6.6-6.6a12.15,12.15,0,0,0-1.3-15.6L148.6,94.8l19.6-19.6a12,12,0,0,0,1.3-15.6l6.6-6.7c4.4,3.3,10.5,3.9,15.4-1.1,11.3-11-6.2-28.5-17.2-17.2-5,4.9-4.4,11.1-1.1,15.4l-6.6,6.7A12,12,0,0,0,151,58L122.8,86.2h0a11.46,11.46,0,0,0-3.7,8.6,11.11,11.11,0,0,0,3.7,8.6L151,131.6a12,12,0,0,0,15.6,1.3l6.6,6.6c-3.3,4.4-3.9,10.5,1.1,15.4C185.3,166.2,202.8,148.7,191.5,137.7Z"/><path class="cls-1" d="M55,23.8l6.7,6.6A12,12,0,0,0,63,46L91.2,74.2h0a11.46,11.46,0,0,0,8.6,3.7,11.11,11.11,0,0,0,8.6-3.7L136.6,46a12,12,0,0,0,1.3-15.6l6.6-6.6c4.4,3.3,10.5,3.9,15.4-1.1,11.3-11-6.2-28.5-17.2-17.2-5,4.9-4.4,11.1-1.1,15.4L135,27.5a12,12,0,0,0-15.6,1.3L99.7,48.5,80.1,28.9a12,12,0,0,0-15.6-1.3L57.8,21c3.3-4.4,3.9-10.5-1.1-15.4-11-11.3-28.5,6.2-17.2,17.2C44.4,27.8,50.6,27.1,55,23.8Z"/><path class="cls-1" d="M144.4,166.5l-6.6-6.6a12.14,12.14,0,0,0-1.3-15.6L108.3,116a11.46,11.46,0,0,0-8.6-3.7,11.11,11.11,0,0,0-8.6,3.7h0L62.9,144.2a12,12,0,0,0-1.3,15.6l-6.7,6.6c-4.4-3.3-10.5-3.9-15.4,1.1-11.3,11,6.2,28.5,17.2,17.2,5-4.9,4.4-11.1,1.1-15.4l6.7-6.6a12.14,12.14,0,0,0,15.6-1.3l19.6-19.6,19.6,19.6a12,12,0,0,0,15.6,1.3l6.6,6.6c-3.3,4.4-3.9,10.5,1.1,15.4,11,11.3,28.5-6.2,17.2-17.2C154.9,162.5,148.8,163.2,144.4,166.5Z"/><path d="M99,82a12.8,12.8,0,1,0,12.8,12.8A12.76,12.76,0,0,0,99,82Z"/></svg>