<svg width="72" height="71" viewBox="0 0 72 71" fill="none" xmlns="http://www.w3.org/2000/svg">
<g filter="url(#filter0_d_755_31)">
<rect x="9" y="5" width="54" height="54" rx="27" fill="black"/>
</g>
<path d="M45.7699 32.6571C45.7699 33.7979 45.7699 34.8755 45.7699 36.0414C46.6627 36.0414 47.5442 36.0414 48.4257 36.0414C48.6477 36.0414 48.8697 36.0397 49.0917 36.0447C49.5727 36.053 49.8686 36.2978 49.8622 36.8058C49.8558 37.3155 49.5373 37.547 49.0676 37.552C48.1394 37.5603 47.2096 37.5553 46.2815 37.5553C46.1238 37.5553 45.9678 37.5553 45.7378 37.5553C45.7378 38.5413 45.741 39.4756 45.7361 40.4083C45.7313 41.2427 45.4997 41.4909 44.6922 41.5009C43.7881 41.5109 42.8841 41.5025 41.9028 41.5025C41.9028 42.4669 41.9028 43.3596 41.9028 44.2506C41.9028 44.4605 41.9077 44.6686 41.9012 44.8785C41.8819 45.4731 41.5875 45.8578 41.15 45.8029C40.6513 45.7396 40.4294 45.4048 40.4326 44.8885C40.439 43.9891 40.4342 43.0898 40.4342 42.192C40.4342 41.9872 40.4342 41.7823 40.4342 41.5425C39.3355 41.5425 38.2947 41.5425 37.1687 41.5425C37.1687 42.5018 37.1687 43.4345 37.1687 44.3672C37.1687 44.577 37.1671 44.7852 37.1655 44.9951C37.1623 45.5014 36.8952 45.8095 36.4288 45.7979C35.9639 45.7862 35.7097 45.4614 35.7065 44.9651C35.7033 44.0241 35.7049 43.0831 35.7049 42.1421C35.7049 41.9572 35.7049 41.7723 35.7049 41.5525C34.5982 41.5525 33.5397 41.5525 32.4346 41.5525C32.4346 42.6601 32.4378 43.7243 32.433 44.7869C32.4298 45.4514 32.174 45.8095 31.7139 45.8128C31.2571 45.8162 30.9788 45.4398 30.9756 44.7969C30.9724 43.7326 30.974 42.6667 30.974 41.5059C30.0989 41.5059 29.2592 41.5075 28.4195 41.5059C27.3031 41.5042 27.1648 41.3593 27.1632 40.2001C27.1616 39.3457 27.1632 38.493 27.1632 37.557C26.0259 37.557 24.9433 37.5653 23.8607 37.5536C23.317 37.5486 22.939 37.1839 23.0082 36.7309C23.0822 36.2412 23.3894 36.0364 23.8672 36.043C24.9353 36.0547 26.0034 36.0464 27.1181 36.0464C27.1181 34.9071 27.1181 33.8113 27.1181 32.6621C26.0034 32.6621 24.916 32.6637 23.8285 32.6604C23.3524 32.6587 23.0323 32.4022 23.0146 31.9209C22.9969 31.4362 23.2897 31.1564 23.7787 31.1465C23.9798 31.1431 24.1824 31.1415 24.3851 31.1415C25.2731 31.1415 26.1594 31.1415 27.1053 31.1415C27.1053 30.0172 27.1053 28.9263 27.1053 27.7638C26.1755 27.7638 25.2522 27.7638 24.3304 27.7638C24.1487 27.7638 23.9669 27.7721 23.7851 27.7605C23.3106 27.7305 23.0066 27.4574 23.013 26.9744C23.0194 26.523 23.3058 26.2499 23.7642 26.2449C24.6522 26.2349 25.5417 26.2366 26.4297 26.2332C26.6468 26.2332 26.8624 26.2332 27.1648 26.2332C27.1648 25.2522 27.1616 24.3396 27.1664 23.4269C27.1712 22.4942 27.382 22.276 28.2667 22.2727C29.1498 22.271 30.0329 22.2727 30.9788 22.2727C30.9788 21.0652 30.9691 19.921 30.9836 18.7768C30.9901 18.2838 31.2523 17.984 31.7413 18.0007C32.1981 18.0156 32.4233 18.3104 32.433 18.7801C32.4362 18.9683 32.4362 19.1565 32.4362 19.3447C32.4362 20.2841 32.4362 21.2234 32.4362 22.2177C33.5188 22.2177 34.574 22.2177 35.7065 22.2177C35.7065 21.2717 35.7065 20.3174 35.7065 19.363C35.7065 19.1532 35.6936 18.9433 35.7129 18.7368C35.7564 18.2788 35.9928 17.9923 36.4545 18.0007C36.9145 18.009 37.1558 18.2938 37.1623 18.7618C37.1751 19.6811 37.1687 20.6022 37.1703 21.5215C37.1703 21.7464 37.1703 21.9712 37.1703 22.236C38.2706 22.236 39.3098 22.236 40.4358 22.236C40.4358 21.2834 40.4358 20.329 40.4358 19.3764C40.4358 19.1665 40.4213 18.9567 40.4422 18.7501C40.4873 18.2988 40.7125 18.0007 41.1757 18.0023C41.6358 18.004 41.8867 18.2855 41.8948 18.7518C41.9109 19.6512 41.9028 20.5505 41.9044 21.4482C41.9044 21.6947 41.9044 21.9412 41.9044 22.276C42.839 22.276 43.719 22.2743 44.6005 22.276C45.5077 22.2777 45.7361 22.5175 45.7378 23.4652C45.7394 24.3612 45.7378 25.2572 45.7378 26.2366C46.6305 26.2366 47.4734 26.2366 48.3147 26.2366C48.5576 26.2366 48.7989 26.2332 49.0418 26.2399C49.5324 26.2532 49.8799 26.4714 49.8622 27.021C49.8445 27.5656 49.4842 27.7638 48.9968 27.7638C48.1281 27.7655 47.2595 27.7638 46.3908 27.7638C46.1946 27.7638 45.9983 27.7638 45.7699 27.7638C45.7699 28.9047 45.7699 29.9806 45.7699 31.1415C46.5099 31.1415 47.2305 31.1415 47.9512 31.1415C48.2745 31.1415 48.5978 31.1365 48.9212 31.1431C49.5743 31.1548 49.9024 31.4146 49.8654 31.9209C49.822 32.5072 49.4408 32.6671 48.9357 32.6637C48.0879 32.6571 47.2386 32.6621 46.3908 32.6621C46.1946 32.6571 45.9967 32.6571 45.7699 32.6571ZM44.2112 23.8566C39.0073 23.8566 33.8502 23.8566 28.6978 23.8566C28.6978 29.2444 28.6978 34.584 28.6978 39.9303C33.8888 39.9303 39.0315 39.9303 44.2112 39.9303C44.2112 34.5757 44.2112 29.2494 44.2112 23.8566Z" fill="white"/>
<path d="M42.4657 31.921C42.4657 33.5932 42.4673 35.267 42.4657 36.9392C42.4641 37.8718 42.2517 38.11 41.3766 38.1117C38.0854 38.1167 34.7926 38.1167 31.5014 38.1117C30.636 38.11 30.4414 37.8985 30.4397 36.9841C30.4349 34.6841 30.4446 32.384 30.4317 30.084C30.4285 29.6143 30.5556 29.2512 30.8902 28.9181C31.8071 28.0054 32.6741 27.0378 33.6087 26.1451C33.8757 25.8902 34.2988 25.6837 34.6543 25.6787C36.916 25.6371 39.1777 25.6554 41.4394 25.6587C42.1938 25.6604 42.4592 25.9352 42.4625 26.7147C42.4689 28.4501 42.4657 30.1856 42.4657 31.921ZM31.9261 36.5478C34.9744 36.5478 37.9358 36.5478 40.9182 36.5478C40.9182 33.4266 40.9182 30.3305 40.9182 27.1977C38.8849 27.1977 36.9079 27.1927 34.931 27.206C34.7701 27.2076 34.5706 27.2943 34.4548 27.4108C33.6714 28.1953 32.9025 28.9947 32.14 29.8008C32.0371 29.9091 31.9374 30.0823 31.9374 30.2255C31.9213 32.3141 31.9261 34.4009 31.9261 36.5478Z" fill="white"/>
<path d="M31.609 26.0847C31.5897 26.5577 31.3597 26.8325 30.9109 26.8792C30.4766 26.9225 30.1194 26.5744 30.1291 26.1264C30.1404 25.6517 30.3913 25.3969 30.8481 25.3835C31.3098 25.3686 31.5511 25.6284 31.609 26.0847Z" fill="white"/>
<path d="M35.1503 33.9476C34.5615 34.1025 33.9696 33.9126 33.5256 34.5122C33.4339 34.6355 32.94 34.6055 32.7792 34.4639C32.5942 34.3007 32.4172 33.8643 32.5025 33.6745C33.1411 32.2388 33.8183 30.8198 34.5422 29.4291C34.8157 28.9045 35.4977 28.9495 35.776 29.4941C36.4516 30.8181 37.1112 32.1522 37.7031 33.5179C37.8109 33.7644 37.6629 34.2607 37.4667 34.4872C37.1868 34.8087 36.8506 34.5738 36.5063 34.3723C36.1042 34.1358 35.6071 34.0792 35.1503 33.9476ZM35.1374 31.5693C34.9653 31.9224 34.8302 32.1972 34.6741 32.5186C35.0345 32.5186 35.2838 32.5186 35.5959 32.5186C35.4398 32.1939 35.3095 31.924 35.1374 31.5693Z" fill="white"/>
<path d="M38.609 31.8025C38.609 31.1763 38.6138 30.55 38.6074 29.9238C38.6025 29.4208 38.8503 29.131 39.3152 29.0794C39.7398 29.0311 40.0535 29.4042 40.0567 29.9438C40.0664 31.2162 40.0551 32.4887 40.0632 33.7628C40.0664 34.2907 39.8267 34.6355 39.3264 34.6288C38.8261 34.6222 38.5961 34.2674 38.6058 33.7428C38.6186 33.0966 38.609 32.4487 38.609 31.8025Z" fill="white"/>
<defs>
<filter id="filter0_d_755_31" x="0.900001" y="0.5" width="70.2" height="70.2" filterUnits="userSpaceOnUse" color-interpolation-filters="sRGB">
<feFlood flood-opacity="0" result="BackgroundImageFix"/>
<feColorMatrix in="SourceAlpha" type="matrix" values="0 0 0 0 0 0 0 0 0 0 0 0 0 0 0 0 0 0 127 0" result="hardAlpha"/>
<feOffset dy="3.6"/>
<feGaussianBlur stdDeviation="4.05"/>
<feComposite in2="hardAlpha" operator="out"/>
<feColorMatrix type="matrix" values="0 0 0 0 0 0 0 0 0 0 0 0 0 0 0 0 0 0 0.05 0"/>
<feBlend mode="normal" in2="BackgroundImageFix" result="effect1_dropShadow_755_31"/>
<feBlend mode="normal" in="SourceGraphic" in2="effect1_dropShadow_755_31" result="shape"/>
</filter>
</defs>
</svg>
