<svg width="17" height="16" viewBox="0 0 17 16" fill="none" xmlns="http://www.w3.org/2000/svg">
<path d="M16.7889 8.4425L16.7876 8.45032C16.7748 8.53066 16.7627 8.61217 16.7505 8.69426C16.7242 8.87062 16.6976 9.04963 16.663 9.22533L16.663 9.2254C16.324 10.9386 15.4265 12.3448 14.1146 13.513L14.1146 13.513C13.3774 14.1692 12.5458 14.6839 11.6023 15.0805C11.6623 15.106 11.7196 15.1306 11.7764 15.1557L11.7765 15.1557C11.8791 15.201 11.9625 15.2654 12.0061 15.3541C12.0513 15.4462 12.045 15.5465 12.0028 15.6424M16.7889 8.4425L11.3826 13.9076L11.4335 13.8215C11.3459 13.7697 11.2481 13.754 11.1534 13.7802C11.06 13.8061 10.9798 13.8699 10.9185 13.9587L10.9185 13.9588C10.7215 14.2452 10.5257 14.5328 10.3329 14.8226L10.3328 14.8227C10.2628 14.9283 10.2302 15.0436 10.2645 15.1546C10.2986 15.265 10.3903 15.3432 10.5072 15.3942L10.5072 15.3943C10.8322 15.5359 11.1583 15.6745 11.4851 15.8117L11.4852 15.8117C11.5892 15.8552 11.6946 15.8685 11.7897 15.8394C11.8873 15.8095 11.9604 15.7389 12.0028 15.6424M16.7889 8.4425V8.43458V8.43259V8.43061V8.42862V8.42664V8.42465V8.42267V8.42069V8.4187V8.41672V8.41473V8.41275V8.41076V8.40878V8.4068V8.40481V8.40283V8.40084V8.39886V8.39687V8.39489V8.3929V8.39092V8.38894V8.38695V8.38497V8.38298V8.381V8.37901V8.37703V8.37505V8.37306V8.37108V8.36909V8.36711V8.36512V8.36314V8.36116V8.35917V8.35719V8.3552V8.35322V8.35123V8.34925V8.34727V8.34528V8.3433V8.34131V8.33933V8.33735V8.33536V8.33338V8.33139V8.32941V8.32742V8.32544V8.32346V8.32147V8.31949V8.3175V8.31552V8.31353V8.31155V8.30957V8.30758V8.3056V8.30361V8.30163V8.29964V8.29766V8.29568V8.29369V8.29171V8.28972V8.28774V8.28575V8.28377V8.28179V8.2798V8.27782V8.27583V8.27385V8.27186V8.26988V8.26789V8.26591V8.26393V8.26194V8.25996V8.25797V8.25599V8.254V8.25202V8.25004V8.24805V8.24607V8.24408V8.2421V8.24011V8.23813V8.23615V8.23416V8.23218V8.23019V8.22821V8.22622V8.22424V8.22226V8.22027V8.21829V8.2163V8.21432V8.21233V8.21035V8.20837V8.20638V8.2044V8.20241V8.20043V8.19844V8.19646V8.19448V8.19249V8.19051V8.18852V8.18654V8.18455V8.18257V8.18059V8.1786V8.17662V8.17463V8.17265V8.17066V8.16868V8.1667V8.16471V8.16273V8.16074V8.15876V8.15677V8.15479V8.15281V8.15082V8.14884V8.14685V8.14487V8.14288V8.1409V8.13892V8.13693V8.13495V8.13296V8.13098V8.12899V8.12701V8.12503V8.12304V8.12106V8.11907V8.11709V8.1151V8.11312V8.11114V8.10915V8.10717V8.10518V8.1032V8.10121V8.09923V8.09725V8.09526V8.09328V8.09129V8.08931V8.08732V8.08534V8.08336V8.08137V8.07939V8.0774V8.07542V8.07343V8.07145V8.06947V8.06748V8.0655V8.06351V8.06153V8.05954V8.05756V8.05558V8.05359V8.05161V8.04962V8.04764V8.04565V8.04367V8.04169V8.0397V8.03772V8.03573V8.03375V8.03176V8.02978V8.0278V8.02581V8.02383V8.02184V8.01986V8.01787V8.01589V8.01391V8.01192V8.00994V8.00795V8.00597V8.00398V8.002V8.00002V7.99803V7.99605V7.99406V7.99208V7.99009V7.98811V7.98613V7.98414V7.98216V7.98017V7.97819V7.9762V7.97422V7.97224V7.97025V7.96827V7.96628V7.9643V7.96231V7.96033V7.95835V7.95636V7.95438V7.95239V7.95041V7.94842V7.94644V7.94446V7.94247V7.94049V7.9385V7.93652V7.93453V7.93255V7.93057V7.92858V7.9266V7.92461V7.92263V7.92064V7.91866V7.91668V7.91469V7.91271V7.91072V7.90874V7.90675V7.90477V7.90279V7.9008V7.89882V7.89683V7.89485V7.89286V7.89088V7.8889V7.88691V7.88493V7.88294V7.88096V7.87897V7.87699V7.87501V7.87302V7.87104V7.86905V7.86707V7.86508V7.8631V7.86112V7.85913V7.85715V7.85516V7.85318V7.85119V7.84921V7.84723V7.84524V7.84326V7.84127V7.83929V7.8373V7.83532V7.83334V7.83135V7.82937V7.82738V7.8254V7.82341V7.82143V7.81945V7.81746V7.81548V7.81349V7.81151V7.80952V7.80754V7.80556V7.80357V7.80159V7.7996V7.79762V7.79563V7.79365V7.79167V7.78968V7.7877V7.78571V7.78373V7.78174V7.77976V7.77778V7.77579V7.77381V7.77182V7.76984V7.76785V7.76587V7.76389V7.7619V7.75992V7.75793V7.75595V7.75396V7.75198V7.75V7.74801V7.74603V7.74404V7.74206V7.74007V7.73809V7.73611V7.73412V7.73214V7.73015V7.72817V7.72618V7.7242V7.72222V7.72023V7.71825V7.71626V7.71428V7.71229V7.71031V7.70833V7.70634V7.70436V7.70237V7.70039V7.6984V7.69642V7.69444V7.69245V7.69047V7.68848V7.6865V7.68451V7.68253V7.68055V7.67856V7.67658V7.67459V7.67261V7.67062V7.66864V7.66666V7.66467V7.66269V7.6607V7.65872V7.65673V7.65475V7.65277V7.65078V7.6488V7.64681V7.64483V7.64284V7.64086V7.63888V7.63689V7.63491V7.63292V7.63094V7.62895V7.62697V7.62499V7.623V7.62102V7.61903V7.61705V7.61506V7.61308V7.6111V7.60911V7.60713V7.60514V7.60316V7.60117V7.59919V7.59721V7.59522V7.59324V7.59125V7.58927V7.58728V7.5853V7.58332V7.58133V7.57935V7.57736V7.57538V7.57339V7.57141V7.56943V7.56744V7.56546V7.56347V7.56149V7.5595V7.55752V7.55554V7.55355V7.55157V7.54958V7.5476V7.54561V7.54363V7.54165V7.53966V7.53768V7.53569V7.53371V7.53172V7.52974V7.52776V7.52577V7.52379V7.5218V7.51982V7.51783V7.51585V7.51387V7.51188V7.5099V7.50791V7.50593V7.50394V7.50196V7.49998V7.49799V7.49601V7.49402V7.49204V7.49005V7.48807V7.48609V7.4841V7.48212V7.48013V7.47815V7.47616V7.47418V7.4722V7.47021V7.46823V7.46624V7.46426V7.46227V7.46029V7.45831V7.45632V7.45434V7.45235V7.45037V7.44838V7.4464V7.44442V7.44243V7.44045V7.43846V7.43648V7.43449V7.43251V7.43053V7.42854V7.42656V7.42457V7.42259V7.4206V7.41862V7.40741L16.7864 7.39647C16.7824 7.37899 16.7786 7.36334 16.775 7.34866C16.7681 7.32026 16.762 7.29549 16.7575 7.26813L16.7575 7.26796C16.738 7.15226 16.72 7.03488 16.7018 6.9167C16.6599 6.64436 16.6174 6.36775 16.5555 6.09758C16.4963 5.83864 16.4065 5.5853 16.3191 5.33902C16.3 5.28517 16.2811 5.23165 16.2626 5.17849L16.2625 5.17846C16.2264 5.07487 16.1597 4.99471 16.0719 4.95002C15.984 4.90531 15.8827 4.90006 15.7858 4.93265L15.7857 4.93268C15.6882 4.96559 15.6136 5.03209 15.575 5.12193C15.5369 5.21061 15.5377 5.31275 15.5716 5.41313L15.5717 5.41334C15.5847 5.45166 15.599 5.48927 15.6128 5.5252L15.6162 5.53396C15.6289 5.5672 15.6411 5.59897 15.6523 5.6309C16.1292 6.99153 16.223 8.3622 15.7691 9.73281L16.7889 8.4425ZM12.0028 15.6424L11.9113 15.6021L12.0028 15.6424C12.0028 15.6424 12.0028 15.6424 12.0028 15.6424ZM11.5092 14.337C11.5092 14.337 11.5092 14.337 11.5092 14.337L11.53 14.3503C11.53 14.3503 11.53 14.3503 11.53 14.3503L11.5092 14.337Z" fill="white" stroke="white" stroke-width="0.2"/>
<mask id="path-2-outside-1_378_255" maskUnits="userSpaceOnUse" x="2.21667" y="1.91333" width="12" height="12" fill="black">
<rect fill="white" x="2.21667" y="1.91333" width="12" height="12"/>
<path d="M4.2921 6.95738C4.45583 6.60669 4.60234 6.28394 4.75901 5.96592C4.79519 5.892 4.79431 5.84903 4.73165 5.79531C4.64074 5.71666 4.55601 5.63071 4.47083 5.54605C4.22944 5.30538 4.21576 4.95813 4.45495 4.71489C4.66721 4.49915 4.89007 4.292 5.12132 4.09474C5.37375 3.87986 5.71532 3.88975 5.96245 4.11021C6.09087 4.22496 6.20561 4.35346 6.30578 4.45445C6.70914 4.29544 7.0816 4.14889 7.48319 3.99031C7.48319 3.8674 7.48187 3.70968 7.48363 3.55238C7.4876 3.18064 7.73165 2.93009 8.1147 2.91892C8.40199 2.91032 8.69016 2.91247 8.97745 2.91978C9.32653 2.9288 9.57233 3.17162 9.58337 3.50984C9.58778 3.64306 9.57763 3.77715 9.58822 3.90952C9.59175 3.95249 9.63059 4.01352 9.66942 4.02942C10.0163 4.16823 10.3667 4.29888 10.7546 4.44672C10.8318 4.36678 10.9329 4.25461 11.0419 4.15018C11.2872 3.91467 11.6513 3.89447 11.9033 4.11881C12.1337 4.3238 12.3543 4.54126 12.5617 4.76818C12.7886 5.01658 12.7652 5.34921 12.5273 5.58945C12.4135 5.7042 12.2259 5.80519 12.2025 5.93455C12.1796 6.06133 12.3301 6.21303 12.3905 6.35915C12.4686 6.54911 12.5366 6.74293 12.6019 6.93761C12.6266 7.0111 12.6593 7.04505 12.7453 7.04204C12.8993 7.03603 13.0547 7.0356 13.2087 7.04591C13.5278 7.0674 13.7687 7.29818 13.7793 7.60374C13.7895 7.90586 13.789 8.20927 13.7775 8.5114C13.7656 8.82641 13.503 9.0645 13.1752 9.07481C13.0105 9.07997 12.8049 9.02539 12.6928 9.10103C12.5829 9.17538 12.5754 9.38338 12.5105 9.52735C12.428 9.71043 12.3283 9.88577 12.2471 10.0693C12.2286 10.1114 12.2383 10.1866 12.2674 10.2218C12.3433 10.3134 12.4382 10.3907 12.5238 10.475C12.774 10.7204 12.7908 11.0633 12.5445 11.3169C12.3336 11.5339 12.109 11.7398 11.8777 11.9366C11.6332 12.1446 11.2745 12.1274 11.0353 11.9117C10.9382 11.824 10.842 11.7346 10.7528 11.6396C10.6937 11.5769 10.6469 11.5696 10.5617 11.6057C10.2511 11.7368 9.93332 11.8515 9.62176 11.9804C9.57763 11.9985 9.52997 12.0591 9.52467 12.1042C9.51099 12.2207 9.52114 12.3397 9.51982 12.4579C9.51452 12.8352 9.25812 13.0879 8.87066 13.0871C8.55115 13.0866 8.23076 13.0883 7.91258 13.0634C7.62661 13.0411 7.432 12.8318 7.40773 12.5546C7.39537 12.4119 7.39669 12.2675 7.40199 12.124C7.40508 12.0419 7.36845 12.0135 7.29387 11.9852C6.98363 11.8657 6.6756 11.741 6.37066 11.6095C6.29608 11.5773 6.24974 11.5704 6.19237 11.6327C6.1147 11.717 6.02864 11.7939 5.9448 11.873C5.67736 12.1253 5.3177 12.1351 5.04586 11.8846C4.8305 11.686 4.62264 11.4789 4.42361 11.2653C4.20075 11.0259 4.21708 10.6757 4.44921 10.4427C4.54497 10.3465 4.6478 10.2567 4.74135 10.1582C4.76827 10.1299 4.79519 10.0723 4.78284 10.0439C4.63014 9.69711 4.46995 9.35287 4.3027 8.98886C4.16942 8.98886 4.00481 8.99101 3.83977 8.98843C3.50084 8.98327 3.23562 8.74776 3.22414 8.42372C3.21355 8.1216 3.21443 7.81819 3.22547 7.51607C3.23738 7.19848 3.50172 6.96168 3.82829 6.95867C3.99334 6.95609 4.15795 6.95738 4.2921 6.95738ZM8.45892 12.5739C8.5869 12.5739 8.71487 12.5722 8.84241 12.5744C8.94171 12.5761 8.98716 12.5387 8.98451 12.4373C8.97922 12.2374 8.98187 12.0372 8.98363 11.8369C8.98496 11.6538 9.04586 11.5726 9.23341 11.5369C9.69855 11.448 10.1262 11.2748 10.5269 11.0337C10.688 10.937 10.785 10.952 10.9254 11.0839C11.0701 11.2202 11.2158 11.356 11.3548 11.4978C11.4342 11.5786 11.4991 11.5838 11.582 11.5038C11.7555 11.3371 11.9311 11.172 12.1121 11.013C12.2043 10.9322 12.1884 10.8721 12.1072 10.7977C11.9647 10.6666 11.8252 10.5321 11.6884 10.3955C11.5609 10.2683 11.5463 10.1694 11.6451 10.0233C11.9038 9.64167 12.0869 9.23125 12.1897 8.78601C12.2272 8.62356 12.3217 8.56039 12.5004 8.55867C12.6977 8.55695 12.8949 8.55394 13.0918 8.55996C13.2096 8.5634 13.255 8.51956 13.2528 8.40739C13.2484 8.17661 13.2462 7.9454 13.2537 7.71462C13.2577 7.58268 13.1968 7.54529 13.071 7.54873C12.8689 7.55432 12.6659 7.5526 12.4638 7.54916C12.2599 7.54572 12.1862 7.48813 12.146 7.29732C12.0556 6.871 11.8879 6.47562 11.6491 6.10731C11.522 5.91177 11.5339 5.82109 11.6999 5.66036C11.8349 5.52928 11.9682 5.39606 12.1085 5.27014C12.1933 5.19407 12.1985 5.1339 12.1134 5.05311C11.9426 4.89109 11.7758 4.72477 11.6138 4.55502C11.5291 4.46649 11.4602 4.4652 11.3746 4.55201C11.2427 4.68566 11.105 4.81502 10.9677 4.94395C10.8292 5.07417 10.7281 5.08792 10.5692 4.9895C10.1809 4.74884 9.76342 4.57693 9.31373 4.47551C9.10587 4.42867 9.04939 4.35432 9.0485 4.15319C9.04762 3.96324 9.04321 3.77328 9.05027 3.58376C9.05424 3.47374 9.0207 3.42389 8.89846 3.42689C8.65883 3.43291 8.41876 3.43076 8.17913 3.42775C8.06615 3.42646 8.0154 3.46514 8.01982 3.58161C8.02732 3.7866 8.02335 3.99203 8.02114 4.19745C8.01938 4.36721 7.94568 4.46004 7.77842 4.49012C7.3177 4.5735 6.89405 4.74368 6.49775 4.98177C6.31858 5.08921 6.22017 5.07718 6.07189 4.93664C5.92758 4.79998 5.78195 4.66418 5.64294 4.52278C5.56748 4.44629 5.50481 4.44414 5.42758 4.51763C5.24974 4.68738 5.07101 4.85628 4.88743 5.02045C4.80137 5.09694 4.8177 5.15453 4.8936 5.22415C5.02467 5.34449 5.15089 5.46955 5.27886 5.59332C5.45671 5.76565 5.46686 5.84602 5.33006 6.05015C5.09087 6.40643 4.92361 6.79149 4.82432 7.20406C4.77622 7.40476 4.69325 7.47008 4.47966 7.47223C4.2824 7.47438 4.08513 7.47524 3.88831 7.4718C3.79299 7.47008 3.75327 7.50704 3.75415 7.59858C3.75636 7.84484 3.75636 8.09109 3.75415 8.33734C3.75327 8.43361 3.7921 8.47572 3.89669 8.47272C4.09925 8.46756 4.30181 8.47014 4.50437 8.47143C4.71223 8.47315 4.80137 8.5346 4.84021 8.72671C4.92891 9.16506 5.1072 9.56646 5.35124 9.94379C5.46333 10.117 5.45009 10.2038 5.29872 10.3525C5.16413 10.4844 5.03129 10.6177 4.89007 10.7427C4.79563 10.8261 4.78416 10.8927 4.88125 10.9834C5.05292 11.1441 5.21929 11.3109 5.38125 11.481C5.46465 11.5683 5.5282 11.5558 5.60631 11.478C5.73915 11.3448 5.87595 11.2155 6.0132 11.0861C6.15883 10.949 6.25636 10.9361 6.42405 11.0405C6.8124 11.2816 7.229 11.4544 7.68089 11.5511C7.86404 11.5902 7.93023 11.6727 7.93288 11.8528C7.93553 12.0427 7.93729 12.2327 7.93244 12.4222C7.92979 12.5348 7.97701 12.5804 8.09352 12.5752C8.21355 12.5701 8.33623 12.5744 8.45892 12.5739Z"/>
</mask>
<path d="M4.2921 6.95738C4.45583 6.60669 4.60234 6.28394 4.75901 5.96592C4.79519 5.892 4.79431 5.84903 4.73165 5.79531C4.64074 5.71666 4.55601 5.63071 4.47083 5.54605C4.22944 5.30538 4.21576 4.95813 4.45495 4.71489C4.66721 4.49915 4.89007 4.292 5.12132 4.09474C5.37375 3.87986 5.71532 3.88975 5.96245 4.11021C6.09087 4.22496 6.20561 4.35346 6.30578 4.45445C6.70914 4.29544 7.0816 4.14889 7.48319 3.99031C7.48319 3.8674 7.48187 3.70968 7.48363 3.55238C7.4876 3.18064 7.73165 2.93009 8.1147 2.91892C8.40199 2.91032 8.69016 2.91247 8.97745 2.91978C9.32653 2.9288 9.57233 3.17162 9.58337 3.50984C9.58778 3.64306 9.57763 3.77715 9.58822 3.90952C9.59175 3.95249 9.63059 4.01352 9.66942 4.02942C10.0163 4.16823 10.3667 4.29888 10.7546 4.44672C10.8318 4.36678 10.9329 4.25461 11.0419 4.15018C11.2872 3.91467 11.6513 3.89447 11.9033 4.11881C12.1337 4.3238 12.3543 4.54126 12.5617 4.76818C12.7886 5.01658 12.7652 5.34921 12.5273 5.58945C12.4135 5.7042 12.2259 5.80519 12.2025 5.93455C12.1796 6.06133 12.3301 6.21303 12.3905 6.35915C12.4686 6.54911 12.5366 6.74293 12.6019 6.93761C12.6266 7.0111 12.6593 7.04505 12.7453 7.04204C12.8993 7.03603 13.0547 7.0356 13.2087 7.04591C13.5278 7.0674 13.7687 7.29818 13.7793 7.60374C13.7895 7.90586 13.789 8.20927 13.7775 8.5114C13.7656 8.82641 13.503 9.0645 13.1752 9.07481C13.0105 9.07997 12.8049 9.02539 12.6928 9.10103C12.5829 9.17538 12.5754 9.38338 12.5105 9.52735C12.428 9.71043 12.3283 9.88577 12.2471 10.0693C12.2286 10.1114 12.2383 10.1866 12.2674 10.2218C12.3433 10.3134 12.4382 10.3907 12.5238 10.475C12.774 10.7204 12.7908 11.0633 12.5445 11.3169C12.3336 11.5339 12.109 11.7398 11.8777 11.9366C11.6332 12.1446 11.2745 12.1274 11.0353 11.9117C10.9382 11.824 10.842 11.7346 10.7528 11.6396C10.6937 11.5769 10.6469 11.5696 10.5617 11.6057C10.2511 11.7368 9.93332 11.8515 9.62176 11.9804C9.57763 11.9985 9.52997 12.0591 9.52467 12.1042C9.51099 12.2207 9.52114 12.3397 9.51982 12.4579C9.51452 12.8352 9.25812 13.0879 8.87066 13.0871C8.55115 13.0866 8.23076 13.0883 7.91258 13.0634C7.62661 13.0411 7.432 12.8318 7.40773 12.5546C7.39537 12.4119 7.39669 12.2675 7.40199 12.124C7.40508 12.0419 7.36845 12.0135 7.29387 11.9852C6.98363 11.8657 6.6756 11.741 6.37066 11.6095C6.29608 11.5773 6.24974 11.5704 6.19237 11.6327C6.1147 11.717 6.02864 11.7939 5.9448 11.873C5.67736 12.1253 5.3177 12.1351 5.04586 11.8846C4.8305 11.686 4.62264 11.4789 4.42361 11.2653C4.20075 11.0259 4.21708 10.6757 4.44921 10.4427C4.54497 10.3465 4.6478 10.2567 4.74135 10.1582C4.76827 10.1299 4.79519 10.0723 4.78284 10.0439C4.63014 9.69711 4.46995 9.35287 4.3027 8.98886C4.16942 8.98886 4.00481 8.99101 3.83977 8.98843C3.50084 8.98327 3.23562 8.74776 3.22414 8.42372C3.21355 8.1216 3.21443 7.81819 3.22547 7.51607C3.23738 7.19848 3.50172 6.96168 3.82829 6.95867C3.99334 6.95609 4.15795 6.95738 4.2921 6.95738ZM8.45892 12.5739C8.5869 12.5739 8.71487 12.5722 8.84241 12.5744C8.94171 12.5761 8.98716 12.5387 8.98451 12.4373C8.97922 12.2374 8.98187 12.0372 8.98363 11.8369C8.98496 11.6538 9.04586 11.5726 9.23341 11.5369C9.69855 11.448 10.1262 11.2748 10.5269 11.0337C10.688 10.937 10.785 10.952 10.9254 11.0839C11.0701 11.2202 11.2158 11.356 11.3548 11.4978C11.4342 11.5786 11.4991 11.5838 11.582 11.5038C11.7555 11.3371 11.9311 11.172 12.1121 11.013C12.2043 10.9322 12.1884 10.8721 12.1072 10.7977C11.9647 10.6666 11.8252 10.5321 11.6884 10.3955C11.5609 10.2683 11.5463 10.1694 11.6451 10.0233C11.9038 9.64167 12.0869 9.23125 12.1897 8.78601C12.2272 8.62356 12.3217 8.56039 12.5004 8.55867C12.6977 8.55695 12.8949 8.55394 13.0918 8.55996C13.2096 8.5634 13.255 8.51956 13.2528 8.40739C13.2484 8.17661 13.2462 7.9454 13.2537 7.71462C13.2577 7.58268 13.1968 7.54529 13.071 7.54873C12.8689 7.55432 12.6659 7.5526 12.4638 7.54916C12.2599 7.54572 12.1862 7.48813 12.146 7.29732C12.0556 6.871 11.8879 6.47562 11.6491 6.10731C11.522 5.91177 11.5339 5.82109 11.6999 5.66036C11.8349 5.52928 11.9682 5.39606 12.1085 5.27014C12.1933 5.19407 12.1985 5.1339 12.1134 5.05311C11.9426 4.89109 11.7758 4.72477 11.6138 4.55502C11.5291 4.46649 11.4602 4.4652 11.3746 4.55201C11.2427 4.68566 11.105 4.81502 10.9677 4.94395C10.8292 5.07417 10.7281 5.08792 10.5692 4.9895C10.1809 4.74884 9.76342 4.57693 9.31373 4.47551C9.10587 4.42867 9.04939 4.35432 9.0485 4.15319C9.04762 3.96324 9.04321 3.77328 9.05027 3.58376C9.05424 3.47374 9.0207 3.42389 8.89846 3.42689C8.65883 3.43291 8.41876 3.43076 8.17913 3.42775C8.06615 3.42646 8.0154 3.46514 8.01982 3.58161C8.02732 3.7866 8.02335 3.99203 8.02114 4.19745C8.01938 4.36721 7.94568 4.46004 7.77842 4.49012C7.3177 4.5735 6.89405 4.74368 6.49775 4.98177C6.31858 5.08921 6.22017 5.07718 6.07189 4.93664C5.92758 4.79998 5.78195 4.66418 5.64294 4.52278C5.56748 4.44629 5.50481 4.44414 5.42758 4.51763C5.24974 4.68738 5.07101 4.85628 4.88743 5.02045C4.80137 5.09694 4.8177 5.15453 4.8936 5.22415C5.02467 5.34449 5.15089 5.46955 5.27886 5.59332C5.45671 5.76565 5.46686 5.84602 5.33006 6.05015C5.09087 6.40643 4.92361 6.79149 4.82432 7.20406C4.77622 7.40476 4.69325 7.47008 4.47966 7.47223C4.2824 7.47438 4.08513 7.47524 3.88831 7.4718C3.79299 7.47008 3.75327 7.50704 3.75415 7.59858C3.75636 7.84484 3.75636 8.09109 3.75415 8.33734C3.75327 8.43361 3.7921 8.47572 3.89669 8.47272C4.09925 8.46756 4.30181 8.47014 4.50437 8.47143C4.71223 8.47315 4.80137 8.5346 4.84021 8.72671C4.92891 9.16506 5.1072 9.56646 5.35124 9.94379C5.46333 10.117 5.45009 10.2038 5.29872 10.3525C5.16413 10.4844 5.03129 10.6177 4.89007 10.7427C4.79563 10.8261 4.78416 10.8927 4.88125 10.9834C5.05292 11.1441 5.21929 11.3109 5.38125 11.481C5.46465 11.5683 5.5282 11.5558 5.60631 11.478C5.73915 11.3448 5.87595 11.2155 6.0132 11.0861C6.15883 10.949 6.25636 10.9361 6.42405 11.0405C6.8124 11.2816 7.229 11.4544 7.68089 11.5511C7.86404 11.5902 7.93023 11.6727 7.93288 11.8528C7.93553 12.0427 7.93729 12.2327 7.93244 12.4222C7.92979 12.5348 7.97701 12.5804 8.09352 12.5752C8.21355 12.5701 8.33623 12.5744 8.45892 12.5739Z" fill="white"/>
<path d="M4.2921 6.95738C4.45583 6.60669 4.60234 6.28394 4.75901 5.96592C4.79519 5.892 4.79431 5.84903 4.73165 5.79531C4.64074 5.71666 4.55601 5.63071 4.47083 5.54605C4.22944 5.30538 4.21576 4.95813 4.45495 4.71489C4.66721 4.49915 4.89007 4.292 5.12132 4.09474C5.37375 3.87986 5.71532 3.88975 5.96245 4.11021C6.09087 4.22496 6.20561 4.35346 6.30578 4.45445C6.70914 4.29544 7.0816 4.14889 7.48319 3.99031C7.48319 3.8674 7.48187 3.70968 7.48363 3.55238C7.4876 3.18064 7.73165 2.93009 8.1147 2.91892C8.40199 2.91032 8.69016 2.91247 8.97745 2.91978C9.32653 2.9288 9.57233 3.17162 9.58337 3.50984C9.58778 3.64306 9.57763 3.77715 9.58822 3.90952C9.59175 3.95249 9.63059 4.01352 9.66942 4.02942C10.0163 4.16823 10.3667 4.29888 10.7546 4.44672C10.8318 4.36678 10.9329 4.25461 11.0419 4.15018C11.2872 3.91467 11.6513 3.89447 11.9033 4.11881C12.1337 4.3238 12.3543 4.54126 12.5617 4.76818C12.7886 5.01658 12.7652 5.34921 12.5273 5.58945C12.4135 5.7042 12.2259 5.80519 12.2025 5.93455C12.1796 6.06133 12.3301 6.21303 12.3905 6.35915C12.4686 6.54911 12.5366 6.74293 12.6019 6.93761C12.6266 7.0111 12.6593 7.04505 12.7453 7.04204C12.8993 7.03603 13.0547 7.0356 13.2087 7.04591C13.5278 7.0674 13.7687 7.29818 13.7793 7.60374C13.7895 7.90586 13.789 8.20927 13.7775 8.5114C13.7656 8.82641 13.503 9.0645 13.1752 9.07481C13.0105 9.07997 12.8049 9.02539 12.6928 9.10103C12.5829 9.17538 12.5754 9.38338 12.5105 9.52735C12.428 9.71043 12.3283 9.88577 12.2471 10.0693C12.2286 10.1114 12.2383 10.1866 12.2674 10.2218C12.3433 10.3134 12.4382 10.3907 12.5238 10.475C12.774 10.7204 12.7908 11.0633 12.5445 11.3169C12.3336 11.5339 12.109 11.7398 11.8777 11.9366C11.6332 12.1446 11.2745 12.1274 11.0353 11.9117C10.9382 11.824 10.842 11.7346 10.7528 11.6396C10.6937 11.5769 10.6469 11.5696 10.5617 11.6057C10.2511 11.7368 9.93332 11.8515 9.62176 11.9804C9.57763 11.9985 9.52997 12.0591 9.52467 12.1042C9.51099 12.2207 9.52114 12.3397 9.51982 12.4579C9.51452 12.8352 9.25812 13.0879 8.87066 13.0871C8.55115 13.0866 8.23076 13.0883 7.91258 13.0634C7.62661 13.0411 7.432 12.8318 7.40773 12.5546C7.39537 12.4119 7.39669 12.2675 7.40199 12.124C7.40508 12.0419 7.36845 12.0135 7.29387 11.9852C6.98363 11.8657 6.6756 11.741 6.37066 11.6095C6.29608 11.5773 6.24974 11.5704 6.19237 11.6327C6.1147 11.717 6.02864 11.7939 5.9448 11.873C5.67736 12.1253 5.3177 12.1351 5.04586 11.8846C4.8305 11.686 4.62264 11.4789 4.42361 11.2653C4.20075 11.0259 4.21708 10.6757 4.44921 10.4427C4.54497 10.3465 4.6478 10.2567 4.74135 10.1582C4.76827 10.1299 4.79519 10.0723 4.78284 10.0439C4.63014 9.69711 4.46995 9.35287 4.3027 8.98886C4.16942 8.98886 4.00481 8.99101 3.83977 8.98843C3.50084 8.98327 3.23562 8.74776 3.22414 8.42372C3.21355 8.1216 3.21443 7.81819 3.22547 7.51607C3.23738 7.19848 3.50172 6.96168 3.82829 6.95867C3.99334 6.95609 4.15795 6.95738 4.2921 6.95738ZM8.45892 12.5739C8.5869 12.5739 8.71487 12.5722 8.84241 12.5744C8.94171 12.5761 8.98716 12.5387 8.98451 12.4373C8.97922 12.2374 8.98187 12.0372 8.98363 11.8369C8.98496 11.6538 9.04586 11.5726 9.23341 11.5369C9.69855 11.448 10.1262 11.2748 10.5269 11.0337C10.688 10.937 10.785 10.952 10.9254 11.0839C11.0701 11.2202 11.2158 11.356 11.3548 11.4978C11.4342 11.5786 11.4991 11.5838 11.582 11.5038C11.7555 11.3371 11.9311 11.172 12.1121 11.013C12.2043 10.9322 12.1884 10.8721 12.1072 10.7977C11.9647 10.6666 11.8252 10.5321 11.6884 10.3955C11.5609 10.2683 11.5463 10.1694 11.6451 10.0233C11.9038 9.64167 12.0869 9.23125 12.1897 8.78601C12.2272 8.62356 12.3217 8.56039 12.5004 8.55867C12.6977 8.55695 12.8949 8.55394 13.0918 8.55996C13.2096 8.5634 13.255 8.51956 13.2528 8.40739C13.2484 8.17661 13.2462 7.9454 13.2537 7.71462C13.2577 7.58268 13.1968 7.54529 13.071 7.54873C12.8689 7.55432 12.6659 7.5526 12.4638 7.54916C12.2599 7.54572 12.1862 7.48813 12.146 7.29732C12.0556 6.871 11.8879 6.47562 11.6491 6.10731C11.522 5.91177 11.5339 5.82109 11.6999 5.66036C11.8349 5.52928 11.9682 5.39606 12.1085 5.27014C12.1933 5.19407 12.1985 5.1339 12.1134 5.05311C11.9426 4.89109 11.7758 4.72477 11.6138 4.55502C11.5291 4.46649 11.4602 4.4652 11.3746 4.55201C11.2427 4.68566 11.105 4.81502 10.9677 4.94395C10.8292 5.07417 10.7281 5.08792 10.5692 4.9895C10.1809 4.74884 9.76342 4.57693 9.31373 4.47551C9.10587 4.42867 9.04939 4.35432 9.0485 4.15319C9.04762 3.96324 9.04321 3.77328 9.05027 3.58376C9.05424 3.47374 9.0207 3.42389 8.89846 3.42689C8.65883 3.43291 8.41876 3.43076 8.17913 3.42775C8.06615 3.42646 8.0154 3.46514 8.01982 3.58161C8.02732 3.7866 8.02335 3.99203 8.02114 4.19745C8.01938 4.36721 7.94568 4.46004 7.77842 4.49012C7.3177 4.5735 6.89405 4.74368 6.49775 4.98177C6.31858 5.08921 6.22017 5.07718 6.07189 4.93664C5.92758 4.79998 5.78195 4.66418 5.64294 4.52278C5.56748 4.44629 5.50481 4.44414 5.42758 4.51763C5.24974 4.68738 5.07101 4.85628 4.88743 5.02045C4.80137 5.09694 4.8177 5.15453 4.8936 5.22415C5.02467 5.34449 5.15089 5.46955 5.27886 5.59332C5.45671 5.76565 5.46686 5.84602 5.33006 6.05015C5.09087 6.40643 4.92361 6.79149 4.82432 7.20406C4.77622 7.40476 4.69325 7.47008 4.47966 7.47223C4.2824 7.47438 4.08513 7.47524 3.88831 7.4718C3.79299 7.47008 3.75327 7.50704 3.75415 7.59858C3.75636 7.84484 3.75636 8.09109 3.75415 8.33734C3.75327 8.43361 3.7921 8.47572 3.89669 8.47272C4.09925 8.46756 4.30181 8.47014 4.50437 8.47143C4.71223 8.47315 4.80137 8.5346 4.84021 8.72671C4.92891 9.16506 5.1072 9.56646 5.35124 9.94379C5.46333 10.117 5.45009 10.2038 5.29872 10.3525C5.16413 10.4844 5.03129 10.6177 4.89007 10.7427C4.79563 10.8261 4.78416 10.8927 4.88125 10.9834C5.05292 11.1441 5.21929 11.3109 5.38125 11.481C5.46465 11.5683 5.5282 11.5558 5.60631 11.478C5.73915 11.3448 5.87595 11.2155 6.0132 11.0861C6.15883 10.949 6.25636 10.9361 6.42405 11.0405C6.8124 11.2816 7.229 11.4544 7.68089 11.5511C7.86404 11.5902 7.93023 11.6727 7.93288 11.8528C7.93553 12.0427 7.93729 12.2327 7.93244 12.4222C7.92979 12.5348 7.97701 12.5804 8.09352 12.5752C8.21355 12.5701 8.33623 12.5744 8.45892 12.5739Z" stroke="white" stroke-width="0.4" mask="url(#path-2-outside-1_378_255)"/>
<path d="M0.754371 5.7751L0.754312 5.77513C0.659872 5.81674 0.561128 5.82695 0.470869 5.80092C0.379812 5.77466 0.304866 5.71352 0.257376 5.62683M0.754371 5.7751L8.94921 15.6102C9.09572 15.6085 9.19413 15.4869 9.1884 15.3528M0.754371 5.7751C0.812379 5.7495 0.870263 5.72217 0.930789 5.69298L0.754371 5.7751ZM0.257376 5.62683C0.209514 5.53963 0.198019 5.44213 0.230052 5.35118C0.261844 5.26091 0.332411 5.18842 0.427607 5.14112M0.257376 5.62683C0.257385 5.62685 0.257393 5.62687 0.257402 5.62688L0.34506 5.57875L0.257351 5.62679C0.25736 5.6268 0.257368 5.62682 0.257376 5.62683ZM0.427607 5.14112C0.427627 5.14111 0.427647 5.1411 0.427668 5.14109L0.472156 5.23065L0.427545 5.14115C0.427566 5.14114 0.427586 5.14113 0.427607 5.14112ZM0.427607 5.14112C0.763686 4.9736 1.10204 4.80993 1.44266 4.65096L1.44267 4.65096C1.53906 4.60598 1.64054 4.59269 1.73458 4.62343C1.82938 4.65441 1.90217 4.72544 1.94897 4.8209L1.94899 4.82095C2.11716 5.16442 2.27999 5.51087 2.43749 5.85899L2.4375 5.859C2.47964 5.95219 2.48547 6.04918 2.45041 6.13631C2.41565 6.22269 2.34548 6.28759 2.25764 6.32707L2.25751 6.32712C2.16569 6.36825 2.06835 6.3756 1.9786 6.34286C1.88923 6.31026 1.81802 6.24183 1.77022 6.15087C1.74466 6.10223 1.7205 6.04871 1.69798 5.99881C1.68597 5.97219 1.67442 5.94661 1.66338 5.92334L1.66317 5.9229L1.66317 5.9229C1.65685 5.90942 1.6505 5.896 1.64403 5.88241C1.63306 5.91313 1.62216 5.94361 1.61135 5.97387C1.53841 6.1779 1.46894 6.37226 1.4022 6.56809L1.40218 6.56816C0.912365 8.0021 1.14001 9.39436 1.76198 10.7421C2.67108 12.7119 4.22976 14.0133 6.36004 14.6828C7.13873 14.9275 7.94472 15.0258 8.76706 15.0122L8.76725 15.0122C8.77922 15.012 8.7921 15.0116 8.80564 15.0112C8.85073 15.01 8.90311 15.0085 8.95317 15.013C9.13892 15.0294 9.28067 15.1646 9.2883 15.3485C9.28831 15.3486 9.28831 15.3486 9.28831 15.3487L9.1884 15.3528M9.1884 15.3528C9.1831 15.2239 9.08513 15.125 8.94435 15.1126C8.90068 15.1087 8.85676 15.1099 8.81278 15.1111C8.7981 15.1115 8.78341 15.1119 8.76871 15.1121C7.93729 15.1259 7.12043 15.0266 6.33005 14.7782C4.17516 14.1009 2.59307 12.7815 1.67118 10.784C1.04188 9.42039 0.807107 8.00089 1.30755 6.53583C1.37452 6.33932 1.44442 6.14376 1.51751 5.93927C1.53908 5.87895 1.56091 5.81786 1.58304 5.75573L9.1884 15.3528ZM2.21664 6.23586C2.07366 6.29989 1.93553 6.25047 1.85874 6.10435C1.83434 6.05793 1.8128 6.01012 1.79127 5.96235C1.77892 5.93494 1.76658 5.90755 1.75371 5.88045C1.73419 5.83881 1.71425 5.79745 1.69126 5.74987L2.21664 6.23586ZM2.21664 6.23586C2.35433 6.17397 2.4117 6.04462 2.34638 5.90022C2.18928 5.55297 2.02688 5.20744 1.85918 4.86492C1.7846 4.71279 1.64338 4.66766 1.48495 4.74158L2.21664 6.23586Z" fill="white" stroke="white" stroke-width="0.2"/>
<path d="M15.7853 2.88522C15.7794 2.67941 15.5889 2.54831 15.4146 2.55172L15.4144 2.55172L15.7853 2.88522ZM15.7853 2.88522L15.6853 2.88807L15.7853 2.8852C15.7853 2.8852 15.7853 2.88521 15.7853 2.88522ZM15.0543 2.97752C15.0546 2.95399 15.0552 2.93099 15.0563 2.90821C15.0563 2.90821 15.0563 2.9082 15.0563 2.9082L15.0543 2.97752ZM15.0543 2.97752C14.5907 2.48104 14.0723 2.04308 13.496 1.67079L13.496 1.67078C11.6822 0.499589 9.69587 -0.0647209 7.50053 0.215895L7.50052 0.215897C5.47913 0.474568 3.78339 1.35238 2.42191 2.8178C2.31427 2.9335 2.20825 3.05471 2.11248 3.18394L2.11238 3.18408C1.9902 3.34957 2.03463 3.55252 2.18733 3.66617M15.0543 2.97752L15.7906 4.04381C15.7888 4.14556 15.734 4.22919 15.6617 4.2846C15.5896 4.33987 15.4953 4.37167 15.3974 4.37275L15.3972 4.37275C15.0025 4.37663 14.6073 4.37663 14.2126 4.37275C13.9917 4.3706 13.8172 4.22146 13.821 4.00795C13.8228 3.90562 13.8663 3.81572 13.9411 3.75251C14.0148 3.6903 14.1133 3.65835 14.2212 3.65705C14.3703 3.65527 14.5202 3.65573 14.6691 3.6562C14.6784 3.65623 14.6878 3.65625 14.6972 3.65628C14.6587 3.61616 14.6206 3.5761 14.5827 3.53621C14.4161 3.36093 14.2525 3.18884 14.0739 3.02817C12.8157 1.89689 11.3435 1.15412 9.64034 0.942501L9.65267 0.843264L9.64033 0.942501C6.8751 0.598881 4.57688 1.47495 2.76569 3.52485C2.76 3.53135 2.75295 3.53995 2.74492 3.54974C2.72311 3.57634 2.69408 3.61176 2.66534 3.63796M2.18733 3.66617C2.1873 3.66614 2.18727 3.66612 2.18724 3.6661L2.2471 3.586L2.18742 3.66624C2.18739 3.66621 2.18736 3.66619 2.18733 3.66617ZM2.18733 3.66617C2.32786 3.77113 2.53379 3.75795 2.66534 3.63796M2.66534 3.63796C2.66533 3.63797 2.66532 3.63798 2.66531 3.63799L2.59794 3.56408L2.66534 3.63796ZM2.19283 3.24348C2.2855 3.11842 2.38877 3.00023 2.49512 2.88592C3.84066 1.43762 5.51498 0.570795 7.51321 0.315088C9.68179 0.0378919 11.6447 0.594432 13.4417 1.75479L2.19283 3.24348Z" fill="white" stroke="white" stroke-width="0.2"/>
<path d="M6.0228 8.06777L6.02311 8.06777C6.02081 6.82704 6.99652 5.79563 8.23172 5.6868L8.23173 5.6868C8.37708 5.67401 8.53023 5.66967 8.67998 5.68755L8.68009 5.68756C8.7815 5.69978 8.86939 5.73395 8.93105 5.79877C8.99416 5.8651 9.01743 5.95043 9.01431 6.03869L6.0228 8.06777ZM6.0228 8.06777L6.02344 8.0757M6.0228 8.06777L6.02344 8.0757M6.02344 8.0757C6.02469 8.09098 6.0256 8.11184 6.02668 8.13642C6.02957 8.20246 6.03365 8.2954 6.04846 8.37936L6.04859 8.38006C6.37182 10.138 8.45603 10.9586 9.9617 9.93685C10.9396 9.27333 11.2838 8.03087 10.7579 7.01104M6.02344 8.0757L10.7579 7.01104M8.66812 5.78685C8.52779 5.77009 8.38216 5.77395 8.2405 5.78642L8.66812 5.78685ZM8.66812 5.78685C8.84288 5.8079 8.91923 5.89858 8.91437 6.03525L8.66812 5.78685ZM8.64999 6.37633L8.64998 6.37633C8.57745 6.38598 8.50641 6.39375 8.43677 6.40137C8.24319 6.42255 8.06042 6.44255 7.8867 6.49833L7.85612 6.40312L7.8868 6.4983C7.1739 6.72809 6.69385 7.43795 6.75534 8.10264C6.82881 8.89309 7.4012 9.50569 8.18546 9.63291L8.18548 9.63292C9.18488 9.79526 10.0647 9.21244 10.2429 8.27792L10.2429 8.27789C10.3085 7.93438 10.2521 7.601 10.0819 7.28574L8.64999 6.37633ZM8.64999 6.37633C8.74746 6.36335 8.83677 6.33366 8.90391 6.27656M8.64999 6.37633L8.90391 6.27656M10.7579 7.01104C10.7579 7.01106 10.758 7.01109 10.758 7.01111L10.669 7.05679M10.7579 7.01104C10.7579 7.01101 10.7579 7.01098 10.7579 7.01096L10.669 7.05679M10.669 7.05679C11.1703 8.02891 10.8442 9.2172 9.90555 9.8541C8.45586 10.8378 6.4563 10.0445 6.14694 8.36197L6.65577 8.11185C6.73344 8.94774 7.34023 9.59711 8.16945 9.73162C9.21711 9.90181 10.1518 9.2894 10.3411 8.29665C10.4113 7.9292 10.3504 7.5725 10.1699 7.23815C10.1094 7.12641 10.109 7.00264 10.2171 6.93302C10.2939 6.8836 10.4161 6.86426 10.507 6.88274C10.5715 6.89606 10.6333 6.98717 10.669 7.05679ZM8.90391 6.27656C8.97443 6.2166 9.011 6.13443 9.01431 6.03874L8.90391 6.27656Z" fill="white" stroke="white" stroke-width="0.2"/>
<path d="M9.77704 6.84871L9.71286 6.80396C9.66032 6.76732 9.61213 6.73593 9.56404 6.70461C9.52912 6.68187 9.49426 6.65916 9.45784 6.63451C9.37594 6.57909 9.2959 6.51996 9.22596 6.4485L9.29742 6.37855L9.2263 6.44885C9.19308 6.41524 9.18155 6.37211 9.17711 6.34094C9.17236 6.3075 9.1736 6.27227 9.17768 6.23975C9.18571 6.17581 9.20703 6.10489 9.23738 6.05251L9.3239 6.10264L9.23727 6.0527C9.32419 5.90192 9.50732 5.86326 9.662 5.93945L9.66228 5.93959L9.66228 5.93959C9.77728 5.99668 9.89417 6.06149 10.0009 6.13977L10.0011 6.1399C10.0649 6.18697 10.1142 6.25149 10.1335 6.3279C10.1532 6.40617 10.1392 6.48835 10.091 6.56159L9.77704 6.84871ZM9.77704 6.84871L9.83592 6.79718M9.77704 6.84871L9.83592 6.79718M9.83592 6.79718C9.86513 6.77162 9.89116 6.75113 9.9179 6.73008M9.83592 6.79718L9.9179 6.73008M9.9179 6.73008C9.93434 6.71714 9.95104 6.704 9.96892 6.68933M9.9179 6.73008L9.96892 6.68933M9.96892 6.68933C10.0117 6.65422 10.0568 6.61357 10.091 6.56162L9.96892 6.68933Z" fill="white" stroke="white" stroke-width="0.2"/>
</svg>
