<svg width="72" height="71" viewBox="0 0 72 71" fill="none" xmlns="http://www.w3.org/2000/svg">
<g filter="url(#filter0_d_755_34)">
<rect x="9" y="5" width="54" height="54" rx="27" fill="black"/>
</g>
<g clip-path="url(#clip0_755_34)">
<path d="M52.2978 31.7508C52.2638 31.8357 52.2255 31.9191 52.1949 32.0057C51.9057 32.8347 51.1428 33.3912 50.254 33.4212C49.4052 33.4495 48.6278 32.948 48.2697 32.1598C48.2246 32.0615 48.0954 31.9332 48.0035 31.9324C46.7626 31.9182 45.5208 31.9232 44.279 31.9257C44.2484 31.9257 44.2186 31.9399 44.2229 31.9391C43.8248 32.9763 43.4344 33.9919 43.0338 35.0358C43.1308 35.04 43.2397 35.0492 43.3494 35.0492C44.7179 35.05 46.0873 35.0492 47.4558 35.05C48.0528 35.0508 48.2008 35.1966 48.2008 35.7923C48.2025 37.4453 48.2051 39.0974 48.1966 40.7504C48.1957 40.9662 48.2544 41.0736 48.4696 41.1619C49.469 41.5743 49.9597 42.6224 49.6493 43.6264C49.3414 44.622 48.3259 45.2377 47.3052 45.0477C46.2055 44.8436 45.457 43.928 45.5616 42.8607C45.6407 42.0517 46.0983 41.4852 46.8434 41.1286C46.942 41.082 47.0645 40.952 47.0654 40.8595C47.0781 39.3315 47.0739 37.8035 47.0722 36.2764C47.0722 36.2472 47.0569 36.2181 47.0424 36.1673C46.942 36.1623 46.8391 36.1514 46.7362 36.1514C45.3677 36.1506 43.9984 36.1548 42.6298 36.1464C42.4164 36.1448 42.2871 36.2089 42.1638 36.3847C40.694 38.4659 38.7097 39.9014 36.3121 40.8012C36.125 40.8712 35.8639 40.867 35.675 40.7979C33.2391 39.9031 31.2098 38.4826 29.746 36.3422C29.6856 36.2539 29.5521 36.1606 29.4517 36.1598C28.0407 36.1489 26.6296 36.1531 25.2186 36.1548C25.1786 36.1548 25.1395 36.1731 25.0647 36.1922C25.0647 36.2939 25.0647 36.3955 25.0647 36.4963C25.0647 37.9102 25.0681 39.3232 25.0604 40.737C25.0596 40.9462 25.1012 41.0636 25.3249 41.1528C26.2554 41.526 26.7564 42.4758 26.5599 43.4364C26.3668 44.3812 25.4678 45.0952 24.4812 45.0869C23.5167 45.0785 22.6321 44.372 22.4476 43.4614C22.2477 42.4733 22.7402 41.5319 23.6843 41.1528C23.9054 41.0636 23.9522 40.9487 23.9505 40.7379C23.9428 39.0849 23.9454 37.4328 23.9471 35.7798C23.9471 35.1883 24.0917 35.0483 24.6998 35.0475C26.0998 35.0467 27.4997 35.0475 28.9456 35.0475C28.9091 34.9375 28.8853 34.8542 28.8546 34.7734C28.5195 33.8903 28.1785 33.0088 27.8536 32.1223C27.7957 31.9657 27.7209 31.9166 27.5584 31.9174C26.3804 31.9232 25.2024 31.9232 24.0253 31.9166C23.8578 31.9157 23.7931 31.9807 23.731 32.1248C23.3126 33.093 22.3744 33.572 21.3334 33.3637C20.4072 33.1779 19.7072 32.3323 19.7012 31.3925C19.6953 30.3811 20.3757 29.5613 21.398 29.3472C22.3506 29.148 23.3253 29.6646 23.7293 30.571C23.7719 30.6669 23.879 30.8035 23.9573 30.8043C25.1336 30.8193 26.3098 30.8143 27.4912 30.8143C27.3262 29.7671 27.1655 28.7448 26.9988 27.6884C26.343 27.6884 25.677 27.6884 25.0102 27.6884C24.8937 27.6884 24.7772 27.6892 24.6598 27.6884C24.1282 27.6859 23.9488 27.5176 23.9479 27.0019C23.9454 25.7646 23.9471 24.5283 23.9471 23.291C23.9471 23.0828 23.9275 22.8728 23.9513 22.6679C24.0049 22.2113 23.896 21.9264 23.4104 21.6922C22.5641 21.2848 22.2205 20.2817 22.4918 19.3903C22.7665 18.4872 23.6281 17.8748 24.5714 17.9123C25.5291 17.9498 26.3566 18.6379 26.5548 19.5602C26.7453 20.4484 26.2665 21.4131 25.3921 21.8056C25.1191 21.928 25.0553 22.0697 25.0579 22.3396C25.0715 23.6285 25.0638 24.9173 25.0638 26.2062C25.0638 26.3179 25.0638 26.4295 25.0638 26.5586C25.6864 26.5586 26.275 26.5586 26.9001 26.5586C26.8729 26.1895 26.8482 25.8321 26.8193 25.4739C26.7861 25.0598 26.7436 24.6466 26.7155 24.2317C26.673 23.6043 26.9452 23.3994 27.5771 23.4685C28.2907 23.546 29.0145 23.6201 29.729 23.586C31.9361 23.4802 33.7511 22.5337 35.2472 20.9699C35.8622 20.3276 36.0068 20.3217 36.6455 20.9399C37.8779 22.1338 39.2626 23.0769 40.9807 23.4785C42.117 23.7434 43.2524 23.6943 44.3879 23.4893C45.0454 23.3702 45.3116 23.606 45.2529 24.2483C45.184 25.0115 45.1364 25.7763 45.0785 26.5595C45.7496 26.5595 46.3917 26.5595 47.056 26.5595C47.062 26.4645 47.0739 26.3745 47.0739 26.2845C47.0747 24.9332 47.0688 23.5818 47.0807 22.2313C47.0824 22.0197 47.0118 21.928 46.8187 21.843C45.8236 21.4073 45.3286 20.3492 45.6424 19.3678C45.9478 18.413 46.9769 17.7706 47.9372 17.9348C49.0556 18.1256 49.8024 18.992 49.7394 20.0768C49.691 20.9041 49.2563 21.509 48.4764 21.8347C48.2425 21.9322 48.1949 22.0505 48.1957 22.2746C48.2051 23.8234 48.2008 25.3722 48.2 26.9202C48.2 27.5434 48.0486 27.6884 47.4081 27.6884C46.6758 27.6884 45.9435 27.6917 45.2121 27.6859C45.0454 27.685 44.9399 27.7025 44.9101 27.9042C44.7723 28.8273 44.6184 29.7479 44.4712 30.6702C44.4653 30.7085 44.4704 30.7493 44.4704 30.8152C45.0556 30.8152 45.6271 30.8152 46.1987 30.8152C46.5704 30.8152 46.9429 30.796 47.3129 30.8193C47.8368 30.8526 48.2085 30.801 48.4977 30.2253C48.8693 29.4838 49.6442 29.228 50.4777 29.3322C51.2874 29.4338 51.8496 29.892 52.1643 30.6344C52.2077 30.736 52.2528 30.836 52.297 30.9368C52.2978 31.2101 52.2978 31.4808 52.2978 31.7508ZM27.9071 24.6591C27.9071 24.7657 27.9012 24.8474 27.908 24.9273C27.9692 25.6205 28.0288 26.3137 28.0968 27.0052C28.272 28.7731 28.5535 30.5219 29.0664 32.2298C30.1194 35.7365 32.2687 38.2901 35.789 39.6498C35.9021 39.6931 36.0714 39.7114 36.1701 39.6598C37.0282 39.2124 37.9239 38.8141 38.7191 38.2734C40.8752 36.8088 42.1246 34.7084 42.8799 32.2923C43.5663 30.0961 43.824 27.8292 44.0239 25.5539C44.0502 25.2573 44.0689 24.9607 44.0919 24.6549C40.8684 25.0915 38.2539 23.9284 35.9787 21.8572C33.7767 24.1592 31.0584 24.9565 27.9071 24.6591ZM51.1675 31.3767C51.1726 30.8401 50.7618 30.4302 50.2166 30.4269C49.6739 30.4236 49.2436 30.831 49.2385 31.355C49.2334 31.8716 49.668 32.309 50.1945 32.3148C50.7286 32.3206 51.1624 31.9024 51.1675 31.3767ZM20.8324 31.36C20.8307 31.8891 21.2534 32.3115 21.7884 32.314C22.314 32.3165 22.7589 31.8857 22.7614 31.3709C22.764 30.8451 22.3404 30.4286 21.7995 30.4269C21.2526 30.4244 20.8341 30.8276 20.8324 31.36ZM48.6286 43.0315C48.6278 42.5016 48.2068 42.0926 47.6641 42.0926C47.1258 42.0934 46.6937 42.5133 46.6945 43.034C46.6954 43.5472 47.1402 43.9788 47.6667 43.978C48.2025 43.978 48.6295 43.5581 48.6286 43.0315ZM24.4863 20.9099C25.0298 20.9116 25.4525 20.5025 25.4542 19.9735C25.4568 19.4469 25.0315 19.0254 24.4957 19.0237C23.9675 19.022 23.5226 19.4511 23.5201 19.9643C23.5167 20.4859 23.9496 20.9083 24.4863 20.9099ZM24.5067 42.0926C23.9675 42.0884 23.5286 42.5016 23.5201 43.0198C23.5124 43.5272 23.9581 43.9721 24.4803 43.978C25.0162 43.9838 25.4517 43.5689 25.4593 43.0457C25.467 42.5183 25.046 42.0967 24.5067 42.0926ZM47.6735 20.9099C48.2119 20.9083 48.6371 20.49 48.6337 19.9635C48.6303 19.4394 48.1991 19.0212 47.6633 19.0237C47.1394 19.0262 46.692 19.4644 46.6954 19.9743C46.6979 20.4942 47.1351 20.9116 47.6735 20.9099Z" fill="white"/>
<path d="M38.1731 29.8704C38.1731 30.8327 37.6611 31.6091 36.8293 31.9316C36.6048 32.0182 36.5563 32.129 36.5605 32.339C36.5733 32.9622 36.5707 33.5854 36.5682 34.2086C36.5665 34.6043 36.3343 34.8609 35.9958 34.8542C35.6675 34.8476 35.4412 34.5993 35.437 34.2227C35.4302 33.5787 35.4259 32.9347 35.4361 32.2907C35.4387 32.1074 35.3817 32.0249 35.2022 31.9549C34.1782 31.5525 33.6449 30.5819 33.8439 29.5213C34.0242 28.5632 34.925 27.83 35.9464 27.8109C37.0037 27.7909 37.8857 28.4699 38.1289 29.498C38.1629 29.6471 38.1655 29.8046 38.1731 29.8704ZM37.0504 29.9954C37.076 29.4163 36.6243 28.9323 36.0306 28.9039C35.4574 28.8764 34.9488 29.3388 34.919 29.9145C34.8909 30.4752 35.3698 30.9843 35.9473 31.0051C36.5342 31.0259 37.0249 30.5777 37.0504 29.9954Z" fill="white"/>
</g>
<defs>
<filter id="filter0_d_755_34" x="0.900001" y="0.5" width="70.2" height="70.2" filterUnits="userSpaceOnUse" color-interpolation-filters="sRGB">
<feFlood flood-opacity="0" result="BackgroundImageFix"/>
<feColorMatrix in="SourceAlpha" type="matrix" values="0 0 0 0 0 0 0 0 0 0 0 0 0 0 0 0 0 0 127 0" result="hardAlpha"/>
<feOffset dy="3.6"/>
<feGaussianBlur stdDeviation="4.05"/>
<feComposite in2="hardAlpha" operator="out"/>
<feColorMatrix type="matrix" values="0 0 0 0 0 0 0 0 0 0 0 0 0 0 0 0 0 0 0.05 0"/>
<feBlend mode="normal" in2="BackgroundImageFix" result="effect1_dropShadow_755_34"/>
<feBlend mode="normal" in="SourceGraphic" in2="effect1_dropShadow_755_34" result="shape"/>
</filter>
<clipPath id="clip0_755_34">
<rect width="34" height="29" fill="white" transform="translate(19 17)"/>
</clipPath>
</defs>
</svg>
