<svg width="72" height="71" viewBox="0 0 72 71" fill="none" xmlns="http://www.w3.org/2000/svg">
<g filter="url(#filter0_d_755_26)">
<rect x="9" y="5" width="54" height="54" rx="27" fill="black"/>
</g>
<g clip-path="url(#clip0_755_26)">
<path d="M37.6077 32.5625C37.7976 32.5625 37.9366 32.5625 38.0747 32.5625C42.8547 32.5625 47.6347 32.5625 52.4147 32.5625C53.1061 32.5625 53.2388 32.6979 53.2388 33.4022C53.2388 34.9145 53.1988 36.4285 53.2524 37.9389C53.2915 39.0458 52.452 39.8446 51.3753 39.8337C47.6892 39.7964 44.0022 39.8191 40.3152 39.8191C40.1762 39.8191 40.0363 39.8191 39.8691 39.8191C39.8691 41.3005 39.8691 42.77 39.8691 44.2885C40.3652 44.2885 40.8722 44.2876 41.3792 44.2885C41.888 44.2903 42.0724 44.4721 42.0733 44.9783C42.0752 45.6417 42.0761 46.3042 42.0733 46.9676C42.0715 47.4356 41.8816 47.6347 41.4273 47.6356C38.1356 47.6374 34.8447 47.6374 31.553 47.6356C31.1123 47.6356 30.9143 47.4375 30.9115 46.9985C30.9079 46.3006 30.907 45.6026 30.9115 44.9047C30.9143 44.4903 31.1178 44.2931 31.5394 44.2894C32.06 44.2849 32.5815 44.2885 33.123 44.2885C33.123 42.7918 33.123 41.3223 33.123 39.8191C32.9731 39.8191 32.8368 39.8191 32.7005 39.8191C28.9908 39.8191 25.2802 39.8191 21.5705 39.8191C20.4239 39.8191 19.7461 39.1457 19.7461 38.0052C19.7461 31.5838 19.7461 25.1623 19.7461 18.7418C19.7461 17.6013 20.423 16.9288 21.5696 16.9279C26.664 16.9279 31.7574 16.9279 36.8518 16.9279C37.4478 16.9279 37.6077 17.0896 37.6077 17.6958C37.6077 22.5005 37.6077 27.3043 37.6077 32.109C37.6077 32.2463 37.6077 32.3844 37.6077 32.5625ZM20.86 21.4081C20.86 21.5145 20.86 21.5935 20.86 21.6735C20.86 27.1053 20.86 32.538 20.8609 37.9698C20.8609 38.5041 21.0626 38.7041 21.6023 38.7041C31.5221 38.705 41.4419 38.705 51.3626 38.7041C51.9259 38.7041 52.124 38.5096 52.1249 37.9552C52.1267 37.0483 52.1258 36.1404 52.1258 35.2334C52.1258 34.7254 52.1258 34.2165 52.1258 33.6767C51.9541 33.6767 51.8169 33.6767 51.6806 33.6767C46.8661 33.6767 42.0515 33.6767 37.237 33.6767C36.6601 33.6767 36.4956 33.5104 36.4956 32.9297C36.4956 29.2309 36.4956 25.5313 36.4956 21.8325C36.4956 21.6962 36.4956 21.5608 36.4956 21.4091C31.2741 21.4081 26.0925 21.4081 20.86 21.4081ZM36.4774 18.042C36.3475 18.042 36.2448 18.042 36.1422 18.042C31.3049 18.042 26.4668 18.042 21.6296 18.042C21.5369 18.042 21.417 18.012 21.3561 18.0584C21.1825 18.1902 20.9127 18.3419 20.8963 18.5073C20.84 19.0889 20.8745 19.6787 20.8745 20.2604C26.097 20.2604 31.2786 20.2604 36.4765 20.2604C36.4774 19.5252 36.4774 18.8081 36.4774 18.042ZM34.2732 44.264C35.7706 44.264 37.2388 44.264 38.6989 44.264C38.6989 42.77 38.6989 41.3014 38.6989 39.8382C38.141 39.8382 37.6104 39.8382 37.0489 39.8382C37.0489 40.3999 37.058 40.9442 37.0462 41.4877C37.0362 41.9312 36.5974 42.2165 36.2512 41.9793C36.0922 41.8703 35.965 41.6149 35.9496 41.4168C35.9078 40.8906 35.9359 40.3599 35.9359 39.8391C35.349 39.8391 34.8193 39.8391 34.2742 39.8391C34.2732 41.3177 34.2732 42.7781 34.2732 44.264ZM40.9349 46.506C40.9349 46.127 40.9349 45.7744 40.9349 45.43C37.953 45.43 34.9965 45.43 32.0436 45.43C32.0436 45.8016 32.0436 46.1461 32.0436 46.506C35.0101 46.506 37.9593 46.506 40.9349 46.506Z" fill="white"/>
<path d="M46.6465 21.9524C47.198 21.9524 47.6623 21.9688 48.1239 21.9397C48.2311 21.9334 48.3556 21.7889 48.4255 21.6789C48.8189 21.0573 49.3786 20.7592 50.1036 20.8474C50.7842 20.9301 51.2548 21.3272 51.482 21.9752C51.7672 22.7894 51.3638 23.6891 50.5779 24.0408C49.7875 24.3943 48.8562 24.1053 48.4437 23.3365C48.3201 23.1057 48.1838 23.0602 47.9576 23.063C47.1671 23.0721 46.3758 23.0575 45.5853 23.0711C45.3082 23.0757 45.0992 22.9912 44.9066 22.7931C44.3551 22.226 43.7791 21.6834 43.2376 21.1073C43.0331 20.8892 42.8233 20.8246 42.538 20.8274C41.2841 20.8401 40.0294 20.8328 38.752 20.8328C38.752 20.4593 38.752 20.1076 38.752 19.7187C39.07 19.7187 39.3807 19.7187 39.6914 19.7187C40.8081 19.7187 41.9238 19.725 43.0404 19.7141C43.3184 19.7114 43.5265 19.7986 43.7173 19.9967C44.2579 20.5575 44.8103 21.1064 45.3836 21.6871C45.8761 21.1145 46.3512 20.5647 46.8237 20.0131C47.2925 19.466 47.7659 18.9217 48.2247 18.3664C48.4192 18.131 48.6408 18.0056 48.9479 18.042C49.017 18.0501 49.0879 18.0392 49.1569 18.0438C49.6248 18.0756 49.9992 18.0592 50.3026 17.5439C50.6715 16.9178 51.5228 16.7706 52.2024 17.0505C52.8939 17.334 53.2982 18.0129 53.2355 18.779C53.1783 19.4669 52.6395 20.0694 51.9299 20.2376C51.2457 20.4002 50.5089 20.084 50.13 19.466C49.8838 19.0643 49.1696 19.0116 48.8562 19.377C48.1357 20.213 47.4197 21.0509 46.6465 21.9524ZM51.551 19.157C51.8381 19.1643 52.1107 18.9053 52.1207 18.6145C52.1307 18.3291 51.8681 18.0538 51.5792 18.0447C51.2939 18.0356 51.0186 18.2991 51.0095 18.5872C51.0004 18.8735 51.263 19.1488 51.551 19.157ZM49.9047 21.9543C49.6167 21.9461 49.345 22.2051 49.3359 22.4959C49.3268 22.7822 49.5867 23.0566 49.8774 23.0657C50.1636 23.0748 50.438 22.8131 50.4471 22.5241C50.4544 22.2378 50.1927 21.9624 49.9047 21.9543Z" fill="white"/>
<path d="M38.747 29.7707C38.8924 29.7707 39.0178 29.7707 39.1431 29.7707C41.5954 29.7707 44.0485 29.7671 46.5008 29.7761C46.7333 29.7771 46.8869 29.7107 47.0277 29.5262C47.4157 29.0182 47.8164 28.5202 48.2225 28.0267C48.3515 27.8704 48.3906 27.7468 48.3143 27.5351C47.9863 26.6181 48.4851 25.653 49.4045 25.3704C50.3231 25.0887 51.2626 25.6185 51.5179 26.5618C51.7623 27.4624 51.2026 28.3921 50.2641 28.6075C50.0433 28.6583 49.7898 28.6756 49.5763 28.6174C49.3146 28.5466 49.1792 28.6129 49.0248 28.8156C48.5668 29.4154 48.0998 30.0115 47.6038 30.5804C47.4693 30.734 47.2194 30.8703 47.0214 30.8712C44.3247 30.8903 41.6281 30.884 38.9314 30.883C38.876 30.883 38.8197 30.8758 38.7461 30.8712C38.747 30.5123 38.747 30.1678 38.747 29.7707ZM49.8897 27.5333C50.1768 27.5342 50.4458 27.2661 50.4458 26.9789C50.4467 26.6917 50.1787 26.4218 49.8915 26.4218C49.6026 26.4218 49.3364 26.6872 49.3355 26.9762C49.3346 27.2634 49.6017 27.5324 49.8897 27.5333Z" fill="white"/>
<path d="M38.7441 23.6256C38.7441 23.2484 38.7441 22.9049 38.7441 22.5314C38.8432 22.525 38.9431 22.5123 39.0431 22.5123C40.3787 22.5114 41.7152 22.4996 43.0499 22.5232C43.267 22.5268 43.5132 22.6459 43.6886 22.784C43.9784 23.0121 44.231 23.292 44.4809 23.5665C44.6217 23.721 44.7425 23.7646 44.957 23.6992C45.861 23.4256 46.7696 23.9345 47.0339 24.8388C47.2956 25.733 46.7877 26.6545 45.8792 26.9117C45.2577 27.0871 44.7007 26.9435 44.2446 26.4918C43.7985 26.0511 43.6313 25.5004 43.8076 24.896C43.8867 24.6252 43.7903 24.4962 43.6413 24.2999C43.2161 23.7364 42.6864 23.5656 41.9896 23.6092C41.0292 23.6692 40.0625 23.6246 39.0985 23.6246C38.9867 23.6256 38.8741 23.6256 38.7441 23.6256ZM45.98 25.2986C45.9773 25.0096 45.7093 24.7443 45.4212 24.7461C45.1341 24.7479 44.867 25.0178 44.8688 25.305C44.8706 25.5922 45.1414 25.8602 45.4276 25.8575C45.7165 25.8557 45.9827 25.5858 45.98 25.2986Z" fill="white"/>
<path d="M38.7344 18.6C38.7344 18.211 38.7344 17.8757 38.7344 17.4858C38.8625 17.4858 38.9842 17.4858 39.1069 17.4858C40.3853 17.4858 41.6645 17.4822 42.9429 17.4895C43.1564 17.4904 43.2918 17.4549 43.4072 17.2377C43.7724 16.5507 44.5411 16.2281 45.267 16.4162C46.0202 16.6107 46.5308 17.2496 46.539 18.0066C46.5481 18.7981 46.0638 19.4452 45.3024 19.6587C44.5801 19.8614 43.7969 19.5579 43.4244 18.8808C43.2945 18.6436 43.1528 18.5936 42.9084 18.5955C41.6527 18.6064 40.3971 18.6009 39.1423 18.6009C39.0169 18.6 38.8916 18.6 38.7344 18.6ZM44.8727 17.4877C44.5838 17.4849 44.3157 17.7476 44.3121 18.0375C44.3076 18.3246 44.5719 18.5945 44.8618 18.5991C45.1489 18.6027 45.4196 18.3374 45.4233 18.0493C45.426 17.7612 45.1607 17.4904 44.8727 17.4877Z" fill="white"/>
<path d="M38.7344 28.0932C38.7344 27.7042 38.7344 27.3689 38.7344 27.0063C38.8252 26.9972 38.9134 26.9808 39.0015 26.9808C39.5594 26.9781 40.1172 26.9699 40.6751 26.9844C40.9159 26.9908 41.0612 26.9445 41.1912 26.7009C41.5509 26.0257 42.3378 25.7203 43.0674 25.9194C43.7997 26.1193 44.2976 26.7545 44.3057 27.4988C44.3148 28.2749 43.8396 28.9247 43.1046 29.1437C42.3796 29.3591 41.59 29.0746 41.213 28.4021C41.0667 28.1413 40.9095 28.0813 40.6415 28.0877C40.0164 28.1041 39.3913 28.0932 38.7344 28.0932ZM43.1882 27.5497C43.1973 27.2634 42.9356 26.9881 42.6467 26.9799C42.3587 26.9717 42.087 27.2307 42.0779 27.5215C42.0688 27.8078 42.3287 28.0823 42.6194 28.0913C42.9047 28.1004 43.1791 27.8387 43.1882 27.5497Z" fill="white"/>
<path d="M27.5609 30.3288C27.5609 29.6108 27.56 28.9274 27.5609 28.244C27.5618 27.7133 27.7389 27.5379 28.2723 27.537C28.7602 27.5361 29.249 27.537 29.7932 27.537C29.7932 27.0444 29.7932 26.5619 29.7932 26.0793C29.7932 25.4559 29.9468 25.3041 30.5764 25.3041C31.0407 25.3041 31.5059 25.3041 32.0265 25.3041C32.0265 24.9615 32.0265 24.6298 32.0265 24.2981C32.0265 23.9146 32.0238 23.5302 32.0274 23.1467C32.0319 22.7105 32.2291 22.5151 32.6716 22.5133C33.3457 22.5096 34.0208 22.5105 34.695 22.5133C35.182 22.5151 35.3719 22.7014 35.3728 23.1839C35.3746 24.5798 35.3737 25.9757 35.3737 27.3716C35.3737 29.7099 35.3737 32.0473 35.3737 34.3856C35.3737 34.511 35.3737 34.6364 35.3737 34.7864C36.1214 34.7864 36.8383 34.7864 37.5806 34.7864C37.5806 35.1644 37.5806 35.517 37.5806 35.8905C32.3981 35.8905 27.2156 35.8905 22.0059 35.8905C22.0059 35.547 22.0059 35.1944 22.0059 34.8027C22.3529 34.8027 22.7064 34.8027 23.0943 34.8027C23.0943 34.2565 23.0925 33.7476 23.0952 33.2396C23.0971 32.7534 23.2833 32.5662 23.7685 32.5644C24.2773 32.5617 24.7852 32.5635 25.3276 32.5635C25.3276 32.0209 25.3258 31.5129 25.3285 31.004C25.3303 30.5187 25.5175 30.3324 26.0036 30.3306C26.5115 30.327 27.0194 30.3288 27.5609 30.3288ZM33.1649 23.642C33.1649 27.3707 33.1649 31.0731 33.1649 34.7682C33.5429 34.7682 33.8954 34.7682 34.2416 34.7682C34.2416 31.0467 34.2416 27.3525 34.2416 23.642C33.88 23.642 33.5347 23.642 33.1649 23.642ZM30.9299 26.4247C30.9299 29.2282 30.9299 32 30.9299 34.77C31.3051 34.77 31.6576 34.77 31.9983 34.77C31.9983 31.9728 31.9983 29.201 31.9983 26.4247C31.634 26.4247 31.2978 26.4247 30.9299 26.4247ZM29.766 34.7827C29.766 32.7198 29.766 30.6923 29.766 28.6693C29.3944 28.6693 29.05 28.6693 28.6948 28.6693C28.6948 30.715 28.6948 32.7425 28.6948 34.7827C29.0609 34.7827 29.4053 34.7827 29.766 34.7827ZM27.5418 34.78C27.5418 33.6504 27.5418 32.5626 27.5418 31.4648C27.1702 31.4648 26.8177 31.4648 26.466 31.4648C26.466 32.5835 26.466 33.6804 26.466 34.78C26.8349 34.78 27.1793 34.78 27.5418 34.78ZM24.2228 34.77C24.6071 34.77 24.9596 34.77 25.3103 34.77C25.3103 34.3992 25.3103 34.0557 25.3103 33.6967C24.9415 33.6967 24.5889 33.6967 24.2228 33.6967C24.2228 34.0602 24.2228 34.4047 24.2228 34.77Z" fill="white"/>
<path d="M38.7422 34.8099C39.1093 34.8099 39.4518 34.8099 39.817 34.8099C39.817 35.1698 39.817 35.5206 39.817 35.8905C39.4609 35.8905 39.1102 35.8905 38.7422 35.8905C38.7422 35.5333 38.7422 35.1907 38.7422 34.8099Z" fill="white"/>
<path d="M22.534 19.1762C22.5258 19.487 22.2814 19.7196 21.9698 19.716C21.6454 19.7115 21.4047 19.4525 21.4228 19.1253C21.4392 18.8163 21.6909 18.5909 22.0034 18.6037C22.3132 18.6164 22.5422 18.8636 22.534 19.1762Z" fill="white"/>
<path d="M24.2078 19.1743C24.2005 19.4851 23.957 19.7187 23.6454 19.7159C23.3201 19.7123 23.0793 19.4542 23.0966 19.127C23.1129 18.8181 23.3628 18.5918 23.6753 18.6036C23.9852 18.6154 24.215 18.8617 24.2078 19.1743Z" fill="white"/>
<path d="M25.3156 19.716C25.0039 19.7105 24.7695 19.4706 24.7695 19.158C24.7704 18.8318 25.0257 18.5891 25.3528 18.6036C25.6617 18.6173 25.8907 18.8654 25.8816 19.178C25.8725 19.4888 25.6281 19.7214 25.3156 19.716Z" fill="white"/>
</g>
<defs>
<filter id="filter0_d_755_26" x="0.900001" y="0.5" width="70.2" height="70.2" filterUnits="userSpaceOnUse" color-interpolation-filters="sRGB">
<feFlood flood-opacity="0" result="BackgroundImageFix"/>
<feColorMatrix in="SourceAlpha" type="matrix" values="0 0 0 0 0 0 0 0 0 0 0 0 0 0 0 0 0 0 127 0" result="hardAlpha"/>
<feOffset dy="3.6"/>
<feGaussianBlur stdDeviation="4.05"/>
<feComposite in2="hardAlpha" operator="out"/>
<feColorMatrix type="matrix" values="0 0 0 0 0 0 0 0 0 0 0 0 0 0 0 0 0 0 0.05 0"/>
<feBlend mode="normal" in2="BackgroundImageFix" result="effect1_dropShadow_755_26"/>
<feBlend mode="normal" in="SourceGraphic" in2="effect1_dropShadow_755_26" result="shape"/>
</filter>
<clipPath id="clip0_755_26">
<rect width="35" height="32" fill="white" transform="translate(19 16)"/>
</clipPath>
</defs>
</svg>
