<svg width="19" height="18" viewBox="0 0 19 18" fill="none" xmlns="http://www.w3.org/2000/svg">
<g clip-path="url(#clip0_378_50)">
<path d="M2.04058 9.72277C2.04058 11.6606 2.04058 13.5766 2.04058 15.5047C4.6231 15.5047 7.20064 15.5047 9.79812 15.5047C9.79812 15.4361 9.79812 15.3718 9.79812 15.3075C9.79812 14.4386 9.79712 13.5698 9.79912 12.701C9.79962 12.5163 9.91827 12.393 10.0873 12.3882C10.2648 12.3834 10.3879 12.5091 10.3939 12.7015C10.3954 12.7436 10.3944 12.7861 10.3944 12.8282C10.3944 13.6486 10.3944 14.4691 10.3944 15.2901C10.3944 15.3563 10.3944 15.422 10.3944 15.5163C10.4916 15.5163 10.5819 15.5163 10.6721 15.5163C11.2873 15.5163 11.2933 15.5197 11.2888 16.1236C11.2873 16.3155 11.2903 16.5123 11.2509 16.6984C11.1133 17.3555 10.5126 17.8298 9.82405 17.8307C7.21759 17.8332 4.61114 17.8336 2.00468 17.8303C1.2055 17.8293 0.549893 17.1858 0.542415 16.4098C0.540421 16.2106 0.538427 16.0114 0.543412 15.8127C0.547899 15.6285 0.656585 15.5221 0.846036 15.5173C1.03698 15.5125 1.22843 15.5163 1.43782 15.5163C1.43782 15.4283 1.43782 15.3577 1.43782 15.2872C1.43782 13.3687 1.43782 11.4498 1.43782 9.53131C1.43782 9.23059 1.52557 9.14501 1.83517 9.14501C2.71862 9.14453 3.60206 9.14598 4.485 9.14405C4.6595 9.14356 4.77367 9.21753 4.81056 9.38047C4.84446 9.53035 4.76918 9.64106 4.63058 9.70005C4.57175 9.72519 4.49697 9.7218 4.42966 9.7218C3.70825 9.72326 2.98634 9.72277 2.26493 9.72277C2.19713 9.72277 2.12882 9.72277 2.04058 9.72277ZM9.21282 17.2424C10.2837 17.3347 10.8595 16.8797 10.6681 16.1081C7.4928 16.1081 4.31898 16.1081 1.13819 16.1081C1.13819 16.2121 1.1352 16.3025 1.13869 16.3924C1.15315 16.7642 1.37301 17.0992 1.73097 17.1868C2.01764 17.2569 2.32426 17.2491 2.63187 17.2772C2.63187 17.1476 2.63037 17.0693 2.63237 16.9909C2.63735 16.7922 2.75202 16.6728 2.93399 16.6752C3.11397 16.6776 3.22365 16.798 3.22764 16.9992C3.22914 17.0809 3.22814 17.1626 3.22814 17.2399C5.03541 17.2399 6.81675 17.2399 8.5971 17.2399C8.62352 16.7869 8.67737 16.6839 8.88726 16.6752C9.10413 16.666 9.16496 16.77 9.21282 17.2424Z" fill="white"/>
<path d="M9.492 7.27774C8.24411 8.27613 7.00819 9.26484 5.75781 10.2652C5.8974 10.5011 6.0355 10.7341 6.1736 10.9672C6.27581 11.1393 6.37901 11.3109 6.48021 11.484C6.60186 11.6919 6.57444 11.8669 6.40842 11.9559C6.24041 12.0458 6.08187 11.9825 5.95474 11.7707C5.75481 11.4376 5.55689 11.1035 5.35796 10.7699C5.32705 10.7187 5.29415 10.6684 5.24778 10.5959C4.87386 10.812 4.49646 11.0078 4.14497 11.2413C3.91065 11.397 3.86927 11.6939 4.00987 11.9419C4.20131 12.2793 4.39974 12.6139 4.60664 12.9427C4.78113 13.2207 5.12115 13.3242 5.39934 13.1457C6.63227 12.3553 8.04468 11.9728 9.39976 11.4613C10.0987 11.1973 10.8032 10.9474 11.5201 10.6858C11.3327 10.3706 11.1507 10.0636 10.9682 9.75703C10.7259 9.34994 10.4826 8.94381 10.2418 8.53624C10.1247 8.33801 10.1551 8.17266 10.3201 8.0808C10.4806 7.99136 10.6496 8.05082 10.7658 8.24567C11.2354 9.03277 11.7041 9.82085 12.1712 10.6094C12.3298 10.8768 12.2719 11.0296 11.9733 11.1388C10.5863 11.645 9.19934 12.1498 7.81186 12.6555C7.74256 12.6806 7.67426 12.7082 7.59 12.7406C7.76898 13.0442 7.94747 13.3382 8.11698 13.6374C8.44503 14.2157 8.11199 14.8737 7.44043 14.952C7.06053 14.996 6.7629 14.8321 6.56696 14.513C6.36654 14.1876 6.1756 13.8574 6.00958 13.5785C5.69549 13.6626 5.41131 13.7636 5.11766 13.8096C4.84993 13.8516 4.60115 13.7409 4.39675 13.5727C4.30052 13.4934 4.23671 13.4977 4.14099 13.5582C3.91813 13.6988 3.68132 13.7917 3.40412 13.7486C3.0307 13.6906 2.75051 13.4416 2.66376 13.0781C2.581 12.7309 2.70514 12.3543 3.0302 12.1856C3.29593 12.0478 3.37072 11.8935 3.35426 11.6044C3.33282 11.2292 3.54322 10.9275 3.8588 10.7056C3.88373 10.6877 3.90966 10.6708 3.93757 10.6578C5.08276 10.123 6.01506 9.30207 6.98176 8.52754C7.76799 7.89756 8.55421 7.26855 9.34193 6.64003C9.54734 6.47613 9.7328 6.50658 9.8694 6.72512C9.95964 6.8692 10.0479 7.01472 10.1296 7.16364C10.2234 7.33479 10.177 7.50401 10.022 7.58571C9.8719 7.66501 9.71734 7.61714 9.60866 7.45711C9.57226 7.40248 9.53786 7.34736 9.492 7.27774ZM7.00569 12.9528C6.82571 13.0529 6.66368 13.1433 6.49766 13.2357C6.70357 13.5823 6.89202 13.9067 7.08895 14.2268C7.17769 14.3714 7.35119 14.4125 7.49129 14.338C7.62141 14.2689 7.68722 14.1146 7.61293 13.9817C7.42099 13.6399 7.21509 13.3058 7.00569 12.9528ZM3.63645 12.4984C3.45348 12.6096 3.22264 12.6565 3.2371 12.8987C3.24209 12.9818 3.32186 13.094 3.40013 13.1341C3.60504 13.2395 3.75311 13.0882 3.92661 12.9843C3.82889 12.8213 3.73765 12.6676 3.63645 12.4984Z" fill="white"/>
<path d="M15.7634 0.456269C16.3542 0.456269 16.9454 0.455303 17.5362 0.456269C18.0732 0.45772 18.4551 0.823715 18.4561 1.34104C18.4576 2.48737 18.4576 3.63371 18.4561 4.78004C18.4556 5.29882 18.0747 5.66675 17.5387 5.66723C16.3567 5.66868 15.1751 5.66868 13.993 5.66723C13.4695 5.66626 13.0856 5.29543 13.0836 4.79019C13.0816 4.23516 13.0826 3.68012 13.0836 3.12509C13.0841 2.89543 13.1923 2.77069 13.3858 2.77311C13.5772 2.77553 13.6789 2.89882 13.6789 3.13379C13.6794 3.65885 13.6784 4.18343 13.6794 4.70849C13.6799 4.986 13.7871 5.08898 14.0758 5.08947C15.208 5.09044 16.3397 5.09044 17.4719 5.08947C17.7486 5.08898 17.8598 4.98359 17.8603 4.71912C17.8618 3.61485 17.8613 2.51106 17.8603 1.40679C17.8598 1.1404 17.7501 1.03451 17.4744 1.03403C16.3362 1.03306 15.198 1.03306 14.0593 1.03403C13.7876 1.03451 13.6814 1.14233 13.6789 1.41211C13.6774 1.57504 13.6824 1.73798 13.6774 1.90091C13.6719 2.074 13.5538 2.18858 13.3877 2.19197C13.2132 2.19535 13.0886 2.07883 13.0841 1.89656C13.0791 1.69737 13.0806 1.49817 13.0836 1.29946C13.0911 0.838703 13.478 0.461104 13.9531 0.45772C14.5564 0.453369 15.1601 0.456269 15.7634 0.456269Z" fill="white"/>
<path d="M15.7614 14.6461C15.1766 14.6461 14.5917 14.6471 14.0074 14.6461C13.461 14.6447 13.0836 14.2782 13.0831 13.7469C13.0821 12.6068 13.0821 11.4663 13.0831 10.3262C13.0836 9.80648 13.4635 9.43565 13.9965 9.43517C15.1785 9.43372 16.3601 9.43372 17.5422 9.43517C18.0757 9.43565 18.4546 9.80552 18.4561 10.3257C18.4576 10.875 18.4571 11.4237 18.4561 11.973C18.4556 12.2045 18.3499 12.3293 18.1579 12.3293C17.966 12.3293 17.8613 12.205 17.8608 11.9725C17.8603 11.4474 17.8613 10.9228 17.8603 10.3978C17.8598 10.1178 17.7536 10.0134 17.4679 10.0129C16.3357 10.012 15.204 10.012 14.0718 10.0129C13.7856 10.0129 13.6794 10.1174 13.6794 10.3973C13.6784 11.4953 13.6784 12.5933 13.6794 13.6913C13.6799 13.9596 13.7886 14.0679 14.0608 14.0679C15.199 14.0693 16.3372 14.0689 17.4759 14.0679C17.7501 14.0674 17.8578 13.9606 17.8608 13.6937C17.8623 13.5307 17.8573 13.3678 17.8623 13.2049C17.8678 13.0226 17.9914 12.9066 18.1664 12.9104C18.3324 12.9138 18.4516 13.0279 18.4556 13.2015C18.4605 13.4186 18.464 13.6361 18.4541 13.8527C18.4341 14.2806 18.0423 14.6413 17.5906 14.6447C16.9808 14.6495 16.3711 14.6461 15.7614 14.6461Z" fill="white"/>
<path d="M4.72087 5.67753C4.72087 6.41967 4.72137 7.16181 4.72087 7.90396C4.72087 8.18099 4.62565 8.2743 4.34396 8.2743C3.19928 8.27479 2.05459 8.27479 0.909904 8.2743C0.640185 8.2743 0.542468 8.17809 0.541969 7.91314C0.541471 6.41677 0.541471 4.9204 0.541969 3.42402C0.541969 3.15859 0.639188 3.06286 0.909406 3.06286C2.06007 3.06238 3.21124 3.06238 4.36191 3.06286C4.62016 3.06286 4.72037 3.16149 4.72037 3.41435C4.72137 4.16907 4.72087 4.9233 4.72087 5.67753ZM4.11164 7.68881C4.11164 6.33313 4.11164 4.99195 4.11164 3.65561C3.11353 3.65561 2.12888 3.65561 1.14772 3.65561C1.14772 5.00694 1.14772 6.34377 1.14772 7.68881C2.13785 7.68881 3.11801 7.68881 4.11164 7.68881Z" fill="white"/>
<path d="M8.00483 5.37819C6.53359 5.3806 5.32309 4.22218 5.3191 2.80849C5.31511 1.34064 6.49968 0.167712 7.98738 0.166261C9.49302 0.164811 10.6911 1.31888 10.692 2.77222C10.6935 4.2159 9.49701 5.37577 8.00483 5.37819ZM10.0953 2.78334C10.1028 1.68149 9.17095 0.759976 8.03574 0.745471C6.88357 0.730967 5.93033 1.63798 5.91587 2.76159C5.90191 3.86247 6.85466 4.79656 7.99486 4.79946C9.14204 4.80236 10.0883 3.89438 10.0953 2.78334Z" fill="white"/>
<path d="M15.7564 13.198C15.0948 13.1956 14.5723 12.6773 14.5758 12.0279C14.5793 11.3854 15.1117 10.8802 15.7823 10.8826C16.4444 10.885 16.9664 11.4023 16.9634 12.0526C16.9599 12.6947 16.4274 13.2004 15.7564 13.198ZM16.3661 12.0357C16.3641 11.7282 16.0804 11.457 15.7649 11.4618C15.4443 11.4666 15.1701 11.7364 15.1731 12.0449C15.1761 12.3538 15.4567 12.6217 15.7738 12.6183C16.0934 12.6149 16.3681 12.3446 16.3661 12.0357Z" fill="white"/>
<path d="M15.7688 3.36597C15.7688 3.64155 15.7698 3.90602 15.7683 4.17048C15.7668 4.38563 15.6576 4.50843 15.4712 4.50892C15.2847 4.5094 15.1745 4.38611 15.1731 4.17193C15.1716 3.90747 15.1726 3.64252 15.1726 3.35098C15.0679 3.35098 14.9716 3.35436 14.8749 3.35001C14.6969 3.34228 14.5793 3.22963 14.5758 3.06911C14.5718 2.89941 14.6914 2.78144 14.8794 2.77419C14.9711 2.7708 15.0629 2.7737 15.1726 2.7737C15.1726 2.6625 15.1716 2.56774 15.1726 2.47298C15.1785 1.99191 15.5644 1.62012 16.063 1.61528C16.2554 1.61335 16.4484 1.61238 16.6408 1.61577C16.8427 1.61915 16.9664 1.73567 16.9619 1.91214C16.9574 2.07942 16.8362 2.18821 16.6428 2.19256C16.4877 2.19594 16.3322 2.19256 16.1766 2.19353C15.868 2.19498 15.7678 2.29457 15.7678 2.5982C15.7678 2.6509 15.7678 2.7036 15.7678 2.76645C16.0141 2.79691 16.3367 2.68716 16.3616 3.06814C16.3756 3.26879 16.2759 3.31423 15.7688 3.36597Z" fill="white"/>
<path d="M12.8622 8.85339C12.6015 8.85533 12.4729 8.7596 12.4524 8.59812C12.4325 8.44002 12.5387 8.31335 12.7291 8.27515C13.2018 8.18039 13.6739 8.08514 14.147 7.99425C14.3759 7.95025 14.5359 8.03389 14.5728 8.20601C14.6137 8.39892 14.514 8.53043 14.2727 8.57926C13.7826 8.67837 13.291 8.77024 12.8622 8.85339Z" fill="white"/>
<path d="M11.8497 7.71925C11.7789 7.65978 11.6742 7.60321 11.6183 7.51715C11.5461 7.40547 11.58 7.27299 11.6876 7.19273C12.0945 6.88814 12.5058 6.58838 12.9216 6.29491C13.0522 6.20257 13.2267 6.24221 13.3204 6.36066C13.4146 6.48008 13.4112 6.65414 13.282 6.75083C12.8707 7.05978 12.4509 7.35857 12.0326 7.65833C11.9953 7.68492 11.9414 7.68975 11.8497 7.71925Z" fill="white"/>
<path d="M11.0356 6.5375C10.7608 6.53267 10.6043 6.29238 10.7339 6.11252C11.0361 5.69431 11.3556 5.28819 11.6792 4.88545C11.7764 4.76458 11.9644 4.77086 12.0815 4.86804C12.2042 4.96909 12.2266 5.13202 12.1199 5.27271C11.8567 5.62179 11.586 5.96651 11.3182 6.31268C11.2848 6.35571 11.2574 6.40793 11.2145 6.43887C11.1482 6.48625 11.07 6.51865 11.0356 6.5375Z" fill="white"/>
<path d="M2.63735 5.38016C2.83029 5.38016 3.02323 5.37678 3.21567 5.38113C3.40612 5.385 3.52627 5.50103 3.52527 5.67073C3.52428 5.83898 3.40263 5.9555 3.21218 5.95695C2.8263 5.96034 2.44091 5.96034 2.05503 5.95695C1.86159 5.9555 1.73994 5.84382 1.73645 5.67605C1.73246 5.4991 1.85511 5.38403 2.05852 5.38064C2.25146 5.37774 2.4444 5.38016 2.63735 5.38016Z" fill="white"/>
<path d="M2.64284 6.53858C2.83578 6.53858 3.02873 6.53471 3.22117 6.53954C3.40912 6.54389 3.52928 6.66476 3.52529 6.83447C3.5218 6.99547 3.40364 7.11295 3.22516 7.11489C2.82731 7.11924 2.42896 7.11972 2.03062 7.1144C1.85363 7.11198 1.73697 6.99111 1.73597 6.82915C1.73497 6.6667 1.85064 6.54535 2.02663 6.54051C2.23253 6.53422 2.43794 6.53858 2.64284 6.53858Z" fill="white"/>
<path d="M2.93299 4.22228C3.03869 4.22228 3.14488 4.21648 3.25008 4.22325C3.4136 4.23389 3.52478 4.35379 3.52528 4.50899C3.52578 4.6637 3.4151 4.78989 3.25207 4.79617C3.0347 4.80439 2.81633 4.80536 2.59896 4.79569C2.43793 4.78844 2.32625 4.65693 2.33373 4.50222C2.34121 4.34073 2.43344 4.24307 2.59647 4.2247C2.70814 4.21261 2.82132 4.22277 2.93299 4.22228Z" fill="white"/>
<path d="M7.11091 2.7668C7.11091 2.48928 7.10792 2.21176 7.11191 1.93473C7.1154 1.66881 7.3223 1.5402 7.57058 1.65769C8.1504 1.93231 8.72973 2.20886 9.29958 2.50233C9.39031 2.54923 9.47956 2.68315 9.48305 2.77985C9.48604 2.86688 9.39181 2.99693 9.30456 3.04141C8.72823 3.33585 8.14392 3.61627 7.55812 3.89234C7.31981 4.00499 7.1159 3.87494 7.11191 3.61772C7.10742 3.33392 7.11091 3.0506 7.11091 2.7668ZM7.71616 2.38098C7.71616 2.65318 7.71616 2.89637 7.71616 3.16518C7.98738 3.03223 8.23964 2.90894 8.52033 2.77163C8.23416 2.63239 7.98688 2.512 7.71616 2.38098Z" fill="white"/>
</g>
<defs>
<clipPath id="clip0_378_50">
<rect width="19" height="18" fill="white"/>
</clipPath>
</defs>
</svg>
