<svg width="72" height="71" viewBox="0 0 72 71" fill="none" xmlns="http://www.w3.org/2000/svg">
<g filter="url(#filter0_d_755_28)">
<rect x="9" y="5" width="54" height="54" rx="27" fill="black"/>
</g>
<g clip-path="url(#clip0_755_28)">
<path d="M35.7921 42.2448C34.293 42.1569 32.8834 41.9976 31.5439 41.482C31.2256 41.3594 30.9121 41.2116 30.6181 41.0398C29.8549 40.5927 29.3633 39.9815 29.4714 39.0362C29.485 38.9155 29.4733 38.7919 29.4733 38.6471C29.3273 38.6393 29.2164 38.6287 29.1044 38.6278C27.8428 38.6268 26.5802 38.6451 25.3186 38.6191C24.681 38.6065 24.0395 38.9763 24.0891 39.8347C24.1212 40.3909 24.1037 40.95 24.0911 41.5071C24.0862 41.7118 24.1358 41.8209 24.3412 41.9165C25.2164 42.3221 25.5999 43.2838 25.2612 44.1499C24.9263 45.0044 23.9811 45.4901 23.1127 45.2536C22.1801 44.9986 21.6048 44.1277 21.7791 43.1949C21.8862 42.6253 22.2171 42.1888 22.7428 41.9397C22.9823 41.8258 23.0368 41.6935 23.0348 41.4492C23.03 40.7443 23.0056 40.0346 23.0835 39.3365C23.1955 38.3294 24.0745 37.6033 25.1005 37.5984C26.4196 37.5917 27.7396 37.5965 29.0587 37.5965C29.1823 37.5965 29.3069 37.5965 29.4724 37.5965C29.4724 37.4333 29.4724 37.301 29.4724 37.1678C29.4724 33.5594 29.485 29.952 29.4626 26.3436C29.4578 25.5693 29.7654 25.0121 30.3689 24.5766C31.2606 23.9336 32.2906 23.6168 33.3497 23.4131C35.8593 22.9294 38.3689 22.9506 40.8415 23.6236C41.5365 23.8129 42.2063 24.1498 42.8332 24.511C43.464 24.875 43.7444 25.4698 43.7405 26.2316C43.72 29.8284 43.7317 33.4252 43.7317 37.022C43.7317 37.1572 43.7317 37.2924 43.7317 37.4797C43.8748 37.4797 43.9945 37.4797 44.1152 37.4797C45.3885 37.4797 46.6628 37.472 47.9361 37.4826C49.0527 37.4913 49.9171 38.1218 50.104 39.1096C50.1877 39.5508 50.1449 40.0163 50.1585 40.471C50.1624 40.5966 50.1673 40.7221 50.1576 40.8467C50.1215 41.342 50.143 41.7244 50.7183 42.0189C51.4221 42.379 51.6226 43.2973 51.3413 44.0321C51.06 44.7659 50.2792 45.2806 49.5443 45.2178C48.6944 45.1445 48.0257 44.5632 47.8602 43.754C47.7054 42.997 48.0812 42.1956 48.8015 41.848C49.0488 41.7282 49.1257 41.5979 49.1169 41.3362C49.0965 40.7337 49.1189 40.1302 49.1072 39.5267C49.0965 38.9937 48.6818 38.5524 48.1561 38.5476C46.6998 38.5341 45.2425 38.5428 43.7317 38.5428C43.7317 38.7301 43.721 38.9068 43.7337 39.0835C43.7843 39.7893 43.4591 40.3088 42.913 40.7144C42.0963 41.3208 41.1501 41.6384 40.1659 41.8122C39.0873 42.0034 37.9931 42.1125 36.8707 42.2612C36.8707 42.9024 36.8707 43.6121 36.8707 44.3266C37.7186 44.6597 38.292 45.2227 38.3786 46.1699C38.474 47.205 37.7468 48.1648 36.7228 48.3676C35.6899 48.5723 34.6269 47.9408 34.3232 46.9404C34.0185 45.9401 34.5247 44.877 35.5195 44.4811C35.7425 44.3923 35.8038 44.2812 35.7989 44.0572C35.7824 43.4576 35.7921 42.857 35.7921 42.2448ZM30.5218 31.9797C30.5208 31.9981 30.512 32.085 30.512 32.1709C30.5111 33.0805 30.5198 33.991 30.5062 34.9006C30.5013 35.2038 30.5977 35.4578 30.845 35.6016C31.285 35.8585 31.7289 36.1433 32.2098 36.293C34.8284 37.1099 37.483 37.107 40.1464 36.5238C40.8756 36.3644 41.5774 36.125 42.1956 35.6885C42.4954 35.4771 42.6512 35.2144 42.6404 34.8272C42.6171 33.963 42.6336 33.0988 42.6327 32.2346C42.6327 32.1265 42.6239 32.0184 42.621 31.9633C38.5791 33.5401 34.5636 33.5633 30.5218 31.9797ZM30.5111 36.7574C30.5111 37.4874 30.5325 38.2792 30.5023 39.0681C30.4858 39.5006 30.6551 39.8116 31.0085 39.9969C31.4904 40.2499 31.9839 40.5126 32.5037 40.6593C34.8595 41.3256 37.2484 41.3391 39.6461 40.9046C40.5144 40.7472 41.3711 40.5184 42.106 40.0076C42.3182 39.8608 42.5908 39.6155 42.6044 39.4012C42.6599 38.5013 42.6278 37.5955 42.6278 36.7487C38.5792 38.3159 34.5646 38.3487 30.5111 36.7574ZM42.6327 27.7437C38.5694 29.3196 34.5519 29.3553 30.5111 27.7553C30.5111 28.5326 30.5198 29.3505 30.5062 30.1683C30.5013 30.457 30.5821 30.7061 30.8206 30.8452C31.2801 31.1136 31.7396 31.4207 32.2419 31.5742C34.9228 32.392 37.6368 32.4036 40.347 31.7316C40.9593 31.58 41.5482 31.2961 42.108 30.9987C42.3377 30.877 42.5918 30.5671 42.6083 30.3276C42.6687 29.4557 42.6327 28.578 42.6327 27.7437ZM36.7023 24.2396C35.2723 24.2454 33.9961 24.3488 32.75 24.6877C32.054 24.8769 31.3628 25.0952 30.807 25.5837C30.4059 25.9362 30.3923 26.2538 30.8177 26.5754C31.1584 26.8332 31.5468 27.0524 31.946 27.2049C33.4529 27.7795 35.0348 27.9224 36.6351 27.9156C38.2355 27.9088 39.8145 27.7544 41.3136 27.1528C41.6592 27.0138 41.997 26.8264 42.2939 26.6024C42.7495 26.2596 42.7592 25.9159 42.3104 25.5721C41.9902 25.3259 41.6222 25.1174 41.2435 24.9706C39.7405 24.3845 38.1576 24.2522 36.7023 24.2396ZM37.337 46.3466C37.339 45.7856 36.8766 45.3173 36.3178 45.3144C35.7707 45.3115 35.282 45.7924 35.2791 46.3379C35.2762 46.8835 35.7561 47.3634 36.3081 47.3653C36.8717 47.3663 37.3351 46.9076 37.337 46.3466ZM24.2673 43.4972C24.2634 43.0598 23.9431 42.7527 23.4992 42.7604C23.0855 42.7682 22.7263 43.1283 22.735 43.5261C22.7438 43.9211 23.1312 44.2918 23.5226 44.2822C23.9314 44.2716 24.2711 43.9133 24.2673 43.4972ZM48.821 43.5097C48.819 43.9182 49.1753 44.2803 49.5813 44.2812C49.9853 44.2832 50.3435 43.924 50.3474 43.5146C50.3513 43.081 50.031 42.7614 49.592 42.7614C49.1685 42.7604 48.8229 43.0955 48.821 43.5097Z" fill="white"/>
<path d="M28.1383 21.1701C28.7973 18.226 30.5447 16.2707 33.5284 15.7271C36.8226 15.1265 39.2241 16.5884 40.8634 19.4234C42.2438 19.069 43.63 19.0931 44.9637 19.6377C47.447 20.6516 48.9198 22.4649 49.2391 25.1415C49.2674 25.382 49.3589 25.4872 49.5876 25.5635C51.9921 26.3562 53.4971 28.6833 53.2946 31.2768C53.1135 33.5981 51.1851 35.6606 48.7446 35.9831C47.6047 36.1337 46.4317 36.0555 45.2742 36.0593C44.9345 36.0603 44.7651 35.8488 44.767 35.5379C44.769 35.2183 44.9549 35.0233 45.317 35.0175C46.1659 35.0049 47.0148 35.0146 47.8646 35.0117C50.3839 35.0049 52.327 33.0342 52.2715 30.543C52.2296 28.634 50.8259 26.9694 48.8916 26.5339C48.4039 26.4238 48.2861 26.28 48.2803 25.7875C48.2335 22.0951 44.5052 19.4243 40.9705 20.5512C40.3465 20.7501 40.2024 20.6854 39.9425 20.0867C38.9661 17.8408 36.514 16.4079 34.1524 16.7024C31.6476 17.0142 29.6423 18.8991 29.2169 21.3439C29.2033 21.4221 29.2033 21.5023 29.1935 21.5814C29.1361 22.0932 29.0514 22.184 28.5452 22.2351C26.2468 22.4659 24.8207 24.2377 24.6348 25.9005C24.5919 26.279 24.3885 26.4943 24.002 26.6054C22.0483 27.1644 20.8256 28.971 20.9424 31.0905C21.0427 32.9125 22.5924 34.6457 24.4829 34.9238C25.3493 35.0513 26.2429 34.9895 27.1249 35.0107C27.4004 35.0175 27.6769 34.9982 27.9504 35.0223C28.2522 35.0484 28.4371 35.226 28.4391 35.537C28.441 35.846 28.2629 36.0584 27.9601 36.0545C26.6109 36.0371 25.25 36.2167 23.9173 35.8855C21.6054 35.311 20.0128 33.3239 19.8765 30.8713C19.7538 28.6775 21.18 26.531 23.3089 25.7267C23.526 25.6446 23.6195 25.5384 23.6769 25.3115C24.258 22.9806 25.7981 21.6539 28.1383 21.1701Z" fill="white"/>
<path d="M35.0181 18.0599C35.7959 18.0792 36.7392 18.4896 37.4596 19.3654C37.7205 19.6831 37.7146 20.0123 37.4625 20.2112C37.2299 20.3947 36.9183 20.3262 36.6516 20.0317C35.2888 18.5292 33.0955 18.8614 32.2554 20.6989C32.089 21.0619 31.8184 21.2068 31.5341 21.0851C31.2207 20.9509 31.1301 20.6554 31.2849 20.2798C31.831 18.9618 33.2017 18.0619 35.0181 18.0599Z" fill="white"/>
<path d="M25.4648 33.6956C23.7603 33.6725 22.3001 32.1903 22.3205 30.5034C22.3254 30.1346 22.485 29.9521 22.8131 29.9434C23.1489 29.9337 23.3242 30.1017 23.3524 30.4609C23.4527 31.7403 24.2139 32.5128 25.5369 32.6557C25.8484 32.6895 26.0684 32.7938 26.1005 33.1279C26.1355 33.488 25.8922 33.7014 25.4648 33.6956Z" fill="white"/>
<path d="M33.6521 34.4931C33.6637 34.9595 33.3143 35.2299 32.9405 35.114C32.5384 34.9894 32.1442 34.834 31.7577 34.6679C31.4822 34.5501 31.381 34.244 31.4958 33.9833C31.601 33.7458 31.8852 33.6395 32.1665 33.7419C32.552 33.8809 32.9434 34.0094 33.3143 34.1803C33.469 34.2517 33.5771 34.4207 33.6521 34.4931Z" fill="white"/>
<path d="M31.9581 38.1189C32.0457 38.1411 32.1353 38.1556 32.22 38.1865C32.5617 38.3101 32.9014 38.4394 33.2421 38.5659C33.5682 38.6866 33.7055 38.9087 33.6218 39.1829C33.5283 39.489 33.2441 39.6387 32.9199 39.5286C32.5218 39.3934 32.1256 39.2496 31.7391 39.0835C31.484 38.9744 31.3838 38.733 31.4879 38.4906C31.56 38.3226 31.7469 38.2038 31.8822 38.0629C31.9075 38.0812 31.9328 38.0996 31.9581 38.1189Z" fill="white"/>
<path d="M31.9669 29.2163C32.0438 29.2366 32.1237 29.2511 32.1977 29.2781C32.5491 29.4085 32.8995 29.5427 33.2509 29.676C33.581 29.8005 33.7085 30.0168 33.617 30.2968C33.5225 30.5855 33.2471 30.7362 32.9385 30.6348C32.5384 30.5035 32.1431 30.3567 31.7538 30.1974C31.4968 30.0921 31.3799 29.8575 31.4822 29.6142C31.5571 29.4355 31.7518 29.3061 31.893 29.1545C31.9173 29.1748 31.9426 29.1961 31.9669 29.2163Z" fill="white"/>
</g>
<defs>
<filter id="filter0_d_755_28" x="0.900001" y="0.5" width="70.2" height="70.2" filterUnits="userSpaceOnUse" color-interpolation-filters="sRGB">
<feFlood flood-opacity="0" result="BackgroundImageFix"/>
<feColorMatrix in="SourceAlpha" type="matrix" values="0 0 0 0 0 0 0 0 0 0 0 0 0 0 0 0 0 0 127 0" result="hardAlpha"/>
<feOffset dy="3.6"/>
<feGaussianBlur stdDeviation="4.05"/>
<feComposite in2="hardAlpha" operator="out"/>
<feColorMatrix type="matrix" values="0 0 0 0 0 0 0 0 0 0 0 0 0 0 0 0 0 0 0.05 0"/>
<feBlend mode="normal" in2="BackgroundImageFix" result="effect1_dropShadow_755_28"/>
<feBlend mode="normal" in="SourceGraphic" in2="effect1_dropShadow_755_28" result="shape"/>
</filter>
<clipPath id="clip0_755_28">
<rect width="35" height="34" fill="white" transform="translate(19 15)"/>
</clipPath>
</defs>
</svg>
