<svg width="72" height="71" viewBox="0 0 72 71" fill="none" xmlns="http://www.w3.org/2000/svg">
<g filter="url(#filter0_d_755_29)">
<rect x="9" y="5" width="54" height="54" rx="27" fill="black"/>
</g>
<path d="M42.0918 44.7231C42.3282 44.7231 42.5511 44.7185 42.774 44.724C43.1255 44.7323 43.3447 44.941 43.3511 45.2615C43.3574 45.5995 43.1346 45.8193 42.764 45.8249C42.3826 45.8304 42.0021 45.8258 41.5881 45.8258C41.5881 46.7548 41.5881 47.6507 41.5881 48.5465C41.5881 49.205 41.4422 49.3527 40.7908 49.3527C37.9089 49.3527 35.0271 49.3527 32.1452 49.3527C31.5871 49.3527 31.4186 49.181 31.4177 48.6148C31.4168 47.6959 31.4177 46.7779 31.4177 45.8267C31.0145 45.8267 30.644 45.8295 30.2744 45.8258C29.8748 45.8221 29.6483 45.6124 29.6556 45.2606C29.6628 44.9272 29.8866 44.7296 30.2671 44.7231C30.4338 44.7203 30.6014 44.7222 30.7898 44.7222C30.8768 43.5521 30.6956 42.454 30.2916 41.391C29.9029 40.3677 29.3267 39.4664 28.5693 38.6888C27.0781 37.1585 26.1006 35.3401 25.7409 33.2187C25.1529 29.7527 26.1314 26.7522 28.505 24.2282C30.355 22.2601 32.6353 21.114 35.288 20.8222C40.8479 20.209 45.7528 23.7498 47.0302 28.7091C47.9688 32.3543 47.0728 35.5737 44.6602 38.3905C44.1338 39.0046 43.5884 39.6132 43.1454 40.2883C42.3101 41.5609 41.9939 42.997 42.0655 44.5236C42.0682 44.579 42.08 44.6335 42.0918 44.7231ZM31.887 44.7C34.9401 44.7 37.9497 44.7 40.9738 44.7C40.9738 44.5522 40.9765 44.4276 40.9738 44.3029C40.9303 42.6091 41.3362 41.0299 42.2666 39.6317C42.783 38.855 43.429 38.1679 44.0215 37.4448C46.0037 35.0288 46.743 32.2869 46.0264 29.2023C45.1367 25.3733 41.7258 22.2509 37.3445 21.9129C34.2062 21.6709 31.4838 22.7007 29.2932 25.0169C27.1116 27.3238 26.2428 30.0741 26.8706 33.2547C27.204 34.942 27.9578 36.4215 29.1328 37.6572C30.1285 38.7045 30.9411 39.8598 31.4186 41.2451C31.8009 42.3561 31.9567 43.4976 31.887 44.7ZM40.4837 48.2426C40.4837 47.4235 40.4837 46.6366 40.4837 45.8526C37.8138 45.8526 35.1657 45.8526 32.5293 45.8526C32.5293 46.6653 32.5293 47.453 32.5293 48.2426C35.1892 48.2426 37.8211 48.2426 40.4837 48.2426Z" fill="white"/>
<path d="M46.7649 23.807C46.6054 23.6694 46.369 23.5632 46.3209 23.3988C46.2675 23.2168 46.3246 22.9315 46.4423 22.7809C46.6489 22.5159 46.9397 22.3182 47.1952 22.092C47.7397 21.609 48.2824 21.1251 48.8277 20.6439C49.1376 20.3705 49.4755 20.3687 49.6911 20.6319C49.8959 20.8822 49.8506 21.2156 49.5552 21.4797C48.7843 22.1686 48.0088 22.8539 47.2287 23.5327C47.1146 23.6334 46.9651 23.6915 46.7649 23.807Z" fill="white"/>
<path d="M23.7086 19.8884C23.9106 20.014 24.0692 20.0796 24.1861 20.1913C24.9271 20.9006 25.6619 21.6173 26.3939 22.3376C26.6738 22.6138 26.6929 22.9536 26.4609 23.1891C26.2335 23.4209 25.9237 23.4163 25.6483 23.1512C24.8927 22.4235 24.1462 21.6865 23.3924 20.956C23.1967 20.7667 23.1188 20.5284 23.2448 20.3031C23.3372 20.1378 23.5383 20.0343 23.7086 19.8884Z" fill="white"/>
<path d="M36.7731 16.5785C36.7731 17.0274 36.7776 17.4753 36.7722 17.9241C36.7677 18.3037 36.5557 18.5263 36.2214 18.5207C35.9025 18.5152 35.695 18.2972 35.6932 17.9371C35.6878 17.0403 35.6887 16.1426 35.6932 15.2459C35.695 14.8719 35.9161 14.6401 36.2431 14.6456C36.5566 14.6511 36.7668 14.8774 36.7722 15.232C36.7776 15.6818 36.7731 16.1306 36.7731 16.5785Z" fill="white"/>
<path d="M42.3345 32.2665C42.5963 32.2665 42.8464 32.2324 43.0846 32.273C43.7985 32.394 44.2678 32.8327 44.4535 33.5392C44.6347 34.229 44.4617 34.845 43.9236 35.3169C43.7541 35.4656 43.688 35.6097 43.6762 35.836C43.6083 37.0726 42.6461 37.9859 41.2953 38.07C40.7699 38.1023 40.2372 38.0552 39.7099 38.0136C39.4943 37.9961 39.3874 38.0506 39.2968 38.251C38.986 38.9362 38.5865 39.5606 38.0112 40.05C37.0146 40.8969 35.8242 40.8812 34.8421 40.0103C34.3131 39.5412 33.9244 38.9621 33.6381 38.3175C33.5185 38.0487 33.3799 38.0146 33.1 38.0247C32.4178 38.0487 31.7147 38.0866 31.0534 37.9508C29.8983 37.7144 29.3003 36.8999 29.2106 35.7048C29.1998 35.5543 29.1146 35.3816 29.0104 35.2717C28.4768 34.7093 28.3291 33.9206 28.6526 33.2325C28.9796 32.5371 29.6917 32.1548 30.4681 32.2573C30.5007 32.2619 30.5343 32.2582 30.6348 32.2582C30.5325 32.1058 30.4536 31.9913 30.3757 31.875C29.8131 31.0309 29.3357 30.1507 29.2378 29.1081C29.1065 27.6969 29.8874 26.6192 31.2772 26.4188C31.9159 26.3264 32.5781 26.3957 33.2295 26.4105C33.5375 26.4169 33.6907 26.2174 33.562 25.9284C33.1951 25.099 33.3346 24.2965 33.9398 23.7599C34.5613 23.2086 35.3395 23.1837 36.1259 23.6805C36.2056 23.7313 36.3125 23.7636 36.4058 23.7618C37.0926 23.7452 37.6615 24.0268 38.1353 24.5024C38.4071 24.7749 38.6508 25.0824 38.8674 25.4029C39.0839 25.7224 39.2506 26.0771 39.4236 26.3892C40.1321 26.3892 40.8378 26.3061 41.5191 26.4058C43.1861 26.6487 43.9861 27.9398 43.5874 29.6151C43.3872 30.4555 42.9859 31.1971 42.5093 31.9017C42.4523 31.9867 42.3943 32.0717 42.3408 32.1594C42.3318 32.177 42.3381 32.2047 42.3345 32.2665ZM39.3774 32.2435C39.3584 31.7918 39.3502 31.3421 39.3122 30.8951C39.3022 30.775 39.2288 30.6208 39.1355 30.5552C38.3102 29.9753 37.4767 29.4055 36.6341 28.8523C36.5426 28.7922 36.3433 28.8015 36.2482 28.8643C35.4147 29.4119 34.5903 29.9734 33.7749 30.5479C33.6762 30.618 33.5928 30.787 33.591 30.9126C33.5756 31.7863 33.5765 32.66 33.591 33.5336C33.5928 33.6491 33.6689 33.8051 33.7604 33.8698C34.5758 34.4442 35.3975 35.0113 36.2319 35.5561C36.3397 35.6263 36.5698 35.6217 36.6803 35.5506C37.5057 35.0122 38.3192 34.4525 39.1265 33.8855C39.2216 33.819 39.3004 33.6685 39.3113 33.5502C39.3502 33.1162 39.3575 32.6784 39.3774 32.2435ZM39.8766 27.5233C40.027 28.336 40.1719 29.1229 40.3214 29.9088C40.3377 29.9965 40.3559 30.1036 40.4129 30.1618C40.7907 30.5469 41.1785 30.921 41.5807 31.3144C42.05 30.5986 42.4577 29.8922 42.5755 29.048C42.6778 28.312 42.3635 27.7847 41.6668 27.5713C41.0698 27.3903 40.4664 27.4125 39.8766 27.5233ZM31.3188 31.3153C31.7193 30.9256 32.0907 30.5746 32.4477 30.2089C32.5183 30.1369 32.55 30.0141 32.5727 29.9079C32.7113 29.2457 32.8409 28.5807 32.9749 27.9177C33.0003 27.7893 33.0293 27.6618 33.0565 27.5325C32.2012 27.3949 31.7111 27.4079 31.2137 27.5732C30.6004 27.7773 30.3078 28.1781 30.3223 28.8347C30.3449 29.7776 30.8269 30.5322 31.3188 31.3153ZM34.5767 37.7357C34.8648 38.3406 35.1927 38.9224 35.7617 39.3186C36.2192 39.6372 36.6912 39.6372 37.1469 39.3103C37.7059 38.9085 38.0411 38.3323 38.3265 37.7292C37.7331 37.4835 37.1732 37.2471 36.6079 37.0227C36.5227 36.9885 36.404 36.9756 36.3225 37.0079C35.7481 37.237 35.1801 37.4817 34.5767 37.7357ZM42.57 35.763C41.4774 35.498 41.0226 34.7711 41.0072 33.6703C40.7472 33.9446 40.431 34.1884 40.3477 34.4978C40.1357 35.2782 40.0288 36.0881 39.8784 36.8897C40.4184 37.0384 41.2573 37.0227 41.7447 36.838C42.2267 36.6561 42.542 36.3374 42.57 35.763ZM33.0655 36.8934C32.9731 36.5212 32.8753 36.1712 32.8001 35.8166C32.724 35.4582 32.628 35.0962 32.6171 34.7333C32.6017 34.2558 32.2828 34.0563 31.9503 33.7876C31.9621 34.3177 31.8416 34.7628 31.5308 35.1406C31.221 35.5174 30.8052 35.6984 30.3449 35.7704C30.373 36.3088 30.6421 36.6598 31.1748 36.8371C31.7881 37.0421 32.4114 37.0264 33.0655 36.8934ZM35.0804 26.8815C35.5515 27.0892 35.9311 27.2592 36.3134 27.4236C36.3714 27.4485 36.452 27.4734 36.5037 27.4531C37.1116 27.2075 37.7168 26.9516 38.3229 26.6995C37.8962 25.752 37.3417 25.1194 36.8298 25.0039C36.7628 26.078 36.2038 26.7078 35.0804 26.8815ZM35.7019 25.0833C35.701 24.7204 35.4419 24.4535 35.0868 24.4517C34.7171 24.4498 34.4508 24.7269 34.458 25.1055C34.4653 25.4648 34.7325 25.7243 35.0913 25.7197C35.4473 25.715 35.7028 25.4491 35.7019 25.0833ZM30.2217 33.3646C29.8702 33.3618 29.5921 33.6297 29.5821 33.9815C29.5721 34.3445 29.8584 34.6391 30.2199 34.6354C30.5732 34.6317 30.8396 34.3593 30.8396 34C30.8405 33.6389 30.5768 33.3674 30.2217 33.3646ZM43.4226 33.9889C43.4162 33.6361 43.1417 33.3646 42.7902 33.3646C42.4206 33.3646 42.1479 33.6518 42.1642 34.0259C42.1787 34.3833 42.455 34.6428 42.811 34.6345C43.1562 34.6262 43.4289 34.3389 43.4226 33.9889ZM38.7532 27.7643C38.3808 27.8992 38.0574 28.0155 37.6896 28.1485C38.1616 28.4607 38.5928 28.747 39.0893 29.0758C38.9679 28.6011 38.8673 28.2076 38.7532 27.7643ZM33.813 29.0785C34.3312 28.734 34.7524 28.4542 35.2145 28.1467C34.8394 28.0128 34.506 27.8946 34.1464 27.7662C34.0367 28.1975 33.9362 28.5927 33.813 29.0785ZM35.2145 36.2811C34.7244 35.9579 34.3049 35.6808 33.8139 35.3567C33.938 35.835 34.0413 36.2349 34.1536 36.6671C34.516 36.5351 34.8385 36.4178 35.2145 36.2811ZM38.7532 36.6662C38.8673 36.2165 38.9679 35.823 39.0857 35.3567C38.5937 35.6827 38.167 35.9653 37.6887 36.282C38.0565 36.4159 38.379 36.5323 38.7532 36.6662ZM32.4178 31.7937C32.2656 31.9655 32.1578 32.0874 32.0364 32.2241C32.1632 32.3598 32.2728 32.4771 32.4178 32.6313C32.4178 32.3303 32.4178 32.0975 32.4178 31.7937ZM40.7907 32.3026C40.6874 32.1215 40.6122 31.9886 40.5117 31.8122C40.5117 32.1142 40.5117 32.3284 40.5117 32.6018C40.6566 32.4457 40.7545 32.3413 40.7907 32.3026Z" fill="white"/>
<path d="M34.7324 32.2065C34.737 31.2119 35.5061 30.4472 36.4882 30.4601C37.4195 30.4721 38.1878 31.2636 38.1869 32.2084C38.186 33.1771 37.3742 34 36.4338 33.9852C35.4853 33.9704 34.7279 33.179 34.7324 32.2065ZM36.4357 32.8484C36.7944 32.8548 37.0635 32.5981 37.0762 32.237C37.0898 31.8648 36.8134 31.5757 36.4474 31.5776C36.1005 31.5785 35.8241 31.8574 35.8205 32.2084C35.8178 32.563 36.086 32.8428 36.4357 32.8484Z" fill="white"/>
<defs>
<filter id="filter0_d_755_29" x="0.900001" y="0.5" width="70.2" height="70.2" filterUnits="userSpaceOnUse" color-interpolation-filters="sRGB">
<feFlood flood-opacity="0" result="BackgroundImageFix"/>
<feColorMatrix in="SourceAlpha" type="matrix" values="0 0 0 0 0 0 0 0 0 0 0 0 0 0 0 0 0 0 127 0" result="hardAlpha"/>
<feOffset dy="3.6"/>
<feGaussianBlur stdDeviation="4.05"/>
<feComposite in2="hardAlpha" operator="out"/>
<feColorMatrix type="matrix" values="0 0 0 0 0 0 0 0 0 0 0 0 0 0 0 0 0 0 0.05 0"/>
<feBlend mode="normal" in2="BackgroundImageFix" result="effect1_dropShadow_755_29"/>
<feBlend mode="normal" in="SourceGraphic" in2="effect1_dropShadow_755_29" result="shape"/>
</filter>
</defs>
</svg>
