<svg width="72" height="71" viewBox="0 0 72 71" fill="none" xmlns="http://www.w3.org/2000/svg">
<g filter="url(#filter0_d_755_33)">
<rect x="9" y="5" width="54" height="54" rx="27" fill="black"/>
</g>
<path d="M35.7317 48.6352C33.93 47.9869 32.1304 47.3346 30.3278 46.6892C26.8047 45.4292 23.2786 44.173 19.7545 42.9139C19.1388 42.6935 18.8399 42.321 18.8399 41.7803C18.8399 41.2338 19.1299 40.877 19.7555 40.6527C21.2236 40.1269 22.6916 39.6002 24.1596 39.0734C24.2626 39.0368 24.3636 38.9963 24.5388 38.9301C24.3843 38.8649 24.2923 38.8204 24.1963 38.7868C22.7173 38.2561 21.2384 37.7273 19.7595 37.1986C19.1339 36.9742 18.8418 36.6175 18.8399 36.0719C18.8379 35.5313 19.1358 35.1568 19.7506 34.9364C21.5116 34.3058 23.2737 33.6773 25.0357 33.0477C25.1248 33.0161 25.2129 32.9795 25.3644 32.9212C24.5012 32.6109 23.6964 32.3213 22.8916 32.0337C21.8324 31.6552 20.7722 31.2787 19.714 30.8982C19.123 30.6857 18.8369 30.3121 18.8399 29.7725C18.8428 29.2536 19.1289 28.8811 19.705 28.6745C22.5035 27.6724 25.304 26.6732 28.1034 25.672C28.2638 25.6147 28.4202 25.5445 28.639 25.4556C28.5212 25.3706 28.4687 25.3153 28.4044 25.2906C28.2806 25.2421 28.149 25.2105 28.0213 25.172C26.9482 24.8438 26.8482 24.7173 26.8373 23.6035C26.8344 23.3258 26.8631 23.0471 26.8809 22.7694C26.9056 22.381 27.1076 22.0667 27.4748 22.0114C28.2915 21.8898 28.7399 21.4619 28.8805 20.6554C28.9211 20.4222 29.0399 20.184 29.1814 19.9903C29.418 19.6651 29.422 19.3785 29.1785 19.0643C29.0844 18.9427 29.029 18.7915 28.9577 18.6531C28.7241 18.1955 28.7528 17.8714 29.1013 17.4929C29.3953 17.1736 29.7081 16.8683 30.0278 16.5737C30.3386 16.2881 30.7237 16.1992 31.0712 16.4492C31.7017 16.9028 32.2848 16.9365 32.9391 16.4858C33.2222 16.2901 33.6073 16.2466 33.933 16.1043C34.0538 16.0519 34.1775 15.9323 34.231 15.8128C34.3339 15.5805 34.3903 15.3275 34.4606 15.0814C34.5863 14.6426 34.8823 14.4005 35.3308 14.3787C35.7762 14.358 36.2246 14.357 36.6701 14.3797C37.1185 14.4024 37.4511 14.6406 37.5293 15.0873C37.6491 15.7752 37.956 16.2091 38.6974 16.3385C39.0677 16.4028 39.3993 16.6666 39.7606 16.8119C39.8843 16.8613 40.0595 16.8683 40.1813 16.8198C40.4387 16.718 40.6772 16.5678 40.9237 16.4374C41.2781 16.2486 41.6256 16.2703 41.9186 16.5362C42.2898 16.8732 42.6442 17.23 42.9818 17.6006C43.2411 17.8862 43.2431 18.2311 43.0798 18.5691C42.9253 18.8893 42.6284 19.1997 42.6224 19.5179C42.6165 19.8341 42.9065 20.1514 43.0481 20.4756C43.1639 20.7404 43.2827 21.0092 43.346 21.2889C43.4104 21.5716 43.5381 21.7445 43.8291 21.7831C43.8509 21.786 43.8737 21.791 43.8944 21.7969C45.0754 22.1527 45.1764 22.2901 45.1685 23.5383C45.1615 24.7094 45.0576 24.8488 43.9479 25.1878C43.7697 25.2421 43.5935 25.3034 43.4173 25.3617C43.4193 25.4012 43.4213 25.4408 43.4242 25.4793C43.5312 25.5228 43.6371 25.5693 43.745 25.6088C46.5326 26.608 49.3172 27.6141 52.1107 28.5964C52.5938 28.7664 52.9571 29.0184 53.161 29.4869C53.161 29.6875 53.161 29.8881 53.161 30.0897C52.9482 30.571 52.5621 30.8142 52.0711 30.9832C50.3873 31.5613 48.7143 32.1721 47.0384 32.772C46.9226 32.8135 46.8127 32.8679 46.6543 32.9361C48.4916 33.5903 50.2695 34.2337 52.0562 34.8543C52.5542 35.0273 52.96 35.2714 53.161 35.7794C53.161 35.98 53.161 36.1806 53.161 36.3823C52.9343 36.8873 52.5116 37.1264 52.0048 37.2925C51.1386 37.5771 50.2833 37.8963 49.4241 38.2037C48.7925 38.43 48.1619 38.6593 47.4551 38.9143C47.6314 38.9854 47.7294 39.0289 47.8293 39.0645C49.2429 39.5715 50.6516 40.0923 52.0731 40.5766C52.5641 40.7436 52.9482 40.9897 53.162 41.47C53.162 41.6707 53.162 41.8713 53.162 42.0729C52.9581 42.5621 52.57 42.8042 52.081 42.9772C48.4817 44.2491 44.8883 45.5389 41.293 46.8246C39.6171 47.4245 37.9431 48.0294 36.2682 48.6322C36.089 48.6352 35.9098 48.6352 35.7317 48.6352ZM51.9513 36.0818C51.8454 36.0275 51.8088 36.0027 51.7672 35.9879C49.5637 35.2022 47.3621 34.4116 45.1536 33.6417C44.9764 33.5804 44.7359 33.6071 44.5517 33.6723C41.9067 34.6073 39.2656 35.5541 36.6246 36.5018C36.2335 36.6422 35.8613 36.6758 35.4545 36.5285C32.8045 35.5709 30.1476 34.632 27.4966 33.6743C27.2145 33.5725 26.9779 33.5784 26.6978 33.6802C24.6665 34.4155 22.6292 35.134 20.595 35.8585C20.4267 35.9187 20.2634 35.9909 20.0485 36.0769C25.1664 37.9062 30.2189 39.7118 35.2723 41.5175C35.4396 41.5777 35.6059 41.6627 35.7792 41.6835C35.9554 41.7052 36.1534 41.6993 36.3197 41.641C39.6695 40.455 43.0154 39.2602 46.3633 38.0673C48.2095 37.4111 50.0556 36.7558 51.9513 36.0818ZM20.0367 41.7734C20.2188 41.8436 20.3505 41.898 20.4841 41.9454C25.4841 43.7313 30.4851 45.5122 35.4802 47.3099C35.8415 47.4403 36.1454 47.4315 36.4988 47.305C40.7228 45.7889 44.9507 44.2857 49.1776 42.7795C50.0883 42.4554 51 42.1312 51.9612 41.7892C51.8622 41.7448 51.8177 41.7211 51.7702 41.7043C49.8101 41.0026 47.8511 40.2979 45.8871 39.6071C45.7584 39.5616 45.5813 39.5873 45.4466 39.6348C42.4987 40.6804 39.5527 41.7309 36.6097 42.7904C36.188 42.9426 35.796 42.9347 35.3753 42.7835C32.4422 41.726 29.5051 40.6794 26.5681 39.6357C26.4414 39.5913 26.278 39.5557 26.1602 39.5972C24.1339 40.3088 22.1115 41.0332 20.0367 41.7734ZM20.0357 29.7774C20.1634 29.8318 20.2228 29.8614 20.2861 29.8842C25.3604 31.6957 30.4366 33.5033 35.5079 35.3258C35.8485 35.4483 36.1365 35.4355 36.4672 35.3169C40.2417 33.9649 44.0202 32.6247 47.7967 31.2797C49.1687 30.7914 50.5397 30.2993 51.98 29.7834C48.9628 28.7041 46.0099 27.6486 43.0708 26.5971C42.666 27.1041 42.4502 27.5972 42.9283 28.1497C42.9996 28.2317 43.0411 28.3414 43.0867 28.4422C43.2411 28.7862 43.2233 29.1173 42.9768 29.4128C42.8125 29.6094 42.6353 29.7962 42.4541 29.9771C41.5919 30.8418 41.4692 30.8685 40.4129 30.2864C40.113 30.1214 39.8744 30.064 39.5666 30.2755C39.3132 30.4495 39.0162 30.6076 38.7182 30.657C37.9758 30.7806 37.6511 31.2174 37.5214 31.9211C37.4353 32.3905 37.1086 32.605 36.6246 32.6228C36.2009 32.6386 35.7752 32.6386 35.3515 32.6218C34.8843 32.603 34.6091 32.3796 34.4656 31.9389C34.3893 31.7066 34.3151 31.4724 34.2557 31.2362C34.2052 31.0365 34.1181 30.9209 33.8934 30.8675C33.5707 30.7904 33.2262 30.7045 32.956 30.5246C32.2997 30.0878 31.7017 30.064 31.0593 30.5533C30.7425 30.7944 30.3644 30.7203 30.0724 30.4564C29.7091 30.1283 29.3616 29.7794 29.03 29.4177C28.7607 29.1242 28.7479 28.7733 28.9211 28.4215C29.0488 28.1616 29.1983 27.9125 29.325 27.6526C29.3646 27.5725 29.4032 27.453 29.3715 27.3838C29.2497 27.115 29.0993 26.859 28.9548 26.5882C25.984 27.6536 23.04 28.7051 20.0357 29.7774ZM30.0298 18.1985C30.2109 18.5385 30.3812 18.8755 30.5663 19.2036C30.7138 19.4655 30.7 19.7047 30.5356 19.9547C30.0892 20.6307 29.7813 21.367 29.6219 22.1626C29.5665 22.4393 29.4091 22.6192 29.1339 22.6992C28.835 22.7862 28.537 22.8811 28.241 22.976C28.1698 22.9987 28.048 23.0353 28.045 23.0718C28.0252 23.3485 28.0025 23.6302 28.044 23.901C28.0559 23.9761 28.2737 24.0305 28.4034 24.0759C28.635 24.156 28.8706 24.2242 29.1062 24.2904C29.4071 24.3744 29.5428 24.578 29.6358 24.8715C29.8239 25.4625 30.009 26.0644 30.2901 26.6139C30.7455 27.5043 30.8564 27.2563 30.2981 28.3009C30.005 28.8504 30.012 28.8435 30.4663 29.2783C30.6198 29.4246 30.7425 29.4592 30.9306 29.3446C31.187 29.1874 31.4602 29.0589 31.7255 28.9156C31.9631 28.7872 32.1878 28.7931 32.4175 28.9443C33.1134 29.4039 33.8746 29.7132 34.6893 29.8871C34.9615 29.9455 35.1169 30.1036 35.1951 30.3605C35.308 30.7321 35.4258 31.1028 35.5485 31.4981C35.7584 31.4981 35.9593 31.4842 36.1583 31.502C36.388 31.5228 36.4979 31.4378 36.5503 31.2105C36.6176 30.9189 36.7226 30.6353 36.8107 30.3487C36.8849 30.1056 37.0344 29.9464 37.2918 29.8921C38.1183 29.7181 38.8766 29.3841 39.6022 28.9512C39.7705 28.8514 40.0388 28.8899 40.2555 28.9147C40.3902 28.9305 40.5139 29.0392 40.6416 29.1074C41.3801 29.4987 41.3801 29.4997 41.9295 28.8573C41.9433 28.8415 41.9473 28.8178 41.9612 28.7862C41.8038 28.4877 41.6573 28.1744 41.4791 27.8809C41.287 27.5656 41.3296 27.2998 41.5009 26.9796C41.7929 26.433 42.1255 25.8746 42.2512 25.2807C42.4007 24.576 42.763 24.2706 43.4233 24.1303C44.0192 24.0038 44.0014 23.9652 44.0004 23.3584C43.9994 23.1252 43.9449 22.9878 43.6935 22.9384C43.4322 22.887 43.1807 22.7882 42.9233 22.719C42.6105 22.635 42.466 22.4294 42.368 22.1211C42.176 21.5202 42.0166 20.8808 41.683 20.3599C41.2989 19.76 41.3157 19.2896 41.686 18.7174C42.0354 18.1778 41.9918 18.1619 41.5266 17.7172C41.3662 17.563 41.2405 17.5611 41.0623 17.6688C40.8247 17.8131 40.5664 17.9238 40.3258 18.0641C40.0546 18.2232 39.816 18.1857 39.5418 18.0424C39.0003 17.7607 38.4589 17.4504 37.8798 17.2754C36.8463 16.9641 36.9592 17.1904 36.6127 15.957C36.5147 15.6092 36.3632 15.4866 35.997 15.4896C35.6475 15.4925 35.4604 15.5884 35.405 15.9402C35.3753 16.1251 35.2921 16.302 35.2525 16.4858C35.1674 16.8811 34.9209 17.056 34.5368 17.1756C33.9142 17.3693 33.2797 17.5828 32.7204 17.907C32.2403 18.1857 31.874 18.2074 31.4008 17.9267C30.6455 17.48 30.6297 17.5067 30.0298 18.1985Z" fill="white"/>
<path d="M27.9046 36.6135C28.259 36.7341 28.554 36.831 28.846 36.9347C30.6466 37.5781 32.4473 38.2225 34.2469 38.8669C34.3093 38.8896 34.3736 38.9103 34.435 38.936C34.7943 39.0853 34.9488 39.3907 34.825 39.7049C34.7072 40.0044 34.3964 40.1378 34.048 40.0172C33.3441 39.7731 32.6443 39.5181 31.9424 39.2671C30.5595 38.774 29.1766 38.2828 27.7947 37.7866C27.3393 37.6226 27.18 37.1512 27.4849 36.8428C27.5987 36.7272 27.7799 36.6788 27.9046 36.6135Z" fill="white"/>
<path d="M27.9585 42.3506C28.0219 42.3694 28.1397 42.398 28.2545 42.4395C30.265 43.1561 32.2745 43.8736 34.284 44.5921C34.3365 44.6108 34.39 44.6276 34.4404 44.6494C34.7849 44.7947 34.9384 45.0842 34.8364 45.3916C34.7315 45.7078 34.4097 45.8551 34.0405 45.7306C33.5248 45.5566 33.014 45.3649 32.5012 45.1811C30.9619 44.6316 29.4216 44.0831 27.8823 43.5346C27.4695 43.3873 27.32 43.2025 27.3468 42.8744C27.3695 42.5858 27.6111 42.3575 27.9585 42.3506Z" fill="white"/>
<path d="M35.9716 28.6459C33.1325 28.631 30.828 26.3075 30.8438 23.4741C30.8587 20.6505 33.1869 18.3399 35.9943 18.3626C38.8967 18.3863 41.1735 20.6802 41.1557 23.563C41.1379 26.3668 38.7997 28.6597 35.9716 28.6459ZM35.9904 27.4886C38.2097 27.4866 39.9955 25.7096 39.9975 23.5027C39.9995 21.2998 38.2078 19.515 35.9923 19.513C33.8096 19.511 31.9981 21.3127 31.9991 23.4859C32.001 25.6987 33.7868 27.4905 35.9904 27.4886Z" fill="white"/>
<path d="M35.9898 26.3539C34.3961 26.3421 33.1161 25.0533 33.127 23.473C33.1379 21.9105 34.4327 20.6406 36.0086 20.6475C37.6004 20.6554 38.8873 21.9511 38.8705 23.5274C38.8527 25.0978 37.5598 26.3668 35.9898 26.3539ZM37.6974 23.5086C37.7004 22.549 36.9392 21.787 35.9819 21.791C35.0613 21.7949 34.306 22.551 34.2991 23.474C34.2921 24.4396 35.0465 25.2085 35.9987 25.2075C36.9421 25.2075 37.6945 24.4544 37.6974 23.5086Z" fill="white"/>
<defs>
<filter id="filter0_d_755_33" x="0.900001" y="0.5" width="70.2" height="70.2" filterUnits="userSpaceOnUse" color-interpolation-filters="sRGB">
<feFlood flood-opacity="0" result="BackgroundImageFix"/>
<feColorMatrix in="SourceAlpha" type="matrix" values="0 0 0 0 0 0 0 0 0 0 0 0 0 0 0 0 0 0 127 0" result="hardAlpha"/>
<feOffset dy="3.6"/>
<feGaussianBlur stdDeviation="4.05"/>
<feComposite in2="hardAlpha" operator="out"/>
<feColorMatrix type="matrix" values="0 0 0 0 0 0 0 0 0 0 0 0 0 0 0 0 0 0 0.05 0"/>
<feBlend mode="normal" in2="BackgroundImageFix" result="effect1_dropShadow_755_33"/>
<feBlend mode="normal" in="SourceGraphic" in2="effect1_dropShadow_755_33" result="shape"/>
</filter>
</defs>
</svg>
